<svg width="28" height="42" viewBox="0 0 28 42" fill="none" xmlns="http://www.w3.org/2000/svg">
<path d="M14 0C6.28055 0 0 6.28056 0 14C0 16.3174 0.579385 18.6151 1.68082 20.6531L13.2344 41.5488C13.3882 41.8274 13.6813 42 14 42C14.3187 42 14.6118 41.8274 14.7656 41.5488L26.3235 20.6462C27.4206 18.6151 28 16.3173 28 13.9999C28 6.28056 21.7195 0 14 0ZM14 21C10.1403 21 7.00004 17.8598 7.00004 14C7.00004 10.1403 10.1403 7.00005 14 7.00005C17.8597 7.00005 21 10.1403 21 14C21 17.8598 17.8597 21 14 21Z" fill="#FFC339"/>
</svg>
