<svg width="382" height="496" viewBox="0 0 382 496" fill="none" xmlns="http://www.w3.org/2000/svg">
<path d="M374.981 495.89C378.122 496.517 382.451 494.426 381.962 490.591C380.007 474.624 371.56 461.307 367.232 445.899C361.159 424.494 359.065 401.764 354.178 380.08C342.45 328.555 327.441 277.797 312.293 227.038C297.144 176.28 278.156 129.426 260.634 80.6204C251.769 56.0779 247.44 17.8697 220.634 5.94713C192.71 -6.74244 146.078 3.08852 119.411 14.802C84.8258 31.2475 53.7311 54.1848 27.8221 82.3635C-16.5065 127.823 -54.3429 199.219 -36.4718 264.48C-36.2183 265.73 -35.4844 266.832 -34.4275 267.549C-33.3706 268.265 -32.0747 268.54 -30.8173 268.314C-28.9097 269.939 -26.6704 271.129 -24.2553 271.801C35.7802 318.933 99.3063 357.908 162.204 400.788C228.453 445.62 295.19 481.318 374.981 495.89ZM-25.5817 256.392C-25.9546 256.101 -26.3818 255.888 -26.8382 255.764C-40.8 192.038 -0.241082 127.404 41.9932 84.1065C64.1855 60.9426 90.1502 41.7053 118.783 27.2126C145.939 13.8259 194.246 2.46102 220.564 21.2164C219.822 23.0579 218.707 24.7266 217.29 26.1182C215.872 27.5098 214.183 28.5945 212.327 29.3043C211.738 29.586 211.22 29.995 210.81 30.5014C210.399 31.0079 210.107 31.5993 209.953 32.2327C179.726 41.9242 146.148 41.4361 117.456 55.2413C84.756 72.0411 55.6587 95.063 31.8012 123.012C11.9755 144.905 5.3436 171.818 -1.009 200.056C-2.40517 206.122 -13.5048 255.834 -21.9516 259.46C-22.9988 258.414 -24.3251 257.438 -25.5817 256.392ZM-11.6199 267.338C2.83051 252.139 9.32269 205.355 11.9056 194.548C22.9354 145.742 52.1155 112.275 91.9065 82.991C130.581 54.4046 176.445 57.1935 219.517 41.1572C220.501 40.7775 221.36 40.1339 222.001 39.2973C222.641 38.4607 223.038 37.4636 223.147 36.4161C225.653 34.5181 227.763 32.1497 229.36 29.4438C232.012 32.8964 234.13 36.7273 235.643 40.8086C262.519 113.181 289.256 185.972 310.757 260.226C322.555 300.945 333.794 341.802 343.497 383.148C347.965 402.113 350.967 421.147 354.597 440.251C357.389 454.963 365.906 469.186 369.536 483.619C298.471 469.116 235.294 437.671 175.747 396.604C112.779 353.028 48.6251 314.331 -11.6897 267.338L-11.6199 267.338Z" fill="#FCFCFC"/>
<path d="M165.257 277.551C166.652 284.561 168.761 291.412 171.553 297.998C175.751 306.413 182.957 317.332 193.731 317.958C214.3 319.141 233.33 295.007 226.894 274.629C223.443 265.559 217.04 257.897 208.703 252.861C187.715 236.378 208.703 235.543 220.947 233.526C242.775 229.91 239.067 204.733 229.062 191.797C198.769 153.267 117.123 183.312 104.599 224.833C98.0229 246.462 103.62 273.517 124.888 285.131C143.219 295.007 155.322 278.176 154.273 261.485C154.237 260.758 154.046 260.047 153.713 259.398C161.409 262.25 161.829 264.823 165.257 277.551ZM138.111 266.562C126.777 275.835 119.338 272.821 115.793 257.52C112.876 249.692 112.269 241.199 114.044 233.039C117.549 220.503 125.599 209.701 136.642 202.716C157.141 187.415 189.884 180.808 213.041 193.188C225.121 198.984 226.847 208.836 218.218 222.746C213.612 223.646 208.917 224.019 204.226 223.859C199.693 223.778 195.271 225.252 191.703 228.032C184.706 234.987 189.184 247.784 194.781 254.252C199.856 259.574 205.354 264.481 211.222 268.926C228.643 283.949 200.448 320.253 184.007 298.137C179.936 290.866 177.211 282.927 175.961 274.699C171.763 258.077 164.767 243.194 147.976 236.795C145.965 235.959 143.801 235.545 141.621 235.579C139.441 235.614 137.292 236.096 135.309 236.996C133.326 237.896 131.551 239.194 130.096 240.808C128.642 242.423 127.539 244.319 126.857 246.377C126.174 248.436 125.928 250.612 126.132 252.77C126.337 254.928 126.988 257.02 128.045 258.915C129.102 260.811 130.542 262.469 132.274 263.785C134.006 265.1 135.994 266.046 138.111 266.562Z" fill="#FCFCFC"/>
<path d="M321.355 369.529C301.465 312.045 217.158 320.167 190.637 365.988C190.445 366.409 190.304 366.852 190.219 367.307C189.667 368.066 189.289 368.936 189.113 369.857C188.937 370.777 188.967 371.724 189.2 372.632C189.433 373.54 189.864 374.385 190.462 375.109C191.06 375.832 191.811 376.416 192.661 376.818C216.32 386.607 234.536 404.588 254.356 419.515C266.36 428.61 283.459 444.994 299.581 443.953C328.683 442.217 327.706 387.788 321.355 369.529ZM265.942 414.447C253.1 405.352 241.445 395.216 229.162 386.052C230.084 384.535 231.16 383.116 232.372 381.817C232.982 381.21 233.425 380.456 233.657 379.629C233.889 378.802 233.903 377.93 233.698 377.096C243.958 361.614 263.778 361.545 279.481 370.778C288.973 376.332 297.557 385.913 289.461 396.049C283.09 402.792 276.078 408.907 268.524 414.308C268.112 414.694 267.759 415.139 267.477 415.627L265.942 414.447ZM277.038 421.806C286.39 414.1 297.975 406.671 302.861 395.147C308.374 382.025 298.045 370.987 288.344 363.489C267.407 347.104 234.466 350.09 222.043 375.083C221.666 375.862 221.475 376.717 221.485 377.582L220.089 379.595C214.321 375.639 208.281 372.09 202.013 368.973C227.557 329.887 295.463 328.429 312.213 376.888C315.204 388.646 315.012 400.982 311.654 412.642C307.118 436.038 290.787 430.276 277.038 421.875L277.038 421.806Z" fill="#FCFCFC"/>
<path d="M149.074 124.06C149.001 125.007 149.194 125.955 149.632 126.796C158.063 144.832 176.666 159.428 197.151 150.095C215.755 141.674 219.726 120.13 209.484 103.358C191.856 74.5858 143.709 85.6735 148.308 121.744C148.382 122.565 148.645 123.358 149.074 124.06ZM195.409 104.06C198.001 105.984 200.127 108.474 201.626 111.344C203.126 114.214 203.961 117.389 204.068 120.63C204.175 123.871 203.552 127.095 202.246 130.059C200.939 133.023 198.983 135.65 196.524 137.744C181.126 149.393 165.866 135.007 159.387 121.533C156.808 99.849 179.384 91.0771 195.409 104.06Z" fill="#FCFCFC"/>
<path d="M131.43 131.095C129.609 126.335 125.964 122.417 121.235 120.136C116.507 117.854 111.048 117.381 105.968 118.811C100.887 120.241 96.5659 123.468 93.8803 127.837C91.1948 132.206 90.3464 137.389 91.5073 142.335C91.3522 142.961 91.3354 143.612 91.4579 144.246C91.5805 144.879 91.8396 145.481 92.2189 146.013C94.7791 150.719 99.01 154.396 104.15 156.381C109.29 158.367 115.002 158.531 120.258 156.844C122.76 155.859 125.035 154.41 126.951 152.582C128.868 150.754 130.389 148.581 131.427 146.189C132.465 143.797 132.999 141.233 133 138.642C133.001 136.052 132.467 133.487 131.43 131.095ZM102.965 141.449C102.999 141.064 102.999 140.676 102.965 140.291C102.317 137.972 102.643 135.503 103.872 133.41C105.1 131.318 107.135 129.769 109.541 129.093C111.947 128.417 114.534 128.668 116.749 129.793C118.964 130.918 120.632 132.828 121.396 135.114C121.894 136.164 122.169 137.298 122.205 138.451C122.241 139.603 122.039 140.751 121.608 141.828C121.178 142.905 120.529 143.89 119.699 144.725C118.868 145.56 117.873 146.23 116.771 146.694C114.192 147.504 111.398 147.423 108.876 146.464C106.353 145.506 104.261 143.731 102.965 141.449Z" fill="#FCFCFC"/>
<path d="M76.0835 266.525C78.7534 261.791 79.8741 256.35 79.2904 250.955C79.9178 239.953 80.1967 228.673 79.8481 217.671C79.8574 216.944 79.7222 216.222 79.4504 215.547C79.1786 214.872 78.7755 214.257 78.264 213.736C77.7526 213.216 77.1429 212.8 76.4697 212.514C75.7965 212.227 75.073 212.075 74.3406 212.066C59.7955 211.655 45.26 213.167 31.117 216.564C30.4027 216.763 29.735 217.101 29.1521 217.557C28.5692 218.012 28.0826 218.578 27.72 219.221C27.3574 219.863 27.126 220.57 27.0389 221.302C26.9519 222.033 27.011 222.775 27.2129 223.484C29.3043 238.015 29.5832 252.685 32.093 267.078C32.2174 267.918 32.5681 268.708 33.1081 269.366C33.6481 270.024 34.3572 270.524 35.1604 270.815C35.4555 271.862 36.1338 272.761 37.0624 273.337C37.9909 273.913 39.1028 274.124 40.18 273.929C51.2648 272.407 68.3451 276.212 76.0835 266.525ZM42.62 262.511C40.5983 250.471 39.9708 238.361 38.6462 226.321C48.5828 224.312 58.6928 223.269 68.8331 223.207C68.8331 234.278 68.4148 245.35 67.9965 256.353C67.6479 264.172 50.4979 262.442 42.62 262.511Z" fill="#FCFCFC"/>
<path d="M251.019 252.422C248.851 256.788 247.317 261.439 246.461 266.237C244.18 273.22 242.381 280.352 241.074 287.581C240.944 288.287 240.985 289.013 241.194 289.7C241.402 290.386 241.772 291.013 242.273 291.527C242.773 292.041 243.39 292.428 244.07 292.655C244.751 292.881 245.476 292.942 246.185 292.83C246.581 293.291 247.047 293.687 247.566 294.005C254.471 297.804 261.377 301.81 268.283 305.264C269.013 305.684 269.83 305.932 270.672 305.988C271.513 306.044 272.355 305.907 273.135 305.587C273.915 305.267 274.611 304.772 275.17 304.142C275.73 303.511 276.138 302.761 276.362 301.948C277.787 294.578 279.843 287.345 282.509 280.328C284.373 275.769 287.826 272.316 289.414 267.688C293.143 258.086 278.089 253.044 271.943 251.041C265.797 249.038 255.576 244.686 251.019 252.422ZM269.526 261.333C272.356 262.168 275.106 263.255 277.744 264.579C279.884 265.685 275.327 270.451 274.498 271.487C270.892 277.74 268.546 284.639 267.592 291.794L253.228 283.92C253.116 283.887 252.996 283.887 252.883 283.92C254.333 276.46 257.096 269.138 259.098 261.955C259.582 260.159 259.098 258.708 260.687 258.777C263.738 259.21 266.714 260.071 269.526 261.333Z" fill="#FCFCFC"/>
<path d="M159.888 318.326C147.495 297.379 113.379 315.253 124.031 337.178C124.031 337.178 124.449 337.667 124.658 337.946C124.658 339.025 124.999 340.076 125.633 340.948C128.523 345.877 133.183 349.512 138.658 351.109C144.133 352.705 150.009 352.143 155.084 349.537C166.433 343.253 165.667 328.101 159.888 318.326ZM135.171 335.293C134.88 334.871 134.528 334.495 134.127 334.176C134.17 333.258 133.979 332.344 133.57 331.522C132.899 329.635 132.955 327.565 133.728 325.718C134.501 323.87 135.935 322.379 137.747 321.538C139.596 320.259 141.853 319.715 144.079 320.012C146.305 320.309 148.341 321.425 149.793 323.143C153.274 327.054 154.945 335.712 150.28 339.343C149.03 340.098 147.641 340.594 146.195 340.799C144.75 341.004 143.278 340.915 141.868 340.537C140.457 340.159 139.137 339.5 137.987 338.599C136.836 337.698 135.879 336.573 135.171 335.293Z" fill="#FCFCFC"/>
</svg>
