<svg width="265" height="330" viewBox="0 0 265 330" fill="none" xmlns="http://www.w3.org/2000/svg">
<path d="M150.035 57.5362C149.4 57.4814 148.765 57.6363 148.227 57.9771C146.639 53.5684 145.052 48.8511 143.509 44.266C138.879 30.5108 134.689 16.6674 131.162 2.47128C130.943 1.6343 130.405 0.916282 129.663 0.471223C128.921 0.0261642 128.035 -0.110498 127.193 0.0905655C119.747 1.32334 112.467 3.40919 105.498 6.30688C105.034 6.45314 104.609 6.70416 104.257 7.04051C103.906 7.37687 103.636 7.78954 103.469 8.2467C103.192 8.20435 102.909 8.20435 102.631 8.2467C102.045 8.20042 101.457 8.291 100.912 8.51124C100.379 8.73103 99.9095 9.07942 99.5447 9.52523C99.2351 9.88278 99.0204 10.3124 98.9202 10.7746C98.82 11.2369 98.8376 11.7169 98.9715 12.1705C101.176 21.9579 103.954 31.5248 107.085 40.9594L109.863 49.0274C108.554 49.7725 107.301 50.6124 106.115 51.5404C102.584 54.3647 99.3353 57.5244 96.4139 60.9751L95.9289 61.5923C92.7246 53.392 89.3144 45.2506 85.6985 37.1679C85.2728 36.4246 84.5717 35.8785 83.7467 35.6475C82.9216 35.4166 82.0388 35.5193 81.2889 35.9335C75.9092 39.8132 70.9704 44.2219 65.5907 48.1016C65.2989 48.3056 65.0451 48.5593 64.8411 48.8511C64.5563 49.2236 64.3507 49.6504 64.2369 50.1053C64.1232 50.5602 64.1036 51.0336 64.1796 51.4963C63.9701 51.8035 63.8205 52.1475 63.7387 52.5103C63.7387 52.5103 63.7387 52.5103 63.7387 52.8189C63.6543 53.226 63.6543 53.6462 63.7387 54.0534C64.5324 56.7868 65.3702 59.5202 66.208 62.2095C67.4427 66.2655 68.7656 70.2775 70.1326 74.2894C69.8832 74.2681 69.6324 74.2681 69.383 74.2894L62.3275 74.5539C60.3873 70.3656 58.2707 66.2655 56.11 62.2095C54.6548 59.4761 53.1996 56.7867 51.7003 54.0974C50.8646 52.5633 49.9215 51.09 48.8782 49.6887C47.2308 47.2167 44.7635 45.4056 41.9111 44.5746C41.3396 44.5102 40.7627 44.5102 40.1912 44.5746C35.1202 44.5746 30.3137 48.9833 26.2569 53.6566C23.567 56.8308 21.1858 60.0933 19.3338 62.0772C19.0006 64.3713 18.7945 66.6821 18.7164 68.9989C22.2 76.2292 25.3308 83.5918 28.3735 91.0425C21.274 93.82 16.7762 96.0685 15.1446 100.83C14.1423 104.085 13.9455 107.534 14.5714 110.882C15.1824 114.396 16.4223 117.771 18.2313 120.846C19.2015 122.609 20.2157 124.328 21.274 126.048C20.7613 126.068 20.26 126.206 19.8089 126.45C19.3578 126.695 18.969 127.04 18.6723 127.459C17.2613 129.487 15.7914 131.47 14.2627 133.41C9.8531 139.318 5.04659 144.961 0.460588 150.781C0.089848 151.402 -0.0637025 152.129 0.0241071 152.848C0.111917 153.566 0.436105 154.235 0.945649 154.749C4.82611 158.805 8.66249 162.861 12.4548 166.961C19.1133 174.103 25.6836 181.333 31.9453 189.004C27.5356 198.571 23.126 208.05 18.7164 217.705C18.4837 218.215 18.3923 218.779 18.4518 219.336C18.2317 219.872 18.2037 220.468 18.3724 221.022C18.5412 221.577 18.8964 222.056 19.3779 222.378C25.8765 227.687 31.9508 233.495 37.5455 239.749C54.3903 258.398 67.5309 280.265 81.3771 301.162C85.3899 307.202 87.9033 314.036 91.872 319.723C94.2451 323.27 97.456 326.177 101.22 328.188C103.418 329.277 105.824 329.878 108.276 329.951C109.568 330.016 110.864 330.016 112.156 329.951C118.761 328.93 125.288 327.457 131.691 325.543C131.994 325.849 132.36 326.086 132.763 326.238C133.167 326.39 133.598 326.454 134.028 326.424H134.866C135.397 326.287 135.888 326.022 136.295 325.654C136.702 325.285 137.014 324.823 137.203 324.308C137.683 324.41 138.178 324.41 138.658 324.308C160.486 315.887 182.005 306.673 204.494 300.325C224.381 294.549 244.445 290.537 263.23 281.632C263.715 281.408 264.133 281.061 264.441 280.625C264.75 280.19 264.938 279.68 264.987 279.148C265.036 278.617 264.944 278.081 264.721 277.596C264.498 277.111 264.151 276.694 263.715 276.385C264.782 271.328 265.006 266.129 264.376 260.999C263.891 246.935 261.863 232.827 259.967 218.851C257.012 196.808 254.102 174.764 251.809 152.721C249.516 130.677 251.809 107.134 248.502 84.5617C248.333 83.8583 247.933 83.2321 247.365 82.7842C246.797 82.3363 246.094 82.0927 245.371 82.0928C239.744 82.5034 234.157 83.3435 228.658 84.6058C225.395 76.0529 222.97 67.2795 219.839 58.5943C218.803 54.4338 217.09 50.4718 214.768 46.8671C209.432 40.0777 199.202 43.5165 192.191 44.9714C191.832 45.0641 191.489 45.2129 191.177 45.4122C189.057 38.0776 186.495 30.8781 183.504 23.8536C176.272 7.27678 163.616 12.6995 149.065 16.7996C148.225 17.0187 147.504 17.5545 147.052 18.2944C146.599 19.0344 146.452 19.9209 146.64 20.7675C148.653 33.7916 151.6 46.6541 155.459 59.2556C154.312 59.2556 153.033 58.947 151.711 58.8588L150.035 57.5362ZM171.157 90.2048C175.567 105.724 180.814 121.066 185.621 136.232C183.581 139.864 181.235 143.315 178.609 146.548C174.574 138.415 171.168 129.985 168.423 121.33C163.705 107.002 160.089 92.2329 155.194 77.9045C153.607 73.4958 152.019 68.7344 150.388 64.1493C165.865 65.3838 167.277 76.1851 171.157 90.2048ZM101.132 167.887C101.243 167.467 101.268 167.028 101.206 166.598C101.143 166.168 100.994 165.756 100.767 165.385C100.54 165.014 100.241 164.693 99.887 164.441C99.533 164.189 99.1315 164.011 98.7069 163.919H98.1778C97.5808 163.893 96.9874 164.022 96.4546 164.292C95.9217 164.563 95.4674 164.965 95.1351 165.462C93.6946 167.49 92.3277 169.562 91.0342 171.678C87.1096 178.027 83.5378 184.552 79.1282 190.503C79.9732 184.455 81.3004 178.485 83.0969 172.648C84.1111 169.121 85.1694 165.594 86.1395 162.023C86.3052 161.317 86.2403 160.577 85.9547 159.91C85.669 159.244 85.1775 158.687 84.5521 158.32C83.9635 157.937 83.2685 157.752 82.5677 157.791C82.1918 157.817 81.8255 157.92 81.4916 158.095C81.1578 158.269 80.8636 158.511 80.6275 158.805C76.8657 163.351 73.3619 168.106 70.1326 173.045C72.0728 166.652 74.3217 160.304 76.5706 153.911C76.7453 153.414 76.7878 152.88 76.6939 152.361C76.6001 151.843 76.3731 151.357 76.0352 150.953C75.6973 150.548 75.2602 150.239 74.7666 150.054C74.273 149.869 73.7398 149.816 73.2193 149.899C72.7953 149.907 72.3773 150.001 71.9907 150.175C71.6042 150.35 71.257 150.6 70.9704 150.913C70.636 151.267 70.3805 151.688 70.2208 152.147C66.0042 163.072 62.6283 174.303 60.1227 185.742C56.8155 178.997 53.5965 172.251 50.5098 165.418C50.4181 165.239 50.299 165.075 50.157 164.933L52.9351 162.817C59.8442 157.266 67.2211 152.325 74.9832 148.047C76.3327 147.294 77.8474 146.885 79.3928 146.857C79.6882 146.915 79.9624 147.053 80.1865 147.254C81.5976 148.709 83.0969 150.119 84.5961 151.442C89.1766 155.481 94.0234 159.207 99.1038 162.596C102.461 164.87 105.984 166.889 109.643 168.636C109.293 168.883 108.981 169.18 108.717 169.518C101.529 179.085 97.5163 190.636 91.0783 200.687C91.872 197.954 92.7098 195.265 93.5917 192.531C96.3698 184.199 99.1479 176.263 101.132 167.887ZM24.2284 130.148C25.9904 132.932 27.4677 135.886 28.6381 138.965C32.3862 149.546 34.9439 160.348 39.2212 170.752C37.8542 174.411 36.3549 177.983 34.8116 181.554C25.9923 171.237 16.9085 161.318 7.56008 151.574C12.9398 144.52 18.8487 137.555 24.0521 130.148H24.2284ZM38.2069 97.0384C34.0178 86.3252 29.6523 75.7442 24.7135 65.3396C28.8585 60.5782 33.8855 52.3339 39.9267 50.6145C40.354 50.4596 40.8222 50.4596 41.2496 50.6145C43.4544 51.4963 45.6592 55.6405 47.1144 58.6384L48.4373 61.3278C50.8626 65.7365 53.1114 70.1452 55.2281 74.5539L48.6578 74.7743C48.1558 74.7842 47.6621 74.9039 47.2113 75.1249C46.7605 75.346 46.3635 75.663 46.0484 76.0537C45.7332 76.4445 45.5074 76.8995 45.3868 77.3868C45.2663 77.8741 45.2539 78.3819 45.3506 78.8745C48.1561 90.0613 52.2707 100.878 57.6093 111.102C62.9828 121.301 67.739 131.812 71.8523 142.58C67.9719 145.049 64.0473 147.518 60.2109 150.031C51.7004 132.749 45.0419 114.806 38.0306 97.0384H38.2069ZM60.255 81.3433C60.805 81.3308 61.3401 81.1626 61.7984 80.8584L69.1625 80.6379C69.7146 80.592 70.2532 80.4425 70.7499 80.1971C71.1728 79.9367 71.5219 79.5724 71.7641 79.139C81.4212 106.341 93.5918 132.529 105.762 158.716C103.469 157.306 101.353 155.807 99.0597 154.308C92.881 149.829 87.0979 144.829 81.774 139.362C81.3124 138.921 80.7284 138.629 80.0983 138.524C79.3821 138.379 78.6375 138.522 78.0258 138.921H77.8053C75.9533 134.028 73.8367 129.222 71.5878 124.461C68.2365 117.319 64.6206 110.309 61.3134 103.166C57.9105 96.0702 55.1222 88.6953 52.9792 81.1229H59.1085C59.4704 81.278 59.8614 81.3532 60.255 81.3433ZM97.825 66.3537C98.088 66.395 98.3557 66.395 98.6187 66.3537C98.8962 66.3975 99.179 66.3975 99.4565 66.3537C100.065 66.1823 100.614 65.8467 101.044 65.3838C102.72 63.488 104.439 61.5923 106.247 59.8288C108.044 58.051 110.025 56.4696 112.156 55.1114C113.626 58.9911 115.096 62.8708 116.566 66.7505C118.815 72.57 120.976 78.3454 123.489 84.3854C134.425 111.234 142.803 138.877 153.298 165.859C153.298 165.859 153.298 166.123 153.563 166.255C151.819 166.996 150.02 167.6 148.183 168.063C144.879 168.974 141.468 169.434 138.041 169.43C126.047 144.432 116.83 118.377 107.394 92.3651C104.351 83.5918 101.132 74.9507 97.825 66.3537ZM159.56 163.346C150.74 140.068 143.509 116.128 134.248 92.806C127.678 76.3615 121.02 60.0492 115.155 43.3842C111.629 33.3736 108.612 23.1911 106.115 12.8759C106.463 12.9568 106.825 12.9568 107.173 12.8759C112.509 10.8919 117.801 8.99621 123.313 7.45316C124.459 7.14455 125.562 8.77577 126.576 11.2006C128.402 16.5654 129.875 22.0439 130.985 27.601C135.395 43.252 141.304 58.4621 146.728 73.9808C151.843 88.6177 155.547 103.696 160.353 118.509C163.812 130.068 168.329 141.284 173.847 152.015C172.744 153.117 171.642 154.175 170.495 155.189C167.065 158.191 163.359 160.862 159.427 163.169L159.56 163.346ZM87.9033 59.2116C102.587 95.4953 113.876 133.146 130.456 168.68C125.203 167.702 120.093 166.073 115.243 163.831C115.268 163.64 115.268 163.448 115.243 163.257C110.833 154.22 106.821 145.182 102.676 136.1C89.7504 109.051 78.9294 81.0457 70.3089 52.3339C74.1012 49.4683 77.7612 46.4262 81.5094 43.5165C83.4937 48.851 85.8749 54.0093 87.9033 59.2116ZM30.5783 96.4653H30.7988C34.6352 105.988 38.251 115.599 42.0874 125.166C45.9238 134.733 49.8924 144.168 54.3902 153.426C50.9066 155.807 47.4672 158.187 44.1159 160.789C43.8206 161.007 43.5739 161.284 43.3917 161.603C43.2095 161.922 43.0957 162.275 43.0575 162.64C39.5298 152.28 37.5896 140.817 32.6949 131.162C30.005 125.827 26.7419 120.846 23.8757 115.687C18.5841 106.87 20.1275 101.403 27.1388 97.7438C28.153 97.4352 29.2554 96.9502 30.5783 96.4653ZM25.3308 217.97C32.2098 202.407 40.1031 187.109 46.012 171.325C69.4711 222.511 98.9274 270.389 127.854 318.621C113.964 321.222 101.617 323.779 93.1067 308.26C87.1537 297.503 80.7598 287.319 74.0131 277.047C62.3073 257.911 48.379 240.227 32.5185 224.362C30.0932 222.158 27.6679 220.042 25.1986 217.97H25.3308ZM137.071 316.681C136.336 316.957 135.725 317.49 135.351 318.18C110.172 275.988 84.3316 234.15 62.4158 190.327C62.6636 190.373 62.9176 190.373 63.1654 190.327C63.5995 190.343 64.0314 190.26 64.4287 190.084C64.8259 189.908 65.178 189.645 65.4584 189.313C68.9502 185.546 72.1353 181.507 74.9832 177.233C72.8756 184.507 71.8795 192.058 72.0287 199.629C72.0604 200.438 72.3726 201.21 72.9117 201.813C73.4509 202.417 74.1833 202.814 74.9832 202.936H75.9092C76.5793 202.819 77.1959 202.495 77.673 202.01C78.6872 200.996 79.6574 199.982 80.6275 198.88C83.3038 195.641 85.7357 192.207 87.9033 188.608C85.9631 194.559 84.067 200.555 82.6559 206.683C82.2149 208.711 81.818 210.783 81.4653 212.856C81.3753 213.393 81.4037 213.944 81.5484 214.469C81.6931 214.994 81.9506 215.482 82.3031 215.898C82.608 216.289 83.0054 216.599 83.4595 216.799C83.9135 216.999 84.4102 217.083 84.9048 217.044C85.6678 216.979 86.3847 216.652 86.9332 216.118C88.6426 214.545 90.2206 212.834 91.6516 211.004C96.8694 204.046 101.306 196.536 104.88 188.608C102.367 195.617 99.0156 202.363 97.1194 209.505C95.8867 213.799 95.4092 218.274 95.7084 222.731C95.7282 223.327 95.9112 223.907 96.2375 224.406C96.4754 224.836 96.8109 225.203 97.2169 225.479C97.6228 225.754 98.0879 225.931 98.5746 225.994C99.0636 226.052 99.5594 226.008 100.03 225.864C100.501 225.72 100.937 225.479 101.309 225.156C104.253 222.697 106.849 219.849 109.025 216.691C107.267 223.324 106.981 230.261 108.188 237.015C108.288 237.656 108.606 238.242 109.088 238.675C109.57 239.109 110.186 239.363 110.833 239.396C111.484 239.453 112.139 239.341 112.734 239.071C113.329 238.8 113.844 238.381 114.229 237.853C114.758 237.104 115.243 236.31 115.772 235.516C115.331 237.148 114.978 238.735 114.626 240.366C113.591 245.255 113.001 250.228 112.862 255.223C112.855 255.716 112.956 256.204 113.159 256.653C113.362 257.102 113.662 257.501 114.036 257.821C114.411 258.141 114.852 258.374 115.327 258.504C115.803 258.635 116.301 258.658 116.786 258.574C117.46 258.476 118.074 258.13 118.506 257.604C121.374 253.983 124.052 250.215 126.532 246.318C124.395 252.957 123.309 259.888 123.313 266.862C123.328 267.671 123.636 268.447 124.179 269.047C124.722 269.646 125.464 270.029 126.267 270.125H126.752C127.303 270.133 127.846 269.989 128.32 269.709C128.795 269.429 129.183 269.024 129.442 268.538L131.25 265.231C129.765 270.998 128.937 276.914 128.781 282.866C128.77 283.519 128.958 284.16 129.321 284.703C129.683 285.246 130.202 285.667 130.809 285.908C131.101 285.954 131.399 285.954 131.691 285.908C132.184 285.976 132.685 285.932 133.159 285.78C133.632 285.627 134.065 285.369 134.425 285.026C135.439 284.1 136.409 283.086 137.335 282.072C139.648 279.575 141.771 276.908 143.685 274.093C144.479 272.991 145.228 271.844 145.934 270.698C141.941 279.263 138.566 288.103 135.836 297.15C135.711 297.629 135.694 298.13 135.786 298.616C135.878 299.103 136.077 299.563 136.368 299.963C136.659 300.364 137.035 300.695 137.469 300.932C137.903 301.17 138.384 301.309 138.879 301.339C139.243 301.403 139.616 301.403 139.981 301.339C140.382 301.242 140.756 301.057 141.076 300.798C141.396 300.538 141.655 300.211 141.833 299.84C143.95 296.004 146.243 292.169 148.315 288.377C151.578 282.646 154.93 276.958 158.457 271.447C153.698 280.795 150.185 290.726 148.006 300.986C147.842 301.811 147.966 302.667 148.359 303.411C148.623 303.881 148.999 304.279 149.452 304.571C149.905 304.863 150.423 305.04 150.961 305.086C151.565 305.119 152.168 304.994 152.709 304.724C153.25 304.453 153.712 304.046 154.048 303.543C161.588 293.006 167.85 281.499 175.214 270.962L173.362 274.754C168.681 283.493 165.689 293.035 164.543 302.882C164.496 303.115 164.496 303.354 164.543 303.587C164.62 304.134 164.867 304.643 165.248 305.042C156.032 309.098 146.507 312.978 136.938 316.681H137.071ZM188.707 296.974C183.372 298.737 178.08 300.633 172.789 302.617C180.153 293.227 186.591 283.175 193.69 273.564C191.111 280.086 189.076 286.81 187.605 293.667C187.466 294.255 187.482 294.869 187.652 295.449C187.822 296.029 188.14 296.554 188.575 296.974H188.707ZM197.174 294.373L194.352 295.255C198.408 289.744 202.201 284.056 206.081 278.413C206.081 279.78 205.684 281.103 205.508 282.469C204.979 286.129 209.917 286.525 211.637 284.189L212.916 282.425C212.895 282.601 212.895 282.779 212.916 282.954C213.061 283.516 213.35 284.029 213.756 284.443C214.161 284.858 214.669 285.158 215.227 285.314C215.786 285.471 216.375 285.477 216.937 285.334C217.499 285.191 218.013 284.902 218.428 284.497C219.575 283.527 220.633 282.469 221.691 281.411C222.546 282.938 223.156 284.589 223.499 286.305C223.635 286.585 223.797 286.85 223.984 287.098C214.989 289.523 205.993 291.772 197.041 294.417L197.174 294.373ZM235.758 88.4854C247.135 86.1929 243.431 117.671 243.387 122.785C243.952 145.345 245.955 167.846 249.384 190.151C251.059 204.17 253.44 218.102 255.204 232.122C255.822 237.324 262.657 270.61 257.012 274.666C256.381 275.122 255.917 275.773 255.689 276.518C247.361 279.999 238.818 282.944 230.114 285.335C230.135 285.1 230.135 284.864 230.114 284.63C229.066 280.976 227.395 277.531 225.175 274.445C224.917 274.011 224.564 273.641 224.143 273.362C223.722 273.084 223.244 272.904 222.744 272.836C222.243 272.768 221.734 272.814 221.254 272.971C220.774 273.127 220.336 273.39 219.971 273.74C219.442 274.357 218.825 274.974 218.252 275.592C218.031 274.886 217.855 274.181 217.59 273.52C217.347 272.732 216.833 272.056 216.139 271.613C215.444 271.169 214.615 270.985 213.798 271.095C214.107 269.199 214.371 267.259 214.636 265.363C215.165 261.66 210.226 261.352 208.506 263.644C205.552 267.612 202.73 271.668 199.952 275.768C201.975 270.55 203.539 265.166 204.626 259.676C205.111 256.722 201.539 253.724 199.114 256.458C190.31 267.019 182.095 278.057 174.508 289.523C178.918 276.562 186.855 264.702 191.353 251.741C191.527 251.048 191.472 250.318 191.196 249.659C190.92 249.001 190.438 248.449 189.823 248.087C189.208 247.724 188.491 247.571 187.782 247.65C187.072 247.728 186.406 248.034 185.885 248.522C183.528 250.769 181.29 253.138 179.182 255.62C173.025 263.091 167.424 271.004 162.426 279.295C166.836 269.552 171.951 260.205 176.625 250.55C178.212 247.332 179.712 244.113 181.034 240.807C182.357 237.5 177.639 235.164 175.567 237.588C169.072 245.276 163.021 253.328 157.443 261.704C163.658 249.033 168.492 235.73 171.862 222.026C172.017 221.445 172.008 220.834 171.837 220.258C171.666 219.682 171.339 219.165 170.892 218.763C170.343 218.277 169.641 217.997 168.908 217.97C168.309 217.94 167.712 218.062 167.173 218.324C166.633 218.586 166.169 218.98 165.821 219.469C161.359 225.722 157.547 232.413 154.444 239.44C149.021 251.123 144.302 263.247 136.541 273.299C139.893 252.049 152.063 233.003 157.355 212.15C157.472 211.674 157.483 211.178 157.388 210.697C157.292 210.216 157.092 209.762 156.802 209.367C156.512 208.972 156.139 208.645 155.708 208.41C155.278 208.175 154.802 208.037 154.312 208.006C153.939 207.955 153.559 207.98 153.196 208.079C152.832 208.177 152.492 208.347 152.196 208.579C151.838 208.844 151.55 209.192 151.358 209.593C146.948 217.044 143.42 224.803 139.893 232.607C137.732 237.015 135.483 241.953 133.455 246.582C135.871 239.323 138.713 232.213 141.965 225.288C144.214 220.218 146.375 215.192 148.359 210.078C149.917 206.04 151.199 201.901 152.196 197.69C152.326 197.194 152.347 196.676 152.257 196.172C152.166 195.668 151.968 195.19 151.674 194.77C151.38 194.351 150.998 194 150.556 193.743C150.113 193.486 149.619 193.328 149.109 193.281C148.509 193.219 147.905 193.347 147.383 193.648C146.86 193.948 146.446 194.406 146.199 194.956C139.937 206.992 134.469 219.557 127.943 231.46C125.782 235.472 123.533 239.352 121.02 243.143C123.392 232.22 126.757 221.536 131.073 211.224C133.058 205.978 134.998 200.732 136.674 195.397C136.839 194.901 136.886 194.373 136.811 193.855C136.735 193.337 136.54 192.845 136.24 192.416C135.94 191.988 135.544 191.635 135.083 191.387C134.622 191.139 134.11 191.003 133.587 190.988C132.986 190.919 132.379 191.04 131.849 191.332C131.32 191.624 130.894 192.074 130.633 192.62C126.576 200.82 122.872 209.196 118.682 217.352C117.315 220.042 115.86 222.731 114.273 225.376C114.273 223.569 114.67 221.805 114.978 219.998C117.316 207.433 123.798 195.088 126.002 182.832C126.106 182.305 126.08 181.761 125.927 181.246C125.773 180.731 125.496 180.262 125.121 179.878C124.86 179.539 124.535 179.256 124.164 179.044C123.793 178.832 123.384 178.696 122.96 178.644C122.36 178.582 121.755 178.705 121.227 178.996C120.698 179.288 120.272 179.734 120.005 180.275C116.988 185.802 114.294 191.499 111.936 197.337C109.693 203.15 106.73 208.66 103.117 213.737C104.66 204.567 109.202 196.102 112.244 187.285C114.256 181.963 115.244 176.309 115.155 170.62C115.181 170.519 115.181 170.413 115.155 170.311C121.446 172.872 128.094 174.448 134.866 174.985C135.201 175.042 135.544 175.042 135.88 174.985C136.232 175.027 136.587 175.027 136.938 174.985C140.103 175.053 143.266 174.787 146.375 174.191C151.206 173.223 155.9 171.668 160.353 169.562C173.678 162.887 184.647 152.305 191.794 139.23C192.192 138.975 192.519 138.622 192.742 138.205C192.966 137.789 193.08 137.322 193.073 136.849C199.224 125.036 202.259 111.85 201.892 98.5374C202.403 98.4062 202.874 98.1532 203.266 97.8C203.658 97.4468 203.958 97.0039 204.141 96.5093H204.979C215.043 93.2874 225.273 90.6088 235.626 88.4854H235.758ZM193.734 50.1737C200.437 48.7629 207.889 45.4563 211.373 52.9952C215.782 63.2235 218.384 74.4217 222.22 84.9585C215.915 86.6338 209.653 88.5736 203.347 90.5575H203.038C199.775 77.3314 196.777 63.488 193.073 49.9973C193.289 50.072 193.51 50.131 193.734 50.1737ZM153.563 21.0761C157.046 20.0621 160.53 19.0481 164.057 18.1663C165.594 17.752 167.189 17.6029 168.776 17.7255C176.404 18.4749 178.786 27.0719 180.373 34.2582C180.814 36.2421 181.211 38.1379 181.608 39.725C186.017 57.0954 191.618 74.2453 196.248 91.6157C195.761 91.8688 195.366 92.2695 195.12 92.7605C194.875 93.2515 194.791 93.8075 194.881 94.349C195.94 105.579 194.245 116.899 189.942 127.326C185.227 109.05 179.545 91.0374 172.921 73.3635L171.774 70.6742C170.191 66.0201 166.896 62.1426 162.558 59.8288C162.601 59.5808 162.601 59.3273 162.558 59.0793C162.602 58.8314 162.602 58.5777 162.558 58.3298C160.089 49.0274 157.355 39.8573 155.326 30.5108C154.621 27.4687 154.048 24.3386 153.563 21.0761Z" fill="#FCFCFC"/>
</svg>
