<svg width="615" height="566" viewBox="0 0 615 566" fill="none" xmlns="http://www.w3.org/2000/svg">
<path d="M520.702 211.056C523.186 207.101 524.267 202.425 523.771 197.781C523.275 193.137 521.231 188.795 517.968 185.454C527.467 178.975 540.359 166.352 533.439 155.019C524.371 139.996 503.13 141.891 487.305 145.248C488.056 142.894 488.841 140.591 489.442 138.341C490.257 135.261 490.401 132.043 489.862 128.903C489.324 125.764 488.116 122.777 486.321 120.145C484.526 117.514 482.186 115.299 479.46 113.652C476.733 112.005 473.684 110.963 470.52 110.598C465.358 110.908 460.325 112.331 455.766 114.77C441.988 120.265 440.154 96.8471 437.452 88.6751C436.518 86.0136 435.062 83.5656 433.169 81.4747C431.275 79.3839 428.984 77.6924 426.428 76.4997C423.872 75.3069 421.103 74.637 418.285 74.5291C415.466 74.4213 412.654 74.8777 410.015 75.8717C399.003 79.7004 399.377 48.0753 384.421 49.1448C369.466 50.2143 362.197 69.679 355.76 80.1075C355.584 80.4294 355.446 80.7707 355.349 81.1243C351.651 69.6557 345.505 59.7822 334.9 63.7754C319.002 69.8325 327.294 99.1554 330.589 115.539C330.307 115.937 330.143 116.406 330.114 116.893C330.054 119.302 330.125 121.712 330.325 124.113C321.11 120.752 311.106 122.494 302.069 134.401C290.932 148.626 283.768 166.841 275.906 182.954C264.152 208.869 249.379 233.306 231.894 255.757C198.722 295.761 154.443 325.742 119.683 363.957C96.8648 389.02 84.1513 421.771 108.411 449.997C118.512 460.511 130.184 469.393 143.01 476.325C159.978 486.843 175.941 498.047 193.462 508.188C228.705 528.333 258.773 521.89 287.545 494.976C303.672 478.844 317.617 460.668 329.021 440.912C344.192 414.844 362.165 390.511 382.62 368.345C413.513 336.228 454.961 314.512 481.848 278.573C488.237 270.018 496.654 253.747 486.38 244.407C484.136 242.398 481.539 240.824 478.721 239.763C486.81 230.991 496.89 224.292 508.111 220.233C513.301 218.842 517.789 215.571 520.702 211.056ZM524.846 154.62C537.409 163.43 516.879 178.243 510.878 181.968C510.453 182.272 510.103 182.667 509.852 183.124C509.602 183.582 509.458 184.09 509.431 184.611C509.404 185.131 509.495 185.652 509.697 186.132C509.899 186.613 510.207 187.042 510.598 187.388C532.297 206.461 502.518 211.603 491.932 218.97C485.046 224.008 478.607 229.631 472.689 235.778C472.219 236.257 471.918 236.876 471.83 237.542C460.205 236.487 448.486 237.612 437.274 240.86C443.653 232.777 451.592 226.059 460.621 221.107C476.137 214.058 492.866 203.605 494.965 185.09C495.013 182.313 494.456 179.559 493.333 177.018C492.211 174.478 490.55 172.212 488.465 170.377C486.303 168.017 484.842 165.102 484.246 161.958C483.649 158.813 483.94 155.565 485.087 152.578C497.086 149.548 513.714 147.044 524.846 154.62ZM374.52 63.7778C385.963 48.1667 393.415 68.2686 398.059 78.2087C400.269 82.9605 403.578 86.3002 409.221 83.7769C441.52 69.6999 425.508 122.448 452.523 122.432C456.312 121.886 459.977 120.682 463.352 118.875C480.237 111.997 485.136 130.084 481.286 142.578C478.9 149.876 473.882 160.441 478.078 167.889C484.786 179.882 489.656 188.858 480.174 200.112C472.008 209.732 460.434 213.06 449.729 218.742C439.024 224.424 433.076 236.433 424.057 243.615C407.965 247.228 391.524 249.899 374.785 252.996C372.962 246.282 371.709 239.425 371.041 232.5C371.759 232.626 372.5 232.519 373.152 232.193C373.805 231.867 374.336 231.34 374.667 230.69C383.848 213.382 407.289 210.501 420.392 196.999C428.003 189.156 438.74 178.446 440.627 167.07C441.814 159.633 439.749 151.1 431.099 150.078C429.336 150.042 427.586 150.39 425.971 151.098C424.355 151.805 422.913 152.856 421.744 154.176C425.155 141.687 428.347 127.581 422.11 118.653C414.055 106.843 404.418 119.38 398.024 129.117C397.677 117.056 397.579 104.604 388.375 95.8597C379.171 87.1154 368.169 93.4413 359.817 99.8742C358.947 94.38 357.769 88.9393 356.286 83.5779C356.7 83.9505 357.19 84.2285 357.722 84.3925C358.254 84.5565 358.815 84.6027 359.367 84.5278C359.918 84.4529 360.447 84.2587 360.916 83.9588C361.385 83.6589 361.783 83.2604 362.083 82.791C366.388 76.6878 370.164 69.9153 374.52 63.7778ZM333.302 83.3488C333.19 80.7008 334.265 61.116 344.425 74.0686C346.8 77.737 348.537 81.7805 349.563 86.0283C351.697 92.9059 353.251 99.9505 354.207 107.088C354.275 107.672 354.493 108.229 354.84 108.704C355.187 109.179 355.651 109.556 356.187 109.799C356.723 110.041 357.313 110.141 357.899 110.087C358.485 110.034 359.047 109.83 359.53 109.495C371.98 99.678 387.2 94.8935 390.581 116.152C391.88 124.103 391.207 132.294 392.219 140.146C392.269 140.817 392.521 141.458 392.941 141.984C393.362 142.509 393.931 142.896 394.574 143.094C395.218 143.291 395.906 143.29 396.549 143.09C397.192 142.89 397.759 142.5 398.177 141.973C401.514 137.644 404.566 133.102 407.314 128.377C408.167 126.498 409.711 125.019 411.626 124.247C413.541 123.476 415.679 123.472 417.597 124.236C418.723 128.613 418.684 133.209 417.485 137.567C416.351 148.429 412.919 158.943 410.94 169.645C410.433 172.789 414.848 175.375 416.942 172.4C419.037 169.425 420.266 167.556 421.979 165.209C423.72 162.838 425.73 160.676 427.968 158.767C433.633 163.078 434.81 167.503 431.669 172.075C426.937 180.994 420.475 188.88 412.662 195.275C399.557 206.938 380.185 210.063 370.272 225.219C368.499 199.623 369.957 173.15 357.132 150.675C352.318 141.72 345.58 133.942 337.402 127.902L337.097 124.649C337.583 124.321 337.971 123.867 338.218 123.335C338.465 122.803 338.562 122.214 338.499 121.631C337.654 108.731 333.962 96.3007 333.471 83.3807L333.302 83.3488ZM305.059 464.62C290.972 484.022 273.419 502.769 250.718 511.699C224.975 521.893 196.205 502.709 175.78 489.173C147.332 470.137 95.9613 450.314 102.436 408.416C105.798 386.462 124.94 368.103 139.987 353.348C158.207 335.472 177.52 318.765 196.201 301.457C212.307 287.189 227.492 271.913 241.664 255.721C255.571 237.436 267.362 217.635 276.811 196.696C285.43 177.858 295.013 159.475 305.521 141.621C321.984 115.663 343.647 137.707 353.308 157.702C367.828 187.195 359.739 223.272 368.221 254.601C331.593 261.468 295.426 270.304 265.189 292.695C252.215 302.252 241.275 314.298 233.008 328.129C224.742 341.961 219.313 357.301 217.041 373.253C212.785 403.181 227.793 431.016 229.74 460.322C229.304 459.984 228.79 459.762 228.246 459.676C227.702 459.589 227.144 459.641 226.625 459.826C226.106 460.012 225.642 460.325 225.276 460.736C224.91 461.148 224.653 461.645 224.529 462.182C221.647 455.334 218.26 448.709 214.397 442.362C213.939 441.78 213.307 441.36 212.592 441.163C211.878 440.967 211.12 441.004 210.429 441.27C209.737 441.536 209.149 442.016 208.751 442.64C208.352 443.264 208.164 444 208.213 444.739C209.416 453.197 212.134 461.284 212.848 469.781C204.004 456.814 199.252 441.425 189.987 428.598C189.499 427.949 188.795 427.496 188.002 427.321C187.209 427.145 186.379 427.259 185.662 427.641C184.946 428.023 184.389 428.649 184.093 429.405C183.797 430.161 183.781 430.999 184.048 431.766C188.672 447.831 197.684 463.85 198.253 480.988C184.25 468.447 180.362 445.472 170.954 430.166C168.966 427.251 164.431 429.24 165.037 432.288C166.848 443.891 169.324 455.38 172.454 466.699C164.821 456.588 161.728 443.307 155.518 432.152C153.816 429.116 148.945 431.26 149.636 434.324C150.832 443.743 153.358 452.845 154.486 462.164C149.821 456.458 145.466 450.506 141.44 444.332C138.937 440.663 133.462 444.619 135.761 448.206C141.717 457.262 148.328 465.872 155.539 473.965C155.997 474.547 156.63 474.967 157.344 475.163C158.058 475.359 158.817 475.322 159.508 475.056C160.199 474.791 160.787 474.31 161.186 473.686C161.585 473.062 161.773 472.327 161.724 471.588C161.801 467.653 161.579 463.718 161.059 459.817C164.206 467.452 169.276 474.141 175.776 479.234C176.298 479.585 176.905 479.788 177.533 479.82C178.16 479.852 178.785 479.714 179.34 479.418C179.895 479.123 180.359 478.682 180.683 478.143C181.007 477.605 181.178 476.988 181.179 476.359C180.64 471.957 179.828 467.592 178.746 463.291C182.796 474.383 190.154 483.965 199.824 490.741C200.305 490.959 200.829 491.064 201.356 491.045C201.884 491.026 202.399 490.886 202.863 490.634C203.327 490.382 203.725 490.026 204.028 489.593C204.33 489.161 204.528 488.664 204.606 488.142C205.214 480.906 204.577 473.619 202.724 466.598C205.559 472.003 209.01 477.063 213.008 481.675C213.409 482.254 213.977 482.697 214.636 482.945C215.295 483.194 216.014 483.235 216.697 483.065C217.38 482.895 217.995 482.521 218.461 481.992C218.926 481.464 219.22 480.806 219.302 480.107C219.811 475.598 219.7 471.04 218.973 466.561C220.422 469.549 221.837 472.487 223.521 475.388C223.901 476.001 224.466 476.477 225.135 476.749C225.803 477.02 226.54 477.072 227.24 476.898C227.94 476.723 228.566 476.331 229.029 475.778C229.492 475.225 229.767 474.539 229.815 473.82L229.966 472.097C230.862 475.462 236.318 476.012 236.546 472.027C236.843 454.935 234.401 437.905 229.313 421.584C221.915 393.787 220.96 368.96 232.74 342.073C252.968 295.507 303.437 274.708 349.705 265.241C362.012 262.664 374.516 261.132 386.981 259.11C386.68 259.499 386.487 259.961 386.422 260.449C385.035 276.122 393.117 290.345 393.681 305.424C387.338 295.461 381.665 285.087 376.698 274.371C374.909 271.1 370.481 273.678 370.564 276.714C370.893 291.88 377.535 305.612 380.254 320.179C368.278 307.803 364.747 288.267 354.795 274.215C354.336 273.728 353.745 273.387 353.094 273.234C352.443 273.081 351.762 273.123 351.135 273.355C350.508 273.586 349.963 273.997 349.567 274.536C349.172 275.075 348.944 275.719 348.912 276.386C352.059 296.331 363.335 314.267 367.291 334.102C355.484 323.377 351.414 305.534 341.174 293.004C340.74 292.393 340.116 291.943 339.399 291.722C338.683 291.502 337.913 291.524 337.211 291.785C336.508 292.046 335.911 292.532 335.512 293.167C335.114 293.802 334.936 294.551 335.006 295.297C337.554 312.852 346.963 328.158 351.158 345.106C341.72 333.428 337.737 317.44 326.972 306.299C324.363 303.661 320.369 307.415 321.494 310.036C327.369 329.446 339.504 347.237 342.518 367.42C333.579 356.58 329.345 342.384 321.66 330.468C321.218 329.868 320.591 329.43 319.876 329.22C319.162 329.01 318.398 329.041 317.702 329.306C317.006 329.572 316.416 330.059 316.023 330.692C315.63 331.325 315.455 332.069 315.526 332.811C318.538 351.154 327.858 367.626 331.996 385.569C323.954 375.074 319.983 361.803 312.124 351.037C310.548 348.725 306.184 349.345 305.796 352.555C304.716 368.461 312.429 381.389 317.707 395.389C315.227 392.293 312.933 389.146 310.67 385.829C310.16 385.215 309.453 384.797 308.67 384.644C307.887 384.491 307.075 384.613 306.371 384.989C305.667 385.366 305.115 385.973 304.807 386.709C304.499 387.445 304.454 388.265 304.68 389.03C309.295 401.975 313.098 415.195 316.067 428.613C314.911 426.571 313.999 424.401 313.35 422.146C313.027 421.301 312.383 420.619 311.558 420.25C310.733 419.88 309.795 419.854 308.95 420.176C308.105 420.498 307.423 421.143 307.054 421.968C306.685 422.793 306.658 423.731 306.98 424.576C308.777 431.694 313.041 437.945 319.012 442.216C314.593 450.312 309.979 457.582 305.059 464.62ZM483.588 259.64C481.468 272.942 467.627 285.254 458.49 293.99C438.516 313.505 414.935 328.704 394.072 347.132C378.659 361.152 364.46 376.453 351.63 392.87C341.524 406.159 332.357 420.138 324.197 434.703C322.825 424.82 320.547 415.084 317.393 405.618C319.18 407.59 321.056 409.477 323.021 411.278C323.538 411.652 324.149 411.874 324.785 411.918C325.421 411.961 326.057 411.826 326.62 411.526C327.183 411.227 327.65 410.775 327.969 410.223C328.288 409.671 328.446 409.04 328.424 408.403C325.931 394.492 317.784 382.007 314.2 368.546C319.799 379.455 324.645 390.878 335.076 399.153C335.597 399.504 336.204 399.707 336.832 399.739C337.46 399.772 338.085 399.633 338.64 399.337C339.195 399.042 339.659 398.601 339.983 398.063C340.307 397.524 340.478 396.907 340.479 396.278C339.174 385.767 336.466 375.479 332.427 365.687C335.622 371.103 339.732 375.924 344.575 379.935C345.091 380.309 345.702 380.531 346.338 380.574C346.974 380.618 347.61 380.483 348.173 380.183C348.736 379.884 349.203 379.432 349.522 378.88C349.841 378.328 349.999 377.697 349.977 377.06C349.555 366.717 347.317 356.528 343.365 346.96C346.173 351.342 349.726 355.199 353.863 358.357C354.379 358.731 354.99 358.952 355.627 358.996C356.263 359.04 356.898 358.904 357.461 358.605C358.024 358.305 358.492 357.854 358.811 357.302C359.13 356.749 359.287 356.119 359.266 355.482C357.472 343.379 353.949 331.596 348.805 320.495C353.241 330.674 360.574 339.322 369.89 345.363C370.444 345.646 371.065 345.774 371.685 345.734C372.306 345.695 372.905 345.489 373.419 345.138C373.933 344.788 374.343 344.305 374.606 343.742C374.87 343.178 374.977 342.554 374.916 341.935C374.006 333.561 372.014 325.341 368.988 317.481C372.376 323.12 376.988 327.927 382.484 331.545C383.005 331.896 383.612 332.099 384.24 332.131C384.868 332.163 385.493 332.024 386.048 331.729C386.603 331.434 387.067 330.993 387.391 330.454C387.715 329.916 387.886 329.299 387.886 328.67C386.85 318.65 384.645 308.786 381.315 299.278C384.625 305.909 388.979 311.965 394.211 317.214C394.672 317.59 395.225 317.839 395.812 317.936C396.4 318.033 397.003 317.974 397.561 317.764C398.119 317.555 398.612 317.204 398.992 316.744C399.371 316.285 399.623 315.734 399.724 315.147C402.346 299.883 394.692 286.178 393.102 271.43C401.26 283.392 405.528 297.638 416.871 307.575C417.393 307.926 418 308.128 418.628 308.161C419.256 308.193 419.881 308.054 420.436 307.759C420.991 307.464 421.455 307.023 421.779 306.484C422.103 305.945 422.274 305.329 422.274 304.7C420.94 293.459 415.853 283.085 414.083 272.069C420.938 282.12 425.523 292.837 435.573 300.121C436.094 300.472 436.702 300.675 437.329 300.707C437.957 300.74 438.582 300.601 439.137 300.305C439.692 300.01 440.156 299.569 440.48 299.031C440.804 298.492 440.975 297.875 440.976 297.246C440.492 290.674 439.424 284.157 437.783 277.774C441.036 282.303 444.75 286.482 448.866 290.245C449.329 290.635 449.889 290.894 450.486 290.996C451.083 291.099 451.696 291.04 452.263 290.825C452.83 290.611 453.329 290.25 453.71 289.779C454.091 289.308 454.339 288.743 454.429 288.144C454.733 282.791 454.546 277.422 453.871 272.103C456.229 274.913 458.572 277.807 461.181 280.446C461.659 280.889 462.252 281.188 462.892 281.309C463.532 281.431 464.194 281.369 464.8 281.132C465.407 280.895 465.935 280.492 466.323 279.969C466.712 279.445 466.944 278.823 466.995 278.174C467.656 274.024 467.995 269.828 468.01 265.626L471.163 267.01C474.666 269.555 479.031 264.294 475.528 261.75C472.661 259.19 469.024 257.655 465.189 257.388C464.304 257.223 463.389 257.415 462.645 257.922C461.901 258.43 461.388 259.211 461.219 260.096C460.966 263.288 460.898 266.427 460.745 269.55C457.891 266.121 455.087 262.658 451.881 259.469C449.562 257.148 446.265 259.765 446.478 262.344C446.605 267.928 447.49 273.436 447.802 278.967C443.053 273.517 439.141 267.349 433.889 262.241C433.368 261.89 432.761 261.688 432.133 261.655C431.505 261.623 430.88 261.762 430.325 262.057C429.77 262.353 429.306 262.793 428.982 263.332C428.658 263.871 428.487 264.488 428.487 265.116C429.952 272.879 432.108 280.467 433.405 288.198C425.599 279.236 421.155 267.539 412.477 259.026C412.007 258.654 411.449 258.411 410.858 258.319C410.266 258.227 409.661 258.29 409.1 258.501C408.54 258.713 408.045 259.066 407.661 259.526C407.278 259.986 407.021 260.537 406.914 261.126C407.144 271.892 409.202 282.54 413.001 292.615C405.528 281.659 401.137 268.527 391.651 258.723C395.188 258.078 398.674 257.467 402.142 256.722C402.846 256.242 403.977 256.281 404.902 256.018C405.217 256.452 405.634 256.803 406.116 257.039C406.598 257.275 407.131 257.389 407.667 257.372C414.484 257.199 421.075 254.892 426.512 250.778C433.716 249.031 440.954 247.334 448.28 246.093C460.053 244.028 486.676 240.523 483.588 259.64Z" fill="#FCFCFC"/>
<path d="M173.615 389.911C173.803 380.578 170.104 369.109 159.56 367.685C149.016 366.261 141.375 376.112 138.649 384.746C138.519 385.253 138.479 385.779 138.53 386.3C138.274 386.718 138.11 387.186 138.048 387.672C137.986 388.159 138.029 388.653 138.172 389.122C139.137 393.712 141.567 397.866 145.096 400.957C148.626 404.047 153.063 405.909 157.741 406.261C159.868 406.269 161.976 405.849 163.937 405.024C165.898 404.2 167.673 402.988 169.155 401.462C170.637 399.935 171.796 398.125 172.562 396.141C173.328 394.156 173.686 392.037 173.615 389.911ZM157.061 399.434C154.071 398.916 151.306 397.507 149.128 395.393C146.95 393.279 145.461 390.557 144.854 387.583C145.46 384.395 146.983 381.454 149.236 379.119C151.489 376.784 154.375 375.158 157.539 374.439C165.09 373.634 166.686 384.18 166.877 389.425C167.022 390.758 166.869 392.107 166.43 393.374C165.991 394.641 165.276 395.795 164.337 396.752C163.398 397.71 162.259 398.447 161 398.91C159.742 399.374 158.397 399.553 157.061 399.434Z" fill="#FCFCFC"/>
<path d="M287.233 369.927C287.009 367.697 286.321 365.539 285.215 363.589C284.109 361.64 282.609 359.943 280.81 358.606C279.011 357.269 276.953 356.321 274.768 355.825C272.582 355.328 270.317 355.292 268.117 355.72C265.801 356.053 263.574 356.844 261.566 358.047C259.558 359.25 257.81 360.84 256.423 362.725C255.036 364.61 254.038 366.752 253.487 369.027C252.935 371.301 252.842 373.663 253.213 375.974C253.399 376.771 253.875 377.47 254.55 377.934C255.079 379.921 256.002 381.781 257.265 383.403C258.527 385.026 260.103 386.378 261.899 387.379C263.695 388.38 265.674 389.01 267.718 389.231C269.762 389.452 271.83 389.259 273.798 388.664C277.773 387.431 281.236 384.933 283.661 381.551C286.086 378.169 287.341 374.088 287.233 369.927ZM272.058 382.119C266.21 384.34 262.032 380.268 260.579 375.221C260.441 374.878 260.23 374.57 259.961 374.316C259.702 371.643 260.475 368.971 262.121 366.849C263.768 364.726 266.163 363.314 268.817 362.9C270.199 362.522 271.65 362.47 273.056 362.748C274.461 363.027 275.783 363.628 276.916 364.504C278.049 365.381 278.963 366.509 279.586 367.799C280.209 369.089 280.524 370.506 280.505 371.939C280.229 374.27 279.285 376.471 277.786 378.277C276.287 380.083 274.298 381.417 272.058 382.119Z" fill="#FCFCFC"/>
<path d="M279.805 431.697C279.051 430.4 278.041 429.272 276.835 428.38C275.629 427.487 274.254 426.851 272.794 426.51C271.333 426.168 269.819 426.128 268.342 426.393C266.866 426.658 265.46 427.221 264.209 428.049C261.643 429.924 259.658 432.485 258.48 435.437C257.303 438.389 256.981 441.613 257.552 444.74C257.657 445.531 258.047 446.257 258.649 446.782C259.251 447.306 260.023 447.594 260.822 447.59C260.997 448.347 261.449 449.011 262.09 449.45C263.187 450.545 264.493 451.409 265.93 451.992C267.366 452.575 268.905 452.864 270.455 452.843C272.005 452.822 273.536 452.491 274.956 451.869C276.376 451.247 277.658 450.348 278.725 449.223C280.848 446.848 282.11 443.827 282.306 440.647C282.502 437.468 281.621 434.315 279.805 431.697ZM266.304 444.293C265.767 443.807 265.063 443.548 264.339 443.571C264.047 441.968 264.121 440.32 264.554 438.75C264.987 437.179 265.769 435.727 266.842 434.5C267.259 433.965 267.799 433.539 268.416 433.259C269.033 432.978 269.709 432.851 270.386 432.889C271.063 432.926 271.721 433.127 272.304 433.475C272.886 433.822 273.376 434.305 273.73 434.883C278.077 440.608 272.591 449.946 266.003 444.498L266.304 444.293Z" fill="#FCFCFC"/>
<path d="M321.154 208.051C320.954 204.505 319.561 201.131 317.202 198.476C314.843 195.821 311.656 194.041 308.158 193.424C306.34 193.27 304.508 193.485 302.774 194.056C301.04 194.626 299.439 195.541 298.067 196.745C296.695 197.949 295.58 199.418 294.789 201.063C293.998 202.708 293.547 204.496 293.463 206.319C293.412 206.807 293.464 207.301 293.614 207.768C293.764 208.235 294.011 208.665 294.337 209.032C294.663 209.398 295.062 209.693 295.509 209.896C295.955 210.1 296.439 210.208 296.93 210.214C297.889 213.065 299.753 215.524 302.238 217.218C304.723 218.913 307.693 219.75 310.697 219.602C313.566 219.327 316.23 217.99 318.164 215.854C320.099 213.717 321.165 210.934 321.154 208.051ZM310.017 212.775C308.371 212.79 306.772 212.233 305.49 211.201C304.209 210.168 303.325 208.724 302.988 207.113C302.84 206.585 302.539 206.113 302.125 205.754C301.71 205.395 301.199 205.166 300.655 205.096C300.934 203.641 301.734 202.338 302.904 201.431C304.075 200.524 305.537 200.075 307.015 200.169C309.007 200.5 310.826 201.5 312.173 203.004C313.52 204.509 314.315 206.427 314.426 208.443C314.355 209.582 313.866 210.654 313.052 211.454C312.238 212.254 311.157 212.725 310.017 212.775Z" fill="#FCFCFC"/>
</svg>
