<svg width="494" height="442" viewBox="0 0 494 442" fill="none" xmlns="http://www.w3.org/2000/svg">
<path d="M470.979 297.192C455.791 290.269 435.41 296.414 419.278 293.38C395.835 288.562 374.525 274.332 354.805 260.906C355.949 260.354 357.016 259.656 357.982 258.83C365.959 252.038 362.088 242.611 354.722 237.211C347.356 231.811 335.856 233.914 328.185 230.955C318.012 226.839 312.761 209.88 307.595 201.201C295.052 180.551 280.387 165.319 276.201 140.4C274.409 123.904 269.232 107.955 260.994 93.5578C250.435 76.7242 230.731 66.2445 213.288 58.9861C195.392 52.0017 175.892 50.2563 157.055 53.9528C135.498 56.577 113.694 56.4596 92.1604 53.6037C74.2844 51.9997 61.2642 59.8592 50.1129 73.2102C37.0961 88.808 17.4867 104.54 12.5506 125C4.55809 158.081 36.1034 195.52 55.4305 218.524C67.5199 233.521 82.2313 246.184 98.8437 255.893C115.016 264.879 135.357 262.119 152.695 259.75C176.307 255.576 200.636 258.908 222.281 269.28C243.928 279.651 262.584 292.93 286.498 298.844C298.212 301.807 314.11 304.508 324.175 296.541C325.852 295.144 327.121 293.319 327.848 291.258C349.3 303.993 373.671 313.339 393.387 328.362C410.189 341.122 406.481 362.01 418.703 376.874C427.638 387.81 437.936 386.257 449.149 379.407C460.362 372.558 457.208 359.767 454.512 348.381C449.688 328.164 477.482 336.257 483.318 322.172C487.754 311.799 480.245 301.384 470.979 297.192ZM188.423 250.616C188.103 250.886 187.84 251.218 187.652 251.592C183.563 251.222 179.455 251.103 175.352 251.236C181.927 249.892 188.41 248.135 194.765 245.975C192.561 247.394 190.443 248.944 188.423 250.616ZM324.19 257.661C323.756 257.648 323.324 257.725 322.921 257.888C322.518 258.051 322.153 258.295 321.849 258.606C321.545 258.918 321.309 259.289 321.155 259.696C321.001 260.104 320.933 260.539 320.955 260.974C321.164 267.637 321.98 274.27 322.249 280.924C322.933 299.677 299.832 294.684 288.425 292.535C267.429 288.514 249.244 276.332 230.75 266.161C222.044 261.244 212.806 257.34 203.218 254.527C214.572 251.78 225.667 248.053 236.378 243.386C231.343 246.896 227.238 251.583 224.415 257.043C224.141 257.573 224.007 258.165 224.028 258.761C224.049 259.358 224.223 259.94 224.534 260.449C224.845 260.959 225.282 261.379 225.803 261.669C226.323 261.959 226.91 262.109 227.505 262.105C247.574 259.57 265.207 248.19 284.434 243.326C272.702 249.578 261.241 256.404 257.386 269.822C257.26 270.331 257.254 270.862 257.367 271.374C257.481 271.886 257.71 272.365 258.039 272.774C258.367 273.182 258.785 273.509 259.26 273.729C259.735 273.948 260.254 274.055 260.777 274.04C268.22 273.846 275.545 272.135 282.307 269.012C280.696 271.07 279.369 273.335 278.363 275.749C278.055 276.347 277.928 277.022 277.997 277.691C278.066 278.361 278.328 278.996 278.751 279.519C279.175 280.042 279.741 280.429 280.38 280.635C281.019 280.84 281.704 280.854 282.351 280.675C289.538 278.842 296.541 276.346 303.27 273.222C301.747 275.646 300.049 277.955 298.188 280.13C295.528 283.602 300.465 288.324 303.065 284.861C306.955 280.081 310.404 274.956 313.37 269.549C313.677 268.951 313.804 268.276 313.735 267.607C313.666 266.937 313.404 266.302 312.981 265.779C312.558 265.257 311.992 264.869 311.353 264.663C310.713 264.458 310.029 264.444 309.382 264.623C302.369 266.39 295.539 268.818 288.984 271.875C292.807 267.183 297.734 263.308 301.893 258.812C302.619 258.246 303.092 257.414 303.206 256.498C303.321 255.582 303.068 254.658 302.504 253.929C301.939 253.2 301.109 252.725 300.196 252.609C299.283 252.493 298.361 252.746 297.635 253.312C288.026 259.605 277.352 264.087 266.136 266.537C273.186 253.19 291.58 248.083 303.325 240.293C303.957 239.9 304.442 239.309 304.706 238.612C304.97 237.915 304.998 237.15 304.786 236.435C304.573 235.72 304.133 235.094 303.532 234.655C302.93 234.215 302.202 233.986 301.458 234.002C277.378 233.887 257.527 248.427 234.809 253.695C244.436 242.416 261.795 237.342 274.191 230.621C277.874 228.653 274.949 223.873 271.426 224.466C248.877 228.419 228.872 240.709 207.023 246.461C222.92 238.597 241.08 235.183 256.242 225.281C256.947 224.85 257.47 224.175 257.714 223.384C257.957 222.592 257.904 221.739 257.565 220.983C257.226 220.227 256.623 219.622 255.87 219.28C255.117 218.938 254.266 218.883 253.477 219.126C223.018 225.439 195.105 242.546 164.142 245.924C184.303 230.601 211.135 225.818 232.543 212.271C233.176 211.874 233.66 211.279 233.92 210.577C234.18 209.876 234.202 209.107 233.983 208.391C233.763 207.676 233.314 207.052 232.706 206.618C232.097 206.184 231.363 205.963 230.617 205.99C213.713 205.959 198.278 212.832 183.275 220.13C169.475 226.879 153.161 239.289 137.16 242.807C158.225 224.951 187.421 219.198 211.231 206.149C214.914 204.181 211.929 199.411 208.466 199.994C178.613 205.048 151.144 219.816 121.144 222.681C141.232 208.904 170.9 211.555 186.802 190.731C187.241 190.233 187.527 189.617 187.626 188.959C187.725 188.302 187.632 187.629 187.36 187.022C187.087 186.415 186.647 185.899 186.09 185.537C185.533 185.175 184.884 184.981 184.22 184.979C170.923 185.632 157.758 187.927 145.023 191.81C131.465 195.697 115.469 204.128 100.667 204.64C113.44 194.73 129.344 189.752 142.08 179.602C144.649 177.556 142.094 174.011 139.498 173.849C121.44 173.071 105.771 183.664 88.4289 185.603C100.668 175.405 119.483 173.489 131.738 162.183C132.177 161.684 132.463 161.069 132.562 160.411C132.661 159.753 132.568 159.08 132.296 158.473C132.024 157.866 131.583 157.35 131.026 156.988C130.469 156.626 129.82 156.432 129.156 156.43C107.198 158.205 86.4625 171.343 64.3957 170.371C72.6013 162.255 84.4014 158.081 92.373 149.631C92.8404 149.142 93.1513 148.524 93.2658 147.856C93.3803 147.188 93.2932 146.501 93.0158 145.883C92.7383 145.265 92.2833 144.744 91.7088 144.387C91.1342 144.029 90.4664 143.853 89.7912 143.878C78.3402 144.684 66.9536 149.165 55.5178 147.634L57.6033 144.003C60.1349 140.488 54.131 137.217 51.5903 140.671C49.5087 143.175 47.9668 146.084 47.0618 149.216C46.8682 150.093 47.0227 151.012 47.4924 151.778C47.9622 152.544 48.7103 153.097 49.5787 153.32C59.2325 155.256 69.2028 154.888 78.6848 152.248C70.2041 158.133 60.8476 162.676 54.7026 171.464C54.4637 171.927 54.3321 172.438 54.3178 172.959C54.3034 173.48 54.4066 173.998 54.6196 174.474C54.8326 174.95 55.15 175.371 55.548 175.707C55.9461 176.042 56.4144 176.284 56.9182 176.412C76.5027 179.601 94.2796 171.209 112.761 166.272C100.179 172.162 86.378 175.655 77.5963 187.666C75.8596 189.955 78.3387 192.591 80.6771 192.668C96.9985 193.708 111.323 185.161 126.813 181.904C114.209 189.271 100.362 194.491 89.8569 205.226C89.3817 205.652 89.0361 206.203 88.8593 206.818C88.6826 207.432 88.682 208.084 88.8578 208.698C89.0335 209.313 89.3786 209.866 89.8531 210.293C90.3277 210.72 90.9126 211.005 91.5408 211.114C104.103 213.212 115.038 208.984 126.617 204.966C142.388 198.974 158.781 194.772 175.487 192.437C156.584 207.572 126.437 204.993 109.434 224.201C108.967 224.686 108.655 225.299 108.538 225.963C108.42 226.626 108.501 227.31 108.771 227.927C109.041 228.545 109.488 229.068 110.055 229.43C110.622 229.793 111.284 229.978 111.956 229.963C129.175 229.287 146.186 225.956 162.389 220.086C148.423 225.573 135.789 233.991 125.333 244.774C124.894 245.273 124.608 245.888 124.509 246.546C124.41 247.204 124.503 247.877 124.775 248.484C125.048 249.091 125.489 249.606 126.045 249.969C126.602 250.331 127.251 250.525 127.915 250.527C140.918 251.085 152.781 244.075 163.956 237.784C159.631 240.633 155.591 243.896 151.893 247.526C151.513 247.917 151.235 248.396 151.083 248.92C150.931 249.445 150.909 249.999 151.02 250.534C151.131 251.068 151.371 251.568 151.719 251.989C152.067 252.409 152.512 252.738 153.016 252.945C146.431 253.938 139.86 254.622 133.142 255.144C90.7359 258.16 60.0424 217.031 38.6747 185.366C27.7654 170.561 20.9172 153.147 18.8141 134.865C17.6893 120.908 26.6284 110.347 35.8774 101.03C45.1264 91.7122 51.4747 82.6477 58.9604 73.4117C74.5304 54.8493 95.3585 61.413 115.678 63.3856C133.701 65.1516 150.37 61.5941 168.205 59.2733C210.935 53.936 255.771 82.0616 266.202 124.035C269.761 138.3 269.699 153.726 276.659 166.987C285.289 183.62 298.273 197.447 307.135 213.984C312.362 223.883 317.979 236.364 330.255 238.996C333.265 239.772 336.334 240.296 339.43 240.561L343.733 241.079C351.499 241.014 352.302 245.929 346.251 255.747C339.841 256.345 333.386 256.269 326.99 255.519C326.302 255.425 325.604 255.598 325.039 256.003C324.474 256.407 324.085 257.013 323.951 257.697L324.19 257.661ZM180.855 228.848C190.724 223.387 201.145 218.995 211.943 215.746C201.431 220.341 190.75 224.224 180.615 228.884L180.855 228.848ZM469.385 325.194C462.042 326.854 451.813 327.23 448.775 335.918C444.801 347.327 455.301 362.142 448.068 371.832C435.582 388.516 422.296 372.278 417.985 360.337C415.558 353.579 414.277 346.709 411.38 340.082C406.336 328.559 395.554 321.217 385.203 315.101C366.908 304.224 347.494 295.666 329.274 284.471C329.246 277.072 328.705 269.684 327.654 262.359C333.786 263.041 339.959 263.259 346.122 263.014C346.336 263.307 346.603 263.558 346.907 263.755C373.447 281.803 400.977 299.517 433.66 302.267C440.607 302.344 447.553 302.055 454.47 301.401C457.976 301.325 461.48 301.663 464.908 302.407C474.976 304.206 480.564 322.587 469.385 325.194Z" fill="#FCFCFC"/>
</svg>
