<svg width="64" height="19" viewBox="0 0 64 19" fill="none" xmlns="http://www.w3.org/2000/svg">
<path d="M0.44 18V1.2H2.456V15.984H9.98V18H0.44ZM19.115 18.312C17.979 18.312 16.911 18.088 15.911 17.64C14.911 17.184 14.031 16.556 13.271 15.756C12.511 14.956 11.915 14.032 11.483 12.984C11.051 11.928 10.835 10.8 10.835 9.6C10.835 8.4 11.051 7.276 11.483 6.228C11.915 5.172 12.511 4.244 13.271 3.444C14.031 2.644 14.911 2.02 15.911 1.572C16.911 1.116 17.979 0.887999 19.115 0.887999C20.259 0.887999 21.331 1.116 22.331 1.572C23.331 2.02 24.211 2.644 24.971 3.444C25.731 4.244 26.323 5.172 26.747 6.228C27.179 7.276 27.395 8.4 27.395 9.6C27.395 10.8 27.179 11.928 26.747 12.984C26.323 14.032 25.731 14.956 24.971 15.756C24.211 16.556 23.331 17.184 22.331 17.64C21.331 18.088 20.259 18.312 19.115 18.312ZM19.115 16.296C19.987 16.296 20.799 16.12 21.551 15.768C22.311 15.416 22.975 14.932 23.543 14.316C24.119 13.692 24.567 12.98 24.887 12.18C25.215 11.372 25.379 10.512 25.379 9.6C25.379 8.688 25.215 7.828 24.887 7.02C24.559 6.204 24.107 5.492 23.531 4.884C22.963 4.268 22.299 3.784 21.539 3.432C20.787 3.08 19.979 2.904 19.115 2.904C18.243 2.904 17.427 3.08 16.667 3.432C15.915 3.784 15.251 4.272 14.675 4.896C14.107 5.512 13.659 6.224 13.331 7.032C13.011 7.832 12.851 8.688 12.851 9.6C12.851 10.52 13.015 11.384 13.343 12.192C13.671 13 14.119 13.712 14.687 14.328C15.263 14.944 15.927 15.428 16.679 15.78C17.439 16.124 18.251 16.296 19.115 16.296ZM37.2146 18.312C36.0546 18.312 34.9706 18.088 33.9626 17.64C32.9626 17.184 32.0866 16.556 31.3346 15.756C30.5906 14.948 30.0066 14.02 29.5826 12.972C29.1586 11.916 28.9466 10.788 28.9466 9.588C28.9466 8.348 29.1666 7.2 29.6066 6.144C30.0546 5.088 30.6626 4.168 31.4306 3.384C32.2066 2.6 33.0906 1.992 34.0826 1.56C35.0826 1.12 36.1386 0.899999 37.2506 0.899999C38.5146 0.899999 39.7186 1.196 40.8626 1.788C42.0066 2.38 42.9906 3.236 43.8146 4.356L42.0146 5.328C41.3986 4.544 40.6666 3.944 39.8186 3.528C38.9786 3.112 38.1146 2.904 37.2266 2.904C36.3786 2.904 35.5746 3.076 34.8146 3.42C34.0626 3.764 33.3946 4.244 32.8106 4.86C32.2346 5.476 31.7826 6.188 31.4546 6.996C31.1266 7.804 30.9626 8.68 30.9626 9.624C30.9626 10.544 31.1266 11.408 31.4546 12.216C31.7826 13.024 32.2306 13.736 32.7986 14.352C33.3746 14.96 34.0426 15.436 34.8026 15.78C35.5626 16.124 36.3746 16.296 37.2386 16.296C37.9266 16.296 38.5786 16.18 39.1946 15.948C39.8186 15.716 40.3906 15.388 40.9106 14.964C41.4386 14.54 41.8866 14.04 42.2546 13.464C42.6306 12.888 42.9146 12.256 43.1066 11.568H38.9666V9.768H45.4586C45.4506 10.944 45.2266 12.048 44.7866 13.08C44.3546 14.112 43.7586 15.02 42.9986 15.804C42.2466 16.588 41.3746 17.204 40.3826 17.652C39.3986 18.092 38.3426 18.312 37.2146 18.312ZM55.3025 18.312C54.1665 18.312 53.0985 18.088 52.0985 17.64C51.0985 17.184 50.2185 16.556 49.4585 15.756C48.6985 14.956 48.1025 14.032 47.6705 12.984C47.2385 11.928 47.0225 10.8 47.0225 9.6C47.0225 8.4 47.2385 7.276 47.6705 6.228C48.1025 5.172 48.6985 4.244 49.4585 3.444C50.2185 2.644 51.0985 2.02 52.0985 1.572C53.0985 1.116 54.1665 0.887999 55.3025 0.887999C56.4465 0.887999 57.5185 1.116 58.5185 1.572C59.5185 2.02 60.3985 2.644 61.1585 3.444C61.9185 4.244 62.5105 5.172 62.9345 6.228C63.3665 7.276 63.5825 8.4 63.5825 9.6C63.5825 10.8 63.3665 11.928 62.9345 12.984C62.5105 14.032 61.9185 14.956 61.1585 15.756C60.3985 16.556 59.5185 17.184 58.5185 17.64C57.5185 18.088 56.4465 18.312 55.3025 18.312ZM55.3025 16.296C56.1745 16.296 56.9865 16.12 57.7385 15.768C58.4985 15.416 59.1625 14.932 59.7305 14.316C60.3065 13.692 60.7545 12.98 61.0745 12.18C61.4025 11.372 61.5665 10.512 61.5665 9.6C61.5665 8.688 61.4025 7.828 61.0745 7.02C60.7465 6.204 60.2945 5.492 59.7185 4.884C59.1505 4.268 58.4865 3.784 57.7265 3.432C56.9745 3.08 56.1665 2.904 55.3025 2.904C54.4305 2.904 53.6145 3.08 52.8545 3.432C52.1025 3.784 51.4385 4.272 50.8625 4.896C50.2945 5.512 49.8465 6.224 49.5185 7.032C49.1985 7.832 49.0385 8.688 49.0385 9.6C49.0385 10.52 49.2025 11.384 49.5305 12.192C49.8585 13 50.3065 13.712 50.8745 14.328C51.4505 14.944 52.1145 15.428 52.8665 15.78C53.6265 16.124 54.4385 16.296 55.3025 16.296Z" fill="#FFCC56"/>
</svg>
