<svg width="13" height="13" viewBox="0 0 13 13" fill="none" xmlns="http://www.w3.org/2000/svg">
<g clip-path="url(#clip0)">
<path d="M9.88329 8.5997C9.45858 8.1804 8.92836 8.1804 8.50635 8.5997C8.18444 8.91892 7.86252 9.23813 7.54601 9.56275C7.45945 9.65202 7.38641 9.67095 7.28091 9.61144C7.07261 9.49782 6.85078 9.40585 6.6506 9.28141C5.71731 8.69439 4.93552 7.93964 4.24299 7.09022C3.89944 6.66821 3.59375 6.21644 3.38004 5.70787C3.33676 5.60507 3.34487 5.53744 3.42873 5.45358C3.75065 5.14249 4.06445 4.82328 4.38096 4.50407C4.8219 4.06042 4.8219 3.54102 4.37825 3.09467C4.12667 2.84038 3.87509 2.59151 3.62351 2.33722C3.36381 2.07752 3.10682 1.81512 2.84442 1.55813C2.4197 1.14424 1.88949 1.14424 1.46748 1.56083C1.14286 1.88004 0.831765 2.20737 0.501733 2.52117C0.196048 2.81063 0.0418527 3.165 0.0093906 3.5789C-0.0420078 4.25249 0.123008 4.8882 0.355653 5.50769C0.831765 6.78994 1.55675 7.92882 2.43593 8.97302C3.62351 10.3851 5.04102 11.5024 6.69929 12.3085C7.44592 12.671 8.2196 12.9496 9.06091 12.9956C9.63982 13.0281 10.143 12.882 10.5461 12.4302C10.822 12.1218 11.1331 11.8405 11.4252 11.5456C11.8581 11.1074 11.8608 10.5772 11.4306 10.1444C10.9167 9.62767 10.4 9.11369 9.88329 8.5997Z" fill="#242629"/>
<path d="M9.3668 6.44369L10.365 6.27326C10.2081 5.3562 9.77528 4.52572 9.11792 3.86565C8.42269 3.17042 7.54351 2.73218 6.57506 2.59692L6.43439 3.60054C7.18372 3.70605 7.86543 4.04419 8.40376 4.58252C8.91233 5.0911 9.24507 5.73493 9.3668 6.44369Z" fill="#242629"/>
<path d="M10.9278 2.10463C9.77537 0.952223 8.31727 0.22453 6.70769 0L6.56702 1.00362C7.95748 1.19839 9.2181 1.8287 10.2136 2.8215C11.1577 3.76561 11.7772 4.95859 12.0017 6.2706L13 6.10018C12.7375 4.57987 12.0207 3.20023 10.9278 2.10463Z" fill="#242629"/>
</g>
<defs>
<clipPath id="clip0">
<rect width="13" height="13" fill="white"/>
</clipPath>
</defs>
</svg>
