<svg width="63" height="61" viewBox="0 0 63 61" fill="none" xmlns="http://www.w3.org/2000/svg">
<path fill-rule="evenodd" clip-rule="evenodd" d="M55.125 42.8906C55.125 40.7852 53.362 39.0781 51.1875 39.0781C42.2887 39.0781 20.7113 39.0781 11.8125 39.0781C9.63802 39.0781 7.875 40.7852 7.875 42.8906V45.75C7.875 47.7725 8.70483 49.7121 10.1814 51.1418C11.658 52.5715 13.6612 53.375 15.75 53.375H47.25C49.3388 53.375 51.342 52.5715 52.8186 51.1418C54.2952 49.7121 55.125 47.7725 55.125 45.75C55.125 44.7587 55.125 43.7808 55.125 42.8906Z" fill="#FFCC6C"/>
<path fill-rule="evenodd" clip-rule="evenodd" d="M55.125 34.3125C55.125 33.0487 54.6062 31.8363 53.6839 30.9423C52.7605 30.0492 51.5084 29.5469 50.2031 29.5469H12.7969C11.4916 29.5469 10.2395 30.0492 9.31612 30.9423C8.39377 31.8363 7.875 33.0487 7.875 34.3125C7.875 35.5763 8.39377 36.7887 9.31612 37.6827C10.2395 38.5758 11.4916 39.0781 12.7969 39.0781H50.2031C51.5084 39.0781 52.7605 38.5758 53.6839 37.6827C54.6062 36.7887 55.125 35.5763 55.125 34.3125Z" fill="#F48132"/>
<path fill-rule="evenodd" clip-rule="evenodd" d="M55.125 25.3417C55.125 15.5569 46.933 7.625 36.8274 7.625C33.3309 7.625 29.6691 7.625 26.1726 7.625C16.067 7.625 7.875 15.5569 7.875 25.3417V25.3436C7.875 27.6654 9.81816 29.5469 12.2161 29.5469H50.7839C53.1818 29.5469 55.125 27.6654 55.125 25.3436C55.125 25.3426 55.125 25.3426 55.125 25.3417Z" fill="#FFCC6C"/>
<path fill-rule="evenodd" clip-rule="evenodd" d="M19.6875 29.5469C23.1161 29.5469 28.9328 33.2469 32.1477 35.4925C33.5239 36.4551 35.3824 36.4551 36.7585 35.4915C39.9735 33.2469 45.7902 29.5469 49.2188 29.5469H19.6875Z" fill="#E94E15"/>
<path fill-rule="evenodd" clip-rule="evenodd" d="M11.9109 39.0781H21.5578C21.6228 39.386 21.6562 39.7053 21.6562 40.0312C21.6562 42.6619 19.4513 44.7969 16.7344 44.7969C14.0175 44.7969 11.8125 42.6619 11.8125 40.0312C11.8125 39.7053 11.846 39.386 11.9109 39.0781Z" fill="#82B011"/>
<path fill-rule="evenodd" clip-rule="evenodd" d="M21.7547 39.0781H31.4016C31.4665 39.386 31.5 39.7053 31.5 40.0312C31.5 42.6619 29.295 44.7969 26.5781 44.7969C23.8612 44.7969 21.6562 42.6619 21.6562 40.0312C21.6562 39.7053 21.6897 39.386 21.7547 39.0781Z" fill="#82B011"/>
<path fill-rule="evenodd" clip-rule="evenodd" d="M31.5984 39.0781H41.2453C41.3103 39.386 41.3438 39.7053 41.3438 40.0312C41.3438 42.6619 39.1388 44.7969 36.4219 44.7969C33.705 44.7969 31.5 42.6619 31.5 40.0312C31.5 39.7053 31.5335 39.386 31.5984 39.0781Z" fill="#82B011"/>
<path fill-rule="evenodd" clip-rule="evenodd" d="M41.4422 39.0781H51.0891C51.154 39.386 51.1875 39.7053 51.1875 40.0312C51.1875 42.6619 48.9825 44.7969 46.2656 44.7969C43.5487 44.7969 41.3438 42.6619 41.3438 40.0312C41.3438 39.7053 41.3772 39.386 41.4422 39.0781Z" fill="#82B011"/>
<path fill-rule="evenodd" clip-rule="evenodd" d="M14.7656 19.5391H15.75C16.2934 19.5391 16.7344 19.1121 16.7344 18.5859C16.7344 18.0598 16.2934 17.6328 15.75 17.6328H14.7656C14.2223 17.6328 13.7812 18.0598 13.7812 18.5859C13.7812 19.1121 14.2223 19.5391 14.7656 19.5391Z" fill="#E94E15"/>
<path fill-rule="evenodd" clip-rule="evenodd" d="M21.6562 16.6797H22.6406C23.184 16.6797 23.625 16.2527 23.625 15.7266C23.625 15.2004 23.184 14.7734 22.6406 14.7734H21.6562C21.1129 14.7734 20.6719 15.2004 20.6719 15.7266C20.6719 16.2527 21.1129 16.6797 21.6562 16.6797Z" fill="#E94E15"/>
<path fill-rule="evenodd" clip-rule="evenodd" d="M28.5469 12.8672H29.5312C30.0746 12.8672 30.5156 12.4402 30.5156 11.9141C30.5156 11.3879 30.0746 10.9609 29.5312 10.9609H28.5469C28.0035 10.9609 27.5625 11.3879 27.5625 11.9141C27.5625 12.4402 28.0035 12.8672 28.5469 12.8672Z" fill="#E94E15"/>
<path fill-rule="evenodd" clip-rule="evenodd" d="M32.4844 18.5859H33.4688C34.0121 18.5859 34.4531 18.1589 34.4531 17.6328C34.4531 17.1067 34.0121 16.6797 33.4688 16.6797H32.4844C31.941 16.6797 31.5 17.1067 31.5 17.6328C31.5 18.1589 31.941 18.5859 32.4844 18.5859Z" fill="#E94E15"/>
<path fill-rule="evenodd" clip-rule="evenodd" d="M40.3594 15.7266H41.3438C41.8871 15.7266 42.3281 15.2996 42.3281 14.7734C42.3281 14.2473 41.8871 13.8203 41.3438 13.8203H40.3594C39.816 13.8203 39.375 14.2473 39.375 14.7734C39.375 15.2996 39.816 15.7266 40.3594 15.7266Z" fill="#E94E15"/>
<path fill-rule="evenodd" clip-rule="evenodd" d="M47.25 21.4453H48.2344C48.7778 21.4453 49.2188 21.0183 49.2188 20.4922C49.2188 19.9661 48.7778 19.5391 48.2344 19.5391H47.25C46.7066 19.5391 46.2656 19.9661 46.2656 20.4922C46.2656 21.0183 46.7066 21.4453 47.25 21.4453Z" fill="#E94E15"/>
</svg>
