<svg width="63" height="61" viewBox="0 0 63 61" fill="none" xmlns="http://www.w3.org/2000/svg">
<path fill-rule="evenodd" clip-rule="evenodd" d="M13.7812 40.0312C13.7812 40.0312 25.1941 15.4635 29.6966 5.77113C30.0146 5.08679 30.7174 4.6474 31.4921 4.6474C32.2668 4.6474 32.9697 5.08679 33.2876 5.77113C37.7902 15.4635 49.203 40.0312 49.203 40.0312C49.203 40.0312 44.6355 50.5156 31.4921 50.5156C18.3488 50.5156 13.7812 40.0312 13.7812 40.0312Z" fill="#FFCC6C"/>
<path d="M29.7468 31.8706C31.4968 31.8706 32.9155 30.497 32.9155 28.8025C32.9155 27.108 31.4968 25.7344 29.7468 25.7344C27.9968 25.7344 26.5781 27.108 26.5781 28.8025C26.5781 30.497 27.9968 31.8706 29.7468 31.8706Z" fill="#82B011"/>
<path d="M38.6062 40.0312C40.3562 40.0312 41.7749 38.6575 41.7749 36.9631C41.7749 35.2686 40.3562 33.895 38.6062 33.895C36.8562 33.895 35.4375 35.2686 35.4375 36.9631C35.4375 38.6575 36.8562 40.0312 38.6062 40.0312Z" fill="#82B011"/>
<path d="M20.8875 43.0993C22.6375 43.0993 24.0562 41.7257 24.0562 40.0312C24.0562 38.3367 22.6375 36.9631 20.8875 36.9631C19.1374 36.9631 17.7188 38.3367 17.7188 40.0312C17.7188 41.7257 19.1374 43.0993 20.8875 43.0993Z" fill="#82B011"/>
<path d="M32.9155 16.6206C34.6655 16.6206 36.0842 15.247 36.0842 13.5525C36.0842 11.858 34.6655 10.4844 32.9155 10.4844C31.1655 10.4844 29.7468 11.858 29.7468 13.5525C29.7468 15.247 31.1655 16.6206 32.9155 16.6206Z" fill="#82B011"/>
<path fill-rule="evenodd" clip-rule="evenodd" d="M46.2823 41.317C42.6963 45.2048 37.3983 47.6552 31.499 47.6552C25.5927 47.6552 20.2899 45.2 16.7048 41.3055C15.2578 39.7348 12.7673 39.5966 11.1451 40.9977C9.52281 42.3978 9.38008 44.8102 10.8261 46.38C15.8395 51.8242 23.2421 55.2803 31.499 55.2803C39.7471 55.2803 47.1427 51.8309 52.1551 46.3971C53.6031 44.8273 53.4624 42.415 51.8421 41.0139C50.2208 39.6118 47.7294 39.7481 46.2823 41.317Z" fill="#F48132"/>
<path fill-rule="evenodd" clip-rule="evenodd" d="M35.4375 24.7812H36.0842C36.6276 24.7812 37.0686 24.3542 37.0686 23.8281C37.0686 23.302 36.6276 22.875 36.0842 22.875H35.4375C34.8941 22.875 34.4531 23.302 34.4531 23.8281C34.4531 24.3542 34.8941 24.7812 35.4375 24.7812Z" fill="#E94E15"/>
<path fill-rule="evenodd" clip-rule="evenodd" d="M28.5469 38.125H29.1936C29.737 38.125 30.178 37.698 30.178 37.1719C30.178 36.6458 29.737 36.2188 29.1936 36.2188H28.5469C28.0035 36.2188 27.5625 36.6458 27.5625 37.1719C27.5625 37.698 28.0035 38.125 28.5469 38.125Z" fill="#E94E15"/>
<path fill-rule="evenodd" clip-rule="evenodd" d="M32.4844 44.7969H33.1311C33.6745 44.7969 34.1155 44.3699 34.1155 43.8438C34.1155 43.3176 33.6745 42.8906 33.1311 42.8906H32.4844C31.941 42.8906 31.5 43.3176 31.5 43.8438C31.5 44.3699 31.941 44.7969 32.4844 44.7969Z" fill="#E94E15"/>
<path fill-rule="evenodd" clip-rule="evenodd" d="M26.5781 20.9688H27.2249C27.7682 20.9688 28.2092 20.5417 28.2092 20.0156C28.2092 19.4895 27.7682 19.0625 27.2249 19.0625H26.5781C26.0347 19.0625 25.5938 19.4895 25.5938 20.0156C25.5938 20.5417 26.0347 20.9688 26.5781 20.9688Z" fill="#E94E15"/>
<path fill-rule="evenodd" clip-rule="evenodd" d="M21.6562 32.4062H22.303C22.8464 32.4062 23.2874 31.9792 23.2874 31.4531C23.2874 30.927 22.8464 30.5 22.303 30.5H21.6562C21.1129 30.5 20.6719 30.927 20.6719 31.4531C20.6719 31.9792 21.1129 32.4062 21.6562 32.4062Z" fill="#E94E15"/>
<path fill-rule="evenodd" clip-rule="evenodd" d="M40.3594 31.4531H41.0061C41.5495 31.4531 41.9905 31.0261 41.9905 30.5C41.9905 29.9739 41.5495 29.5469 41.0061 29.5469H40.3594C39.816 29.5469 39.375 29.9739 39.375 30.5C39.375 31.0261 39.816 31.4531 40.3594 31.4531Z" fill="#E94E15"/>
</svg>
