<svg width="63" height="61" viewBox="0 0 63 61" fill="none" xmlns="http://www.w3.org/2000/svg">
<path fill-rule="evenodd" clip-rule="evenodd" d="M31.5 5.71875C45.6258 5.71875 57.0938 16.8227 57.0938 30.5C57.0938 44.1773 45.6258 55.2812 31.5 55.2812C17.3742 55.2812 5.90625 44.1773 5.90625 30.5C5.90625 16.8227 17.3742 5.71875 31.5 5.71875ZM31.5 22.875C35.846 22.875 39.375 26.292 39.375 30.5C39.375 34.708 35.846 38.125 31.5 38.125C27.154 38.125 23.625 34.708 23.625 30.5C23.625 26.292 27.154 22.875 31.5 22.875Z" fill="#FFB138"/>
<path fill-rule="evenodd" clip-rule="evenodd" d="M31.5 51.4688C28.0537 51.6127 22.6407 54.3282 17.7188 51.4688C11.5202 47.8679 13.4338 42.214 11.8125 37.1719C10.1913 32.1299 4.9219 24.7813 8.8594 19.0626C12.7969 13.3438 16.5277 13.6202 23.625 11.4376C30.7224 9.25491 33.2621 4.36061 39.375 6.67194C45.488 8.98327 45.0746 16.0707 48.2344 20.0157C51.3942 23.9607 57.4491 24.5125 57.0938 31.4532C56.7384 38.3939 51.2614 38.2652 50.2032 40.9844C49.145 43.7037 48.5898 49.4301 44.2969 51.4688C40.004 53.5076 34.6677 51.3363 31.5 51.4688ZM31.5 22.8751C35.846 22.8751 39.375 26.292 39.375 30.5001C39.375 34.7081 35.846 38.1251 31.5 38.1251C27.154 38.1251 23.625 34.7081 23.625 30.5001C23.625 26.292 27.154 22.8751 31.5 22.8751Z" fill="#B16930"/>
<path fill-rule="evenodd" clip-rule="evenodd" d="M35.1739 12.0533L37.2627 14.0758C37.6466 14.4475 38.2707 14.4475 38.6546 14.0758C39.0385 13.7041 39.0385 13.0998 38.6546 12.7281L36.5658 10.7055C36.1819 10.3338 35.5578 10.3338 35.1739 10.7055C34.79 11.0773 34.79 11.6815 35.1739 12.0533Z" fill="#F6DDA9"/>
<path fill-rule="evenodd" clip-rule="evenodd" d="M29.2676 44.4595L31.3565 46.482C31.7404 46.8538 32.3645 46.8538 32.7484 46.482C33.1323 46.1103 33.1323 45.506 32.7484 45.1343L30.6595 43.1118C30.2756 42.7401 29.6515 42.7401 29.2676 43.1118C28.8837 43.4835 28.8837 44.0878 29.2676 44.4595Z" fill="#F6DDA9"/>
<path fill-rule="evenodd" clip-rule="evenodd" d="M46.002 29.2095L48.0908 31.232C48.4748 31.6038 49.0988 31.6038 49.4828 31.232C49.8667 30.8603 49.8667 30.256 49.4828 29.8843L47.3939 27.8618C47.01 27.4901 46.3859 27.4901 46.002 27.8618C45.6181 28.2335 45.6181 28.8378 46.002 29.2095Z" fill="#F6DDA9"/>
<path fill-rule="evenodd" clip-rule="evenodd" d="M16.4707 43.5064L18.5596 45.5289C18.9435 45.9006 19.5676 45.9006 19.9515 45.5289C20.3354 45.1572 20.3354 44.5529 19.9515 44.1812L17.8627 42.1587C17.4787 41.787 16.8547 41.787 16.4707 42.1587C16.0868 42.5304 16.0868 43.1347 16.4707 43.5064Z" fill="#F6DDA9"/>
<path fill-rule="evenodd" clip-rule="evenodd" d="M16.4707 20.6314L18.5596 22.6539C18.9435 23.0256 19.5676 23.0256 19.9515 22.6539C20.3354 22.2822 20.3354 21.6779 19.9515 21.3062L17.8627 19.2837C17.4787 18.912 16.8547 18.912 16.4707 19.2837C16.0868 19.6554 16.0868 20.2597 16.4707 20.6314Z" fill="#F6DDA9"/>
<path fill-rule="evenodd" clip-rule="evenodd" d="M45.6889 40.3105L43.601 42.3321C43.2171 42.7038 43.2171 43.3081 43.601 43.6798C43.9849 44.0525 44.609 44.0525 44.9929 43.6798L47.0808 41.6582C47.4657 41.2865 47.4657 40.6822 47.0808 40.3105C46.6969 39.9388 46.0728 39.9388 45.6889 40.3105Z" fill="#F6DDA9"/>
<path fill-rule="evenodd" clip-rule="evenodd" d="M41.7514 19.3418L39.6635 21.3634C39.2796 21.7351 39.2796 22.3394 39.6635 22.7111C40.0474 23.0837 40.6715 23.0837 41.0554 22.7111L43.1433 20.6895C43.5282 20.3178 43.5282 19.7135 43.1433 19.3418C42.7594 18.9701 42.1353 18.9701 41.7514 19.3418Z" fill="#F6DDA9"/>
<path fill-rule="evenodd" clip-rule="evenodd" d="M17.142 28.873L15.0541 30.8946C14.6702 31.2663 14.6702 31.8706 15.0541 32.2423C15.4381 32.615 16.0622 32.615 16.4461 32.2423L18.5339 30.2207C18.9188 29.849 18.9188 29.2447 18.5339 28.873C18.15 28.5013 17.5259 28.5013 17.142 28.873Z" fill="#F6DDA9"/>
<path fill-rule="evenodd" clip-rule="evenodd" d="M27.9701 15.5293L25.8823 17.5509C25.4984 17.9226 25.4984 18.5269 25.8823 18.8986C26.2662 19.2712 26.8903 19.2712 27.2742 18.8986L29.362 16.877C29.7469 16.5053 29.7469 15.901 29.362 15.5293C28.9781 15.1576 28.354 15.1576 27.9701 15.5293Z" fill="#F6DDA9"/>
</svg>
