<svg width="60" height="61" viewBox="0 0 60 61" fill="none" xmlns="http://www.w3.org/2000/svg">
<path fill-rule="evenodd" clip-rule="evenodd" d="M9.78098 38.9248L21.7135 51.0561C23.1197 52.4858 25.0275 53.2893 27.0169 53.2893C29.0063 53.2893 30.9141 52.4858 32.3204 51.0561C37.4279 45.8635 45.1116 38.0517 50.2191 32.8591C53.1479 29.8815 53.1479 25.053 50.2191 22.0754L38.2866 9.94405C36.8804 8.51436 34.9725 7.71088 32.9832 7.71088C30.9938 7.71088 29.086 8.51436 27.6797 9.94405C22.5722 15.1367 14.8885 22.9485 9.78098 28.1411C8.37473 29.5708 7.58442 31.5104 7.58442 33.5329C7.58442 35.5555 8.37473 37.4951 9.78098 38.9248Z" fill="#FFCC6C"/>
<path fill-rule="evenodd" clip-rule="evenodd" d="M50.5492 9.60564C49.2311 8.26554 47.4432 7.51257 45.5786 7.51257C43.7139 7.51257 41.926 8.26554 40.6079 9.60564C32.7029 17.6424 17.3532 33.2479 9.44823 41.2846C8.13011 42.6247 7.38948 44.4423 7.38948 46.3381C7.38948 48.2339 8.13011 50.0515 9.44823 51.3916L9.45105 51.3944C10.7692 52.7345 12.557 53.4875 14.4217 53.4875C16.2864 53.4875 18.0742 52.7345 19.3923 51.3944C27.2973 43.3577 42.647 27.7522 50.552 19.7154C51.8701 18.3753 52.6107 16.5577 52.6107 14.662C52.6107 12.7662 51.8701 10.9486 50.552 9.60849C50.5511 9.60754 50.5501 9.60659 50.5492 9.60564Z" fill="#FFB138"/>
<path fill-rule="evenodd" clip-rule="evenodd" d="M15.9374 47.9889C15.9431 46.95 15.9477 45.2868 16.2327 43.84C16.3893 43.0403 16.6096 42.3035 17.0362 41.8698C17.2434 41.6583 17.5696 41.5915 17.9315 41.5372C18.4752 41.4543 19.0959 41.4543 19.7165 41.4514C20.5884 41.4457 21.4584 41.4314 22.1746 41.2675C22.8018 41.1245 23.3277 40.8653 23.7121 40.4735C24.0965 40.0827 24.3515 39.549 24.4931 38.9104C24.6543 38.1832 24.6684 37.2977 24.6731 36.4123C24.6768 35.7803 24.6768 35.1494 24.7574 34.5965C24.8109 34.2286 24.8774 33.8979 25.0846 33.6863C25.2927 33.4757 25.619 33.408 25.9799 33.3537C26.5237 33.2717 27.1452 33.2717 27.7659 33.2679C28.6368 33.2622 29.5077 33.2479 30.2231 33.0849C30.8512 32.941 31.3762 32.6817 31.7615 32.2909C32.1459 31.8992 32.4009 31.3655 32.5424 30.7269C32.7027 29.9996 32.7168 29.1142 32.7224 28.2287C32.7262 27.5978 32.7262 26.9658 32.8068 26.413C32.8602 26.0461 32.9268 25.7144 33.134 25.5028C33.3421 25.2921 33.6674 25.2245 34.0293 25.1701C34.5731 25.0882 35.1937 25.0882 35.8152 25.0844C36.6862 25.0796 37.5571 25.0653 38.2724 24.9014C38.9006 24.7574 39.4256 24.4982 39.8099 24.1074C40.1952 23.7166 40.4502 23.1819 40.5909 22.5443C40.7521 21.8161 40.7662 20.9316 40.7718 20.0452C40.7746 19.4142 40.7746 18.7833 40.8562 18.2304C40.9096 17.8625 40.9752 17.5308 41.1834 17.3202C41.6099 16.8865 42.3346 16.6625 43.1212 16.5034C44.5443 16.2136 46.1803 16.2089 47.2021 16.2031C47.7196 16.2003 48.1368 15.7704 48.134 15.2443C48.1312 14.7182 47.7084 14.294 47.1909 14.2969C46.079 14.3036 44.3015 14.3198 42.7537 14.6333C41.5612 14.8764 40.5046 15.3139 39.8577 15.9715C39.4734 16.3633 39.2184 16.897 39.0768 17.5356C38.9156 18.2628 38.9015 19.1483 38.8968 20.0337C38.8931 20.6647 38.8931 21.2966 38.8124 21.8495C38.7581 22.2174 38.6924 22.5481 38.4843 22.7597C38.2771 22.9703 37.9509 23.038 37.589 23.0923C37.0452 23.1743 36.4246 23.1743 35.804 23.1781C34.9321 23.1838 34.0612 23.1972 33.3459 23.3611C32.7187 23.505 32.1927 23.7643 31.8084 24.1551C31.424 24.5458 31.169 25.0805 31.0274 25.7182C30.8662 26.4464 30.8521 27.3309 30.8474 28.2173C30.8437 28.8483 30.8437 29.4802 30.7631 30.032C30.7087 30.3999 30.6431 30.7316 30.4349 30.9423C30.2277 31.1539 29.9015 31.2206 29.5396 31.2759C28.9968 31.3578 28.3752 31.3578 27.7546 31.3616C26.8827 31.3664 26.0127 31.3807 25.2965 31.5446C24.6693 31.6886 24.1434 31.9478 23.759 32.3386C23.3746 32.7294 23.1196 33.2641 22.9781 33.9017C22.8168 34.629 22.8037 35.5144 22.7981 36.4008C22.7943 37.0318 22.7943 37.6628 22.7137 38.2156C22.6602 38.5835 22.5937 38.9152 22.3865 39.1258C22.1784 39.3374 21.8531 39.4041 21.4912 39.4594C20.9474 39.5414 20.3259 39.5414 19.7052 39.5452C18.8343 39.5499 17.9634 39.5642 17.2481 39.7282C16.6199 39.8721 16.0949 40.1313 15.7096 40.5221C15.0627 41.1798 14.6324 42.254 14.3934 43.4663C14.0849 45.0399 14.069 46.8471 14.0624 47.9775C14.0596 48.5036 14.4768 48.9335 14.9943 48.9363C15.5118 48.9392 15.9346 48.515 15.9374 47.9889Z" fill="#E94E15"/>
</svg>
