<svg width="63" height="61" viewBox="0 0 63 61" fill="none" xmlns="http://www.w3.org/2000/svg">
<path fill-rule="evenodd" clip-rule="evenodd" d="M13.54 45.7052L19.0043 40.4144L22.484 43.7846L16.8554 49.2346C17.4224 50.2487 17.3485 51.7375 16.5551 53.0681C15.4684 54.8904 13.4406 55.7292 12.029 54.94C10.7926 54.248 10.4363 52.5353 11.0987 50.8959C9.15854 51.2314 7.35911 50.4431 6.96733 49.0239C6.54601 47.4999 7.90839 45.8205 10.0081 45.2772C11.3409 44.9322 12.6521 45.1276 13.54 45.7052Z" fill="#F6DDA9"/>
<path fill-rule="evenodd" clip-rule="evenodd" d="M19.5958 43.6769C22.8915 46.665 25.7885 47.5447 30.9584 42.76C36.1284 37.9763 39.5077 36.4084 44.214 34.5088C55.5767 29.9252 58.4176 16.1726 49.8959 8.83829C40.4852 0.738632 27.8399 9.95535 26.2236 18.9233C24.6073 27.8913 23.1051 29.8194 19.5958 33.5919C16.0855 37.3644 16.9508 41.2798 19.5958 43.6769Z" fill="#F48132"/>
<path fill-rule="evenodd" clip-rule="evenodd" d="M41.3457 9.53126C37.291 9.52459 33.1074 12.8138 32.4912 18.0007C32.4282 18.523 32.8161 18.9958 33.3565 19.0558C33.8959 19.1168 34.3842 18.7413 34.4462 18.218C34.9334 14.1234 38.1405 11.4327 41.3417 11.4375C41.8851 11.4385 42.3271 11.0124 42.3281 10.4863C42.329 9.96017 41.889 9.53221 41.3457 9.53126Z" fill="#FFCC6C"/>
</svg>
