<svg width="620" height="566" viewBox="0 0 620 566" fill="none" xmlns="http://www.w3.org/2000/svg">
<path d="M524.984 211.056C527.485 207.101 528.574 202.425 528.074 197.781C527.575 193.137 525.516 188.795 522.23 185.454C531.796 178.975 544.779 166.352 537.81 155.019C528.678 139.996 507.288 141.891 491.352 145.248C492.108 142.894 492.899 140.591 493.504 138.341C494.325 135.261 494.469 132.043 493.927 128.903C493.385 125.764 492.169 122.777 490.361 120.145C488.554 117.514 486.197 115.299 483.451 113.652C480.706 112.005 477.636 110.963 474.449 110.598C469.251 110.908 464.183 112.331 459.591 114.77C445.716 120.265 443.869 96.8471 441.149 88.6751C440.208 86.0136 438.742 83.5656 436.835 81.4747C434.929 79.3839 432.621 77.6924 430.047 76.4997C427.473 75.3069 424.685 74.637 421.847 74.5291C419.008 74.4213 416.177 74.8777 413.519 75.8717C402.43 79.7004 402.806 48.0753 387.746 49.1448C372.685 50.2143 365.365 69.679 358.883 80.1075C358.706 80.4294 358.567 80.7707 358.469 81.1243C354.745 69.6557 348.556 59.7822 337.877 63.7754C321.867 69.8325 330.217 99.1554 333.535 115.539C333.251 115.937 333.086 116.406 333.057 116.893C332.997 119.302 333.068 121.712 333.269 124.113C323.99 120.752 313.915 122.494 304.815 134.401C293.599 148.626 286.385 166.841 278.468 182.954C266.631 208.869 251.755 233.306 234.147 255.757C200.742 295.761 156.152 325.742 121.147 363.957C98.1694 389.02 85.3666 421.771 109.796 449.997C119.968 460.511 131.722 469.393 144.639 476.325C161.726 486.843 177.801 498.047 195.445 508.188C230.936 528.333 261.215 521.89 290.188 494.976C306.43 478.844 320.472 460.668 331.956 440.912C347.234 414.844 365.333 390.511 385.932 368.345C417.042 336.228 458.781 314.512 485.857 278.573C492.291 270.018 500.766 253.747 490.421 244.407C488.161 242.398 485.546 240.824 482.708 239.763C490.853 230.991 501.004 224.292 512.304 220.233C517.53 218.842 522.05 215.571 524.984 211.056ZM529.157 154.62C541.808 163.43 521.134 178.243 515.09 181.968C514.663 182.272 514.31 182.667 514.058 183.124C513.805 183.582 513.66 184.09 513.633 184.611C513.606 185.131 513.698 185.652 513.901 186.132C514.105 186.613 514.415 187.042 514.808 187.388C536.659 206.461 506.672 211.602 496.012 218.97C489.077 224.008 482.593 229.631 476.633 235.778C476.16 236.257 475.857 236.876 475.768 237.542C464.062 236.487 452.26 237.612 440.97 240.86C447.393 232.777 455.389 226.059 464.48 221.107C480.106 214.058 496.952 203.605 499.066 185.09C499.114 182.313 498.553 179.559 497.423 177.018C496.292 174.478 494.62 172.212 492.52 170.377C490.343 168.017 488.872 165.102 488.271 161.958C487.67 158.813 487.964 155.565 489.119 152.578C501.202 149.548 517.946 147.044 529.157 154.62ZM377.774 63.7778C389.299 48.1667 396.802 68.2686 401.479 78.2087C403.705 82.9605 407.037 86.3002 412.719 83.7769C445.245 69.6999 429.121 122.448 456.326 122.432C460.141 121.886 463.832 120.682 467.231 118.875C484.234 111.997 489.168 130.084 485.291 142.578C482.888 149.876 477.835 160.441 482.06 167.889C488.815 179.882 493.72 188.858 484.171 200.112C475.947 209.732 464.292 213.06 453.512 218.742C442.731 224.424 436.742 236.433 427.66 243.615C411.454 247.228 394.898 249.899 378.041 252.996C376.205 246.282 374.944 239.425 374.271 232.5C374.995 232.626 375.74 232.519 376.397 232.193C377.055 231.867 377.589 231.34 377.922 230.69C387.168 213.382 410.774 210.501 423.969 196.999C431.633 189.156 442.445 178.446 444.346 167.07C445.541 159.633 443.462 151.1 434.751 150.078C432.976 150.042 431.214 150.39 429.587 151.098C427.96 151.805 426.508 152.856 425.33 154.176C428.766 141.687 431.98 127.581 425.699 118.653C417.587 106.843 407.882 119.38 401.444 129.117C401.095 117.056 400.996 104.604 391.727 95.8597C382.458 87.1154 371.379 93.4413 362.968 99.8742C362.093 94.38 360.906 88.9393 359.413 83.5779C359.83 83.9505 360.323 84.2285 360.859 84.3925C361.394 84.5565 361.96 84.6027 362.515 84.5278C363.071 84.4529 363.603 84.2587 364.075 83.9588C364.548 83.6589 364.948 83.2604 365.25 82.791C369.586 76.6878 373.388 69.9153 377.774 63.7778ZM336.267 83.3488C336.154 80.7008 337.237 61.116 347.468 74.0686C349.86 77.737 351.609 81.7805 352.642 86.0283C354.792 92.9059 356.356 99.9505 357.319 107.088C357.387 107.672 357.607 108.229 357.956 108.704C358.306 109.179 358.773 109.556 359.313 109.799C359.853 110.041 360.447 110.141 361.037 110.087C361.627 110.034 362.193 109.83 362.68 109.495C375.217 99.678 390.544 94.8935 393.948 116.152C395.257 124.103 394.579 132.294 395.598 140.146C395.648 140.817 395.902 141.458 396.325 141.984C396.749 142.509 397.322 142.896 397.97 143.094C398.618 143.291 399.311 143.29 399.958 143.09C400.606 142.89 401.177 142.5 401.598 141.973C404.958 137.644 408.032 133.102 410.799 128.377C411.658 126.498 413.213 125.019 415.141 124.247C417.07 123.476 419.223 123.472 421.154 124.236C422.288 128.613 422.249 133.209 421.041 137.567C419.9 148.429 416.443 158.943 414.45 169.645C413.94 172.789 418.386 175.375 420.495 172.4C422.604 169.425 423.842 167.556 425.567 165.209C427.32 162.838 429.344 160.676 431.598 158.767C437.303 163.078 438.488 167.503 435.326 172.075C430.56 180.994 424.053 188.88 416.185 195.275C402.987 206.938 383.48 210.063 373.497 225.219C371.712 199.623 373.18 173.15 360.264 150.675C355.417 141.72 348.631 133.942 340.396 127.902L340.089 124.649C340.579 124.321 340.969 123.867 341.218 123.335C341.466 122.803 341.564 122.214 341.501 121.631C340.65 108.731 336.932 96.3007 336.438 83.3807L336.267 83.3488ZM307.825 464.62C293.64 484.022 275.964 502.769 253.103 511.699C227.18 521.893 198.207 502.709 177.639 489.173C148.991 470.137 97.2595 450.314 103.78 408.416C107.165 386.462 126.442 368.103 141.595 353.348C159.943 335.472 179.391 318.765 198.203 301.457C214.423 287.189 229.714 271.913 243.985 255.721C257.99 237.436 269.864 217.635 279.379 196.696C288.059 177.858 297.709 159.475 308.291 141.621C324.87 115.663 346.685 137.707 356.414 157.701C371.036 187.195 362.89 223.272 371.431 254.601C334.547 261.468 298.125 270.304 267.676 292.695C254.611 302.252 243.594 314.298 235.269 328.129C226.944 341.961 221.478 357.301 219.189 373.253C214.903 403.181 230.017 431.016 231.978 460.322C231.539 459.984 231.021 459.762 230.473 459.676C229.925 459.589 229.364 459.641 228.841 459.826C228.319 460.012 227.851 460.325 227.482 460.736C227.113 461.148 226.855 461.645 226.73 462.182C223.828 455.334 220.418 448.709 216.527 442.362C216.066 441.78 215.429 441.36 214.71 441.163C213.991 440.967 213.227 441.004 212.531 441.27C211.835 441.536 211.242 442.016 210.841 442.64C210.439 443.264 210.25 444 210.3 444.739C211.511 453.197 214.248 461.284 214.968 469.781C206.061 456.814 201.275 441.425 191.946 428.598C191.454 427.949 190.745 427.496 189.946 427.321C189.148 427.145 188.312 427.259 187.591 427.641C186.869 428.023 186.308 428.649 186.01 429.405C185.712 430.161 185.696 430.999 185.965 431.766C190.622 447.831 199.696 463.85 200.27 480.988C186.169 468.447 182.253 445.472 172.779 430.166C170.776 427.251 166.21 429.24 166.82 432.288C168.644 443.891 171.138 455.38 174.29 466.699C166.603 456.588 163.488 443.307 157.235 432.152C155.52 429.116 150.616 431.26 151.311 434.324C152.516 443.743 155.06 452.845 156.196 462.164C151.497 456.458 147.112 450.506 143.057 444.332C140.538 440.663 135.023 444.619 137.338 448.206C143.337 457.262 149.994 465.872 157.256 473.965C157.717 474.547 158.354 474.967 159.073 475.163C159.793 475.359 160.556 475.322 161.252 475.056C161.949 474.791 162.541 474.31 162.942 473.686C163.344 473.062 163.534 472.327 163.484 471.588C163.562 467.653 163.338 463.718 162.814 459.817C165.983 467.452 171.089 474.141 177.635 479.234C178.16 479.585 178.771 479.788 179.404 479.82C180.036 479.852 180.665 479.714 181.224 479.418C181.783 479.123 182.25 478.682 182.576 478.143C182.903 477.605 183.075 476.988 183.075 476.359C182.533 471.957 181.715 467.592 180.625 463.291C184.704 474.383 192.113 483.965 201.852 490.741C202.336 490.959 202.864 491.064 203.395 491.045C203.926 491.026 204.445 490.886 204.912 490.634C205.379 490.382 205.78 490.026 206.085 489.593C206.39 489.161 206.589 488.664 206.667 488.142C207.279 480.906 206.638 473.619 204.772 466.598C207.627 472.003 211.102 477.063 215.128 481.675C215.532 482.254 216.104 482.697 216.767 482.945C217.431 483.194 218.155 483.235 218.843 483.065C219.531 482.895 220.151 482.521 220.619 481.992C221.088 481.464 221.384 480.806 221.467 480.107C221.979 475.597 221.867 471.04 221.135 466.561C222.595 469.549 224.019 472.487 225.715 475.388C226.098 476.001 226.667 476.477 227.34 476.749C228.013 477.02 228.755 477.072 229.46 476.898C230.165 476.723 230.796 476.331 231.262 475.778C231.728 475.225 232.005 474.539 232.054 473.82L232.205 472.097C233.108 475.462 238.602 476.012 238.831 472.027C239.131 454.935 236.672 437.905 231.548 421.584C224.098 393.787 223.137 368.96 234.999 342.073C255.369 295.507 306.192 274.708 352.785 265.241C365.179 262.664 377.771 261.132 390.324 259.11C390.021 259.499 389.826 259.961 389.76 260.449C388.364 276.122 396.502 290.345 397.07 305.424C390.683 295.461 384.97 285.087 379.968 274.371C378.166 271.1 373.708 273.678 373.791 276.714C374.123 291.88 380.811 305.612 383.549 320.179C371.489 307.803 367.933 288.267 357.911 274.215C357.449 273.728 356.854 273.387 356.198 273.234C355.543 273.081 354.857 273.123 354.225 273.355C353.594 273.586 353.045 273.997 352.647 274.536C352.249 275.075 352.019 275.719 351.987 276.386C355.156 296.331 366.511 314.267 370.495 334.102C358.605 323.377 354.506 305.534 344.195 293.004C343.757 292.393 343.129 291.943 342.407 291.722C341.686 291.502 340.911 291.524 340.203 291.785C339.496 292.046 338.894 292.532 338.493 293.167C338.092 293.802 337.912 294.551 337.983 295.297C340.549 312.852 350.024 328.158 354.248 345.106C344.744 333.428 340.734 317.44 329.893 306.299C327.265 303.661 323.244 307.415 324.376 310.036C330.293 329.446 342.513 347.237 345.548 367.42C336.546 356.58 332.283 342.384 324.543 330.468C324.098 329.868 323.467 329.43 322.747 329.22C322.027 329.01 321.258 329.041 320.557 329.306C319.856 329.572 319.263 330.059 318.867 330.692C318.471 331.325 318.295 332.069 318.366 332.811C321.399 351.154 330.784 367.626 334.952 385.569C326.854 375.074 322.855 361.803 314.941 351.037C313.353 348.725 308.959 349.345 308.568 352.555C307.48 368.461 315.247 381.389 320.562 395.389C318.065 392.293 315.755 389.146 313.477 385.829C312.962 385.215 312.251 384.797 311.462 384.644C310.673 384.491 309.856 384.613 309.147 384.989C308.438 385.366 307.882 385.973 307.572 386.709C307.262 387.445 307.217 388.265 307.445 389.03C312.091 401.975 315.921 415.195 318.911 428.613C317.748 426.571 316.829 424.401 316.175 422.146C315.85 421.301 315.201 420.619 314.37 420.25C313.539 419.88 312.595 419.854 311.744 420.176C310.894 420.498 310.207 421.143 309.835 421.968C309.463 422.793 309.436 423.731 309.761 424.576C311.57 431.694 315.864 437.945 321.877 442.216C317.426 450.312 312.78 457.582 307.825 464.62ZM487.609 259.64C485.474 272.942 471.536 285.254 462.334 293.99C442.22 313.505 418.474 328.704 397.464 347.132C381.942 361.152 367.645 376.453 354.724 392.87C344.547 406.159 335.316 420.138 327.099 434.703C325.717 424.82 323.423 415.084 320.247 405.618C322.046 407.59 323.935 409.477 325.914 411.278C326.434 411.652 327.05 411.874 327.69 411.918C328.331 411.961 328.971 411.826 329.538 411.526C330.105 411.227 330.576 410.775 330.897 410.223C331.218 409.671 331.377 409.04 331.355 408.403C328.845 394.492 320.641 382.007 317.031 368.546C322.669 379.455 327.549 390.878 338.053 399.153C338.579 399.504 339.19 399.707 339.822 399.739C340.455 399.771 341.084 399.633 341.643 399.337C342.202 399.042 342.669 398.601 342.995 398.063C343.321 397.524 343.494 396.907 343.494 396.278C342.18 385.767 339.453 375.479 335.386 365.687C338.603 371.103 342.742 375.924 347.619 379.935C348.139 380.309 348.754 380.531 349.395 380.574C350.036 380.618 350.676 380.483 351.243 380.183C351.81 379.884 352.28 379.432 352.602 378.88C352.923 378.328 353.082 377.697 353.06 377.06C352.635 366.717 350.381 356.528 346.401 346.96C349.229 351.342 352.807 355.199 356.973 358.357C357.493 358.731 358.108 358.952 358.749 358.996C359.389 359.04 360.029 358.904 360.596 358.605C361.163 358.305 361.634 357.854 361.955 357.302C362.276 356.749 362.435 356.119 362.413 355.482C360.607 343.379 357.059 331.596 351.879 320.495C356.346 330.674 363.731 339.322 373.112 345.363C373.671 345.646 374.295 345.774 374.92 345.734C375.545 345.695 376.148 345.489 376.666 345.138C377.183 344.788 377.597 344.305 377.862 343.742C378.127 343.178 378.235 342.554 378.174 341.935C377.257 333.561 375.251 325.341 372.204 317.481C375.616 323.12 380.26 327.927 385.794 331.545C386.32 331.896 386.931 332.099 387.563 332.131C388.195 332.163 388.825 332.024 389.384 331.729C389.942 331.434 390.41 330.993 390.736 330.454C391.062 329.915 391.235 329.299 391.235 328.67C390.192 318.65 387.971 308.786 384.618 299.278C387.951 305.909 392.336 311.965 397.604 317.214C398.069 317.59 398.625 317.839 399.217 317.936C399.809 318.033 400.416 317.974 400.978 317.764C401.539 317.555 402.036 317.204 402.418 316.744C402.8 316.285 403.054 315.734 403.155 315.147C405.796 299.883 398.089 286.178 396.487 271.43C404.703 283.392 409.001 297.638 420.424 307.575C420.949 307.926 421.56 308.128 422.193 308.161C422.825 308.193 423.454 308.054 424.013 307.759C424.572 307.464 425.039 307.023 425.365 306.484C425.692 305.945 425.864 305.329 425.864 304.7C424.521 293.459 419.398 283.085 417.615 272.069C424.519 282.12 429.136 292.837 439.256 300.121C439.782 300.472 440.393 300.675 441.025 300.707C441.658 300.74 442.287 300.601 442.846 300.305C443.404 300.01 443.872 299.569 444.198 299.03C444.524 298.492 444.697 297.875 444.697 297.246C444.21 290.674 443.134 284.157 441.482 277.774C444.758 282.303 448.498 286.482 452.643 290.245C453.11 290.635 453.673 290.894 454.274 290.996C454.875 291.099 455.493 291.039 456.064 290.825C456.635 290.611 457.138 290.25 457.521 289.779C457.904 289.308 458.154 288.743 458.245 288.144C458.551 282.791 458.363 277.422 457.683 272.103C460.058 274.913 462.417 277.807 465.045 280.446C465.526 280.889 466.123 281.188 466.767 281.309C467.412 281.431 468.078 281.369 468.689 281.132C469.3 280.895 469.832 280.492 470.223 279.969C470.614 279.445 470.848 278.823 470.9 278.174C471.565 274.024 471.907 269.828 471.921 265.626L475.097 267.01C478.624 269.554 483.02 264.294 479.493 261.75C476.605 259.19 472.942 257.655 469.081 257.388C468.189 257.223 467.268 257.415 466.519 257.922C465.77 258.43 465.253 259.211 465.083 260.096C464.828 263.288 464.759 266.427 464.606 269.55C461.731 266.121 458.908 262.658 455.679 259.469C453.344 257.148 450.024 259.765 450.238 262.344C450.366 267.928 451.257 273.436 451.571 278.967C446.789 273.517 442.849 267.349 437.561 262.241C437.036 261.89 436.424 261.688 435.792 261.655C435.16 261.623 434.531 261.762 433.972 262.057C433.413 262.353 432.946 262.793 432.619 263.332C432.293 263.871 432.121 264.488 432.12 265.116C433.596 272.879 435.767 280.467 437.073 288.198C429.212 279.236 424.738 267.539 415.998 259.026C415.525 258.654 414.963 258.411 414.368 258.319C413.772 258.227 413.162 258.29 412.598 258.501C412.034 258.713 411.535 259.066 411.149 259.526C410.763 259.986 410.504 260.537 410.396 261.126C410.628 271.892 412.701 282.54 416.526 292.615C409 281.659 404.578 268.527 395.026 258.723C398.588 258.078 402.099 257.467 405.591 256.722C406.3 256.242 407.439 256.281 408.37 256.018C408.688 256.452 409.107 256.803 409.593 257.039C410.078 257.275 410.614 257.389 411.155 257.372C418.019 257.199 424.656 254.892 430.132 250.778C437.386 249.031 444.675 247.334 452.053 246.093C463.909 244.027 490.719 240.523 487.609 259.64Z" fill="#FCFCFC"/>
<path d="M175.458 389.911C175.648 380.578 171.923 369.109 161.305 367.685C150.687 366.261 142.992 376.112 140.247 384.746C140.116 385.253 140.076 385.779 140.127 386.3C139.87 386.718 139.704 387.186 139.642 387.672C139.58 388.159 139.622 388.653 139.767 389.122C140.739 393.712 143.186 397.866 146.74 400.957C150.294 404.047 154.762 405.909 159.473 406.261C161.616 406.269 163.738 405.849 165.713 405.024C167.688 404.2 169.475 402.988 170.967 401.462C172.46 399.935 173.627 398.125 174.398 396.141C175.17 394.156 175.531 392.037 175.458 389.911ZM158.789 399.434C155.777 398.916 152.993 397.507 150.8 395.393C148.607 393.279 147.107 390.557 146.496 387.583C147.106 384.395 148.639 381.454 150.909 379.119C153.178 376.784 156.084 375.158 159.27 374.439C166.874 373.634 168.482 384.18 168.673 389.425C168.819 390.758 168.666 392.107 168.223 393.374C167.781 394.641 167.061 395.795 166.116 396.752C165.17 397.71 164.023 398.447 162.756 398.91C161.489 399.374 160.134 399.553 158.789 399.434Z" fill="#FCFCFC"/>
<path d="M289.875 369.927C289.649 367.697 288.957 365.539 287.843 363.589C286.729 361.64 285.218 359.943 283.407 358.606C281.595 357.269 279.523 356.321 277.322 355.825C275.121 355.328 272.84 355.292 270.625 355.72C268.292 356.053 266.05 356.844 264.028 358.047C262.006 359.25 260.245 360.84 258.848 362.725C257.452 364.61 256.446 366.752 255.891 369.027C255.336 371.301 255.243 373.663 255.616 375.974C255.803 376.771 256.283 377.47 256.962 377.934C257.495 379.921 258.425 381.781 259.696 383.403C260.967 385.026 262.555 386.378 264.363 387.379C266.172 388.38 268.164 389.01 270.223 389.231C272.281 389.452 274.363 389.259 276.345 388.664C280.348 387.431 283.836 384.933 286.278 381.551C288.72 378.169 289.983 374.088 289.875 369.927ZM274.593 382.119C268.704 384.34 264.497 380.268 263.033 375.221C262.894 374.878 262.682 374.57 262.412 374.316C262.151 371.643 262.929 368.971 264.587 366.849C266.245 364.726 268.657 363.314 271.33 362.9C272.722 362.522 274.183 362.47 275.598 362.748C277.013 363.027 278.344 363.628 279.485 364.504C280.627 365.381 281.547 366.509 282.175 367.799C282.802 369.089 283.119 370.506 283.1 371.939C282.822 374.27 281.871 376.471 280.362 378.277C278.852 380.083 276.849 381.417 274.593 382.119Z" fill="#FCFCFC"/>
<path d="M282.395 431.697C281.635 430.4 280.618 429.272 279.404 428.38C278.189 427.487 276.805 426.851 275.334 426.51C273.863 426.168 272.338 426.128 270.851 426.393C269.365 426.658 267.948 427.221 266.689 428.049C264.105 429.924 262.106 432.485 260.92 435.437C259.734 438.389 259.41 441.613 259.985 444.74C260.091 445.531 260.484 446.257 261.09 446.782C261.696 447.306 262.474 447.594 263.278 447.59C263.454 448.347 263.91 449.011 264.555 449.45C265.66 450.545 266.975 451.409 268.422 451.992C269.869 452.575 271.418 452.864 272.979 452.843C274.54 452.822 276.081 452.491 277.511 451.869C278.942 451.247 280.232 450.348 281.307 449.223C283.445 446.848 284.715 443.827 284.913 440.647C285.11 437.468 284.223 434.315 282.395 431.697ZM268.799 444.293C268.258 443.807 267.549 443.548 266.82 443.571C266.526 441.968 266.6 440.32 267.036 438.75C267.473 437.179 268.26 435.727 269.34 434.5C269.76 433.965 270.304 433.539 270.926 433.259C271.547 432.978 272.228 432.851 272.91 432.889C273.592 432.926 274.254 433.127 274.841 433.475C275.427 433.822 275.92 434.305 276.277 434.883C280.654 440.608 275.13 449.946 268.495 444.498L268.799 444.293Z" fill="#FCFCFC"/>
<path d="M324.034 208.051C323.832 204.505 322.43 201.131 320.054 198.476C317.679 195.821 314.47 194.041 310.947 193.424C309.116 193.27 307.272 193.485 305.525 194.056C303.779 194.626 302.167 195.541 300.785 196.745C299.404 197.949 298.281 199.418 297.484 201.063C296.687 202.708 296.233 204.496 296.149 206.319C296.097 206.807 296.149 207.301 296.301 207.768C296.452 208.235 296.7 208.665 297.029 209.032C297.357 209.398 297.759 209.693 298.209 209.896C298.658 210.1 299.146 210.208 299.64 210.214C300.606 213.065 302.483 215.524 304.985 217.218C307.487 218.913 310.478 219.75 313.503 219.602C316.393 219.327 319.075 217.99 321.024 215.854C322.972 213.717 324.046 210.934 324.034 208.051ZM312.819 212.775C311.162 212.79 309.551 212.233 308.26 211.201C306.97 210.168 306.08 208.724 305.741 207.113C305.591 206.585 305.289 206.113 304.871 205.754C304.454 205.395 303.939 205.166 303.391 205.096C303.672 203.641 304.477 202.338 305.656 201.431C306.836 200.524 308.307 200.075 309.796 200.169C311.802 200.5 313.634 201.5 314.991 203.004C316.347 204.509 317.147 206.427 317.259 208.443C317.188 209.582 316.695 210.654 315.875 211.454C315.056 212.254 313.967 212.725 312.819 212.775Z" fill="#FCFCFC"/>
</svg>
