<svg width="267" height="330" viewBox="0 0 267 330" fill="none" xmlns="http://www.w3.org/2000/svg">
<path d="M151.227 57.5362C150.588 57.4814 149.949 57.6363 149.407 57.9771C147.808 53.5684 146.21 48.8511 144.655 44.266C139.993 30.5108 135.774 16.6674 132.222 2.47128C132.002 1.6343 131.46 0.916282 130.713 0.471223C129.966 0.0261642 129.073 -0.110498 128.225 0.0905655C120.726 1.32334 113.396 3.40919 106.377 6.30688C105.91 6.45314 105.483 6.70416 105.128 7.04051C104.774 7.37687 104.503 7.78954 104.335 8.2467C104.055 8.20435 103.771 8.20435 103.491 8.2467C102.901 8.20042 102.308 8.291 101.759 8.51124C101.223 8.73103 100.75 9.07942 100.383 9.52523C100.071 9.88278 99.8546 10.3124 99.7537 10.7746C99.6528 11.2369 99.6706 11.7169 99.8053 12.1705C102.026 21.9579 104.823 31.5248 107.976 40.9594L110.774 49.0274C109.455 49.7725 108.194 50.6124 106.999 51.5404C103.444 54.3647 100.172 57.5244 97.2298 60.9751L96.7414 61.5923C93.5146 53.392 90.0805 45.2506 86.4392 37.1679C86.0104 36.4246 85.3044 35.8785 84.4736 35.6475C83.6428 35.4166 82.7538 35.5193 81.9986 35.9335C76.5811 39.8132 71.6076 44.2219 66.1901 48.1016C65.8962 48.3056 65.6407 48.5593 65.4352 48.8511C65.1484 49.2236 64.9414 49.6504 64.8268 50.1053C64.7123 50.5602 64.6926 51.0336 64.7691 51.4963C64.5581 51.8035 64.4075 52.1475 64.3251 52.5103C64.3251 52.5103 64.3251 52.5103 64.3251 52.8189C64.2401 53.226 64.2401 53.6462 64.3251 54.0534C65.1244 56.7868 65.9681 59.5202 66.8118 62.2095C68.0552 66.2655 69.3873 70.2775 70.7639 74.2894C70.5127 74.2681 70.2602 74.2681 70.009 74.2894L62.904 74.5539C60.9502 70.3656 58.8187 66.2655 56.6428 62.2095C55.1774 59.4761 53.712 56.7867 52.2022 54.0974C51.3605 52.5633 50.4109 51.09 49.3602 49.6887C47.7013 47.2167 45.2166 45.4056 42.3442 44.5746C41.7687 44.5102 41.1877 44.5102 40.6123 44.5746C35.5056 44.5746 30.6654 48.9833 26.58 53.6566C23.8713 56.8308 21.4733 60.0933 19.6083 62.0772C19.2728 64.3713 19.0652 66.6821 18.9866 68.9989C22.4947 76.2292 25.6475 83.5918 28.7115 91.0425C21.5622 93.82 17.0327 96.0685 15.3897 100.83C14.3803 104.085 14.1822 107.534 14.8124 110.882C15.4278 114.396 16.6763 117.771 18.4981 120.846C19.4751 122.609 20.4964 124.328 21.5622 126.048C21.0458 126.068 20.541 126.206 20.0868 126.45C19.6325 126.695 19.241 127.04 18.9422 127.459C17.5212 129.487 16.041 131.47 14.5016 133.41C10.061 139.318 5.22077 144.961 0.602556 150.781C0.229212 151.402 0.074583 152.129 0.163009 152.848C0.251436 153.566 0.577901 154.235 1.09102 154.749C4.99874 158.805 8.86206 162.861 12.681 166.961C19.3863 174.103 26.0027 181.333 32.3084 189.004C27.8678 198.571 23.4272 208.05 18.9866 217.705C18.7522 218.215 18.6602 218.779 18.7202 219.336C18.4985 219.872 18.4703 220.468 18.6402 221.022C18.8102 221.577 19.1679 222.056 19.6527 222.378C26.197 227.687 32.3139 233.495 37.9479 239.749C54.911 258.398 68.144 280.265 82.0874 301.162C86.1284 307.202 88.6595 314.036 92.656 319.723C95.0458 323.27 98.2792 326.177 102.07 328.188C104.283 329.277 106.706 329.878 109.175 329.951C110.477 330.016 111.781 330.016 113.083 329.951C119.734 328.93 126.306 327.457 132.755 325.543C133.06 325.849 133.428 326.086 133.834 326.238C134.241 326.39 134.675 326.454 135.108 326.424H135.952C136.487 326.287 136.981 326.022 137.391 325.654C137.801 325.285 138.115 324.823 138.305 324.308C138.788 324.41 139.288 324.41 139.771 324.308C161.752 315.887 183.422 306.673 206.069 300.325C226.096 294.549 246.3 290.537 265.217 281.632C265.706 281.408 266.127 281.061 266.437 280.625C266.748 280.19 266.937 279.68 266.987 279.148C267.036 278.617 266.944 278.081 266.719 277.596C266.494 277.111 266.145 276.694 265.706 276.385C266.781 271.328 267.006 266.129 266.372 260.999C265.883 246.935 263.841 232.827 261.931 218.851C258.956 196.808 256.025 174.764 253.716 152.721C251.407 130.677 253.716 107.134 250.386 84.5617C250.216 83.8583 249.813 83.2321 249.241 82.7842C248.669 82.3363 247.961 82.0927 247.233 82.0928C241.567 82.5034 235.94 83.3435 230.403 84.6058C227.117 76.0529 224.675 67.2795 221.522 58.5943C220.479 54.4338 218.753 50.4718 216.415 46.8671C211.042 40.0777 200.74 43.5165 193.679 44.9714C193.318 45.0641 192.973 45.2129 192.658 45.4122C190.524 38.0776 187.944 30.8781 184.931 23.8536C177.649 7.27678 164.904 12.6995 150.25 16.7996C149.405 17.0187 148.679 17.5545 148.223 18.2944C147.768 19.0344 147.619 19.9209 147.808 20.7675C149.836 33.7916 152.804 46.6541 156.689 59.2556C155.535 59.2556 154.247 58.947 152.915 58.8588L151.227 57.5362ZM172.498 90.2048C176.938 105.724 182.223 121.066 187.063 136.232C185.009 139.864 182.647 143.315 180.002 146.548C175.938 138.415 172.509 129.985 169.745 121.33C164.993 107.002 161.352 92.2329 156.423 77.9045C154.824 73.4958 153.226 68.7344 151.583 64.1493C167.169 65.3838 168.59 76.1851 172.498 90.2048ZM101.981 167.887C102.093 167.467 102.118 167.028 102.055 166.598C101.992 166.168 101.842 165.756 101.614 165.385C101.385 165.014 101.084 164.693 100.727 164.441C100.371 164.189 99.9665 164.011 99.5389 163.919H99.0061C98.4049 163.893 97.8074 164.022 97.2708 164.292C96.7342 164.563 96.2766 164.965 95.942 165.462C94.4915 167.49 93.1149 169.562 91.8123 171.678C87.8602 178.027 84.2633 184.552 79.8227 190.503C80.6737 184.455 82.0101 178.485 83.8193 172.648C84.8406 169.121 85.9063 165.594 86.8833 162.023C87.0501 161.317 86.9848 160.577 86.6971 159.91C86.4095 159.244 85.9145 158.687 85.2847 158.32C84.692 157.937 83.9921 157.752 83.2863 157.791C82.9079 157.817 82.539 157.92 82.2027 158.095C81.8665 158.269 81.5703 158.511 81.3325 158.805C77.5443 163.351 74.0159 168.106 70.7639 173.045C72.7178 166.652 74.9824 160.304 77.2471 153.911C77.423 153.414 77.4658 152.88 77.3713 152.361C77.2768 151.843 77.0482 151.357 76.708 150.953C76.3677 150.548 75.9276 150.239 75.4305 150.054C74.9334 149.869 74.3964 149.816 73.8723 149.899C73.4453 149.907 73.0244 150.001 72.6351 150.175C72.2458 150.35 71.8963 150.6 71.6076 150.913C71.2708 151.267 71.0135 151.688 70.8527 152.147C66.6065 163.072 63.2069 174.303 60.6837 185.742C57.3533 178.997 54.1117 172.251 51.0033 165.418C50.9109 165.239 50.7911 165.075 50.648 164.933L53.4456 162.817C60.4033 157.266 67.832 152.325 75.6486 148.047C77.0076 147.294 78.5329 146.885 80.0892 146.857C80.3867 146.915 80.6628 147.053 80.8884 147.254C82.3094 148.709 83.8192 150.119 85.329 151.442C89.9417 155.481 94.8225 159.207 99.9386 162.596C103.319 164.87 106.867 166.889 110.552 168.636C110.199 168.883 109.885 169.18 109.619 169.518C102.381 179.085 98.34 190.636 91.8567 200.687C92.656 197.954 93.4997 195.265 94.3878 192.531C97.1854 184.199 99.983 176.263 101.981 167.887ZM24.5373 130.148C26.3117 132.932 27.7993 135.886 28.9779 138.965C32.7524 149.546 35.328 160.348 39.6354 170.752C38.2588 174.411 36.749 177.983 35.1948 181.554C26.3136 171.237 17.166 161.318 7.75191 151.574C13.1694 144.52 19.1198 137.555 24.3597 130.148H24.5373ZM38.614 97.0384C34.3954 86.3252 29.9993 75.7442 25.0258 65.3396C29.2 60.5782 34.2622 52.3339 40.3458 50.6145C40.7762 50.4596 41.2477 50.4596 41.678 50.6145C43.8983 51.4963 46.1186 55.6405 47.584 58.6384L48.9162 61.3278C51.3585 65.7365 53.6232 70.1452 55.7547 74.5539L49.1383 74.7743C48.6327 74.7842 48.1355 74.9039 47.6816 75.1249C47.2276 75.346 46.8279 75.663 46.5105 76.0537C46.1931 76.4445 45.9657 76.8995 45.8443 77.3868C45.7229 77.8741 45.7105 78.3819 45.8078 78.8745C48.6331 90.0613 52.7766 100.878 58.1526 111.102C63.5639 121.301 68.3535 131.812 72.4957 142.58C68.588 145.049 64.6359 147.518 60.7726 150.031C52.2022 132.749 45.497 114.806 38.4364 97.0384H38.614ZM60.817 81.3433C61.3708 81.3308 61.9097 81.1626 62.3712 80.8584L69.787 80.6379C70.343 80.592 70.8853 80.4425 71.3856 80.1971C71.8114 79.9367 72.163 79.5724 72.4069 79.139C82.1318 106.341 94.3879 132.529 106.644 158.716C104.335 157.306 102.203 155.807 99.8942 154.308C93.6721 149.829 87.8484 144.829 82.4871 139.362C82.0223 138.921 81.4342 138.629 80.7996 138.524C80.0784 138.379 79.3286 138.522 78.7125 138.921H78.4906C76.6255 134.028 74.494 129.222 72.2293 124.461C68.8545 117.319 65.2132 110.309 61.8827 103.166C58.456 96.0702 55.6481 88.6953 53.49 81.1229H59.6624C60.0268 81.278 60.4206 81.3532 60.817 81.3433ZM98.6508 66.3537C98.9156 66.395 99.1853 66.395 99.4501 66.3537C99.7296 66.3975 100.014 66.3975 100.294 66.3537C100.906 66.1823 101.459 65.8467 101.892 65.3838C103.58 63.488 105.312 61.5923 107.132 59.8288C108.941 58.051 110.936 56.4696 113.083 55.1114C114.563 58.9911 116.043 62.8708 117.523 66.7505C119.788 72.57 121.964 78.3454 124.495 84.3854C135.508 111.234 143.945 138.877 154.513 165.859C154.513 165.859 154.513 166.123 154.78 166.255C153.024 166.996 151.212 167.6 149.362 168.063C146.036 168.974 142.6 169.434 139.149 169.43C127.071 144.432 117.79 118.377 108.287 92.3651C105.223 83.5918 101.981 74.9507 98.6508 66.3537ZM160.819 163.346C151.938 140.068 144.655 116.128 135.33 92.806C128.714 76.3615 122.008 60.0492 116.102 43.3842C112.552 33.3736 109.514 23.1911 106.999 12.8759C107.35 12.9568 107.714 12.9568 108.065 12.8759C113.438 10.8919 118.767 8.99621 124.317 7.45316C125.472 7.14455 126.582 8.77577 127.603 11.2006C129.442 16.5654 130.926 22.0439 132.044 27.601C136.485 43.252 142.435 58.4621 147.897 73.9808C153.048 88.6177 156.778 103.696 161.618 118.509C165.102 130.068 169.65 141.284 175.207 152.015C174.096 153.117 172.986 154.175 171.832 155.189C168.377 158.191 164.645 160.862 160.686 163.169L160.819 163.346ZM88.6595 59.2116C103.447 95.4953 114.815 133.146 131.511 168.68C126.221 167.702 121.075 166.073 116.191 163.831C116.216 163.64 116.216 163.448 116.191 163.257C111.751 154.22 107.71 145.182 103.535 136.1C90.5195 109.051 79.6225 81.0457 70.9415 52.3339C74.7604 49.4683 78.4461 46.4262 82.2206 43.5165C84.2189 48.851 86.6168 54.0093 88.6595 59.2116ZM30.9318 96.4653H31.1538C35.0172 105.988 38.6584 115.599 42.5217 125.166C46.3851 134.733 50.3816 144.168 54.911 153.426C51.4029 155.807 47.9393 158.187 44.5644 160.789C44.2671 161.007 44.0187 161.284 43.8352 161.603C43.6518 161.922 43.5372 162.275 43.4987 162.64C39.9462 152.28 37.9923 140.817 33.0633 131.162C30.3545 125.827 27.0685 120.846 24.1821 115.687C18.8534 106.87 20.4076 101.403 27.4681 97.7438C28.4895 97.4352 29.5996 96.9502 30.9318 96.4653ZM25.6475 217.97C32.5748 202.407 40.5235 187.109 46.4739 171.325C70.0978 222.511 99.7609 270.389 128.891 318.621C114.903 321.222 102.47 323.779 93.8993 308.26C87.9045 297.503 81.4658 287.319 74.6716 277.047C62.8836 257.911 48.8575 240.227 32.8857 224.362C30.4433 222.158 28.001 220.042 25.5143 217.97H25.6475ZM138.172 316.681C137.432 316.957 136.817 317.49 136.44 318.18C111.084 275.988 85.0626 234.15 62.9929 190.327C63.2424 190.373 63.4982 190.373 63.7478 190.327C64.1849 190.343 64.6199 190.26 65.0199 190.084C65.4199 189.908 65.7745 189.645 66.0569 189.313C69.5732 185.546 72.7806 181.507 75.6486 177.233C73.5262 184.507 72.523 192.058 72.6733 199.629C72.7052 200.438 73.0197 201.21 73.5626 201.813C74.1055 202.417 74.843 202.814 75.6486 202.936H76.5811C77.2559 202.819 77.8769 202.495 78.3573 202.01C79.3786 200.996 80.3556 199.982 81.3325 198.88C84.0276 195.641 86.4766 192.207 88.6595 188.608C86.7056 194.559 84.7962 200.555 83.3752 206.683C82.9311 208.711 82.5314 210.783 82.1762 212.856C82.0856 213.393 82.1142 213.944 82.2599 214.469C82.4056 214.994 82.665 215.482 83.0199 215.898C83.327 216.289 83.7271 216.599 84.1844 216.799C84.6417 216.999 85.1418 217.083 85.6399 217.044C86.4082 216.979 87.1301 216.652 87.6825 216.118C89.4039 214.545 90.993 212.834 92.434 211.004C97.6885 204.046 102.156 196.536 105.756 188.608C103.225 195.617 99.8498 202.363 97.9403 209.505C96.6989 213.799 96.2181 218.274 96.5193 222.731C96.5393 223.327 96.7236 223.907 97.0522 224.406C97.2917 224.836 97.6296 225.203 98.0384 225.479C98.4472 225.754 98.9156 225.931 99.4057 225.994C99.8981 226.052 100.397 226.008 100.872 225.864C101.346 225.72 101.784 225.479 102.159 225.156C105.124 222.697 107.738 219.849 109.93 216.691C108.159 223.324 107.871 230.261 109.086 237.015C109.187 237.656 109.507 238.242 109.993 238.675C110.478 239.109 111.099 239.363 111.751 239.396C112.406 239.453 113.065 239.341 113.664 239.071C114.264 238.8 114.782 238.381 115.17 237.853C115.703 237.104 116.191 236.31 116.724 235.516C116.28 237.148 115.925 238.735 115.569 240.366C114.528 245.255 113.933 250.228 113.793 255.223C113.786 255.716 113.888 256.204 114.093 256.653C114.297 257.102 114.599 257.501 114.976 257.821C115.354 258.141 115.797 258.374 116.276 258.504C116.755 258.635 117.256 258.658 117.745 258.574C118.424 258.476 119.042 258.13 119.477 257.604C122.365 253.983 125.062 250.215 127.559 246.318C125.408 252.957 124.314 259.888 124.317 266.862C124.333 267.671 124.643 268.447 125.19 269.047C125.737 269.646 126.484 270.029 127.293 270.125H127.781C128.336 270.133 128.882 269.989 129.36 269.709C129.838 269.429 130.229 269.024 130.49 268.538L132.311 265.231C130.815 270.998 129.981 276.914 129.824 282.866C129.813 283.519 130.003 284.16 130.368 284.703C130.733 285.246 131.255 285.667 131.866 285.908C132.161 285.954 132.46 285.954 132.755 285.908C133.251 285.976 133.756 285.932 134.233 285.78C134.709 285.627 135.145 285.369 135.508 285.026C136.529 284.1 137.506 283.086 138.439 282.072C140.768 279.575 142.905 276.908 144.833 274.093C145.632 272.991 146.387 271.844 147.098 270.698C143.076 279.263 139.678 288.103 136.929 297.15C136.803 297.629 136.786 298.13 136.879 298.616C136.971 299.103 137.171 299.563 137.464 299.963C137.757 300.364 138.136 300.695 138.573 300.932C139.01 301.17 139.495 301.309 139.993 301.339C140.36 301.403 140.736 301.403 141.103 301.339C141.506 301.242 141.883 301.057 142.205 300.798C142.528 300.538 142.788 300.211 142.968 299.84C145.099 296.004 147.408 292.169 149.496 288.377C152.782 282.646 156.156 276.958 159.709 271.447C154.917 280.795 151.379 290.726 149.185 300.986C149.019 301.811 149.144 302.667 149.54 303.411C149.806 303.881 150.184 304.279 150.64 304.571C151.097 304.863 151.619 305.04 152.16 305.086C152.768 305.119 153.375 304.994 153.92 304.724C154.465 304.453 154.93 304.046 155.268 303.543C162.862 293.006 169.167 281.499 176.583 270.962L174.718 274.754C170.005 283.493 166.992 293.035 165.837 302.882C165.79 303.115 165.79 303.354 165.837 303.587C165.915 304.134 166.163 304.643 166.547 305.042C157.267 309.098 147.675 312.978 138.039 316.681H138.172ZM190.171 296.974C184.798 298.737 179.47 300.633 174.141 302.617C181.557 293.227 188.04 283.175 195.189 273.564C192.592 280.086 190.543 286.81 189.061 293.667C188.921 294.255 188.938 294.869 189.109 295.449C189.28 296.029 189.6 296.554 190.038 296.974H190.171ZM198.697 294.373L195.855 295.255C199.941 289.744 203.76 284.056 207.667 278.413C207.667 279.78 207.268 281.103 207.09 282.469C206.557 286.129 211.531 286.525 213.262 284.189L214.55 282.425C214.529 282.601 214.529 282.779 214.55 282.954C214.696 283.516 214.987 284.029 215.396 284.443C215.804 284.858 216.315 285.158 216.878 285.314C217.44 285.471 218.034 285.477 218.599 285.334C219.165 285.191 219.683 284.902 220.101 284.497C221.256 283.527 222.321 282.469 223.387 281.411C224.248 282.938 224.863 284.589 225.208 286.305C225.344 286.585 225.508 286.85 225.696 287.098C216.637 289.523 207.579 291.772 198.564 294.417L198.697 294.373ZM237.552 88.4854C249.009 86.1929 245.279 117.671 245.235 122.785C245.804 145.345 247.821 167.846 251.274 190.151C252.961 204.17 255.359 218.102 257.135 232.122C257.757 237.324 264.64 270.61 258.956 274.666C258.321 275.122 257.853 275.773 257.624 276.518C249.237 279.999 240.634 282.944 231.869 285.335C231.89 285.1 231.89 284.864 231.869 284.63C230.813 280.976 229.131 277.531 226.895 274.445C226.635 274.011 226.28 273.641 225.856 273.362C225.433 273.084 224.951 272.904 224.447 272.836C223.943 272.768 223.43 272.814 222.947 272.971C222.463 273.127 222.022 273.39 221.655 273.74C221.122 274.357 220.501 274.974 219.923 275.592C219.701 274.886 219.524 274.181 219.257 273.52C219.013 272.732 218.495 272.056 217.795 271.613C217.096 271.169 216.261 270.985 215.438 271.095C215.749 269.199 216.016 267.259 216.282 265.363C216.815 261.66 211.841 261.352 210.11 263.644C207.134 267.612 204.292 271.668 201.495 275.768C203.533 270.55 205.108 265.166 206.202 259.676C206.69 256.722 203.094 253.724 200.651 256.458C191.785 267.019 183.513 278.057 175.873 289.523C180.313 276.562 188.306 264.702 192.836 251.741C193.011 251.048 192.955 250.318 192.677 249.659C192.4 249.001 191.915 248.449 191.295 248.087C190.675 247.724 189.954 247.571 189.239 247.65C188.524 247.728 187.854 248.034 187.329 248.522C184.955 250.769 182.702 253.138 180.58 255.62C174.379 263.091 168.739 271.004 163.705 279.295C168.146 269.552 173.297 260.205 178.004 250.55C179.603 247.332 181.113 244.113 182.445 240.807C183.777 237.5 179.026 235.164 176.938 237.588C170.398 245.276 164.305 253.328 158.688 261.704C164.946 249.033 169.814 235.73 173.208 222.026C173.364 221.445 173.355 220.834 173.182 220.258C173.01 219.682 172.681 219.165 172.231 218.763C171.678 218.277 170.972 217.997 170.233 217.97C169.63 217.94 169.029 218.062 168.486 218.324C167.943 218.586 167.474 218.98 167.125 219.469C162.632 225.722 158.793 232.413 155.668 239.44C150.206 251.123 145.455 263.247 137.639 273.299C141.014 252.049 153.27 233.003 158.599 212.15C158.717 211.674 158.728 211.178 158.632 210.697C158.536 210.216 158.334 209.762 158.042 209.367C157.75 208.972 157.374 208.645 156.941 208.41C156.508 208.175 156.028 208.037 155.535 208.006C155.159 207.955 154.777 207.98 154.411 208.079C154.045 208.177 153.702 208.347 153.403 208.579C153.043 208.844 152.753 209.192 152.56 209.593C148.119 217.044 144.566 224.803 141.014 232.607C138.838 237.015 136.573 241.953 134.531 246.582C136.964 239.323 139.826 232.213 143.101 225.288C145.366 220.218 147.542 215.192 149.54 210.078C151.109 206.04 152.399 201.901 153.403 197.69C153.534 197.194 153.555 196.676 153.465 196.172C153.374 195.668 153.174 195.19 152.878 194.77C152.582 194.351 152.198 194 151.752 193.743C151.306 193.486 150.809 193.328 150.295 193.281C149.691 193.219 149.083 193.347 148.557 193.648C148.03 193.948 147.613 194.406 147.364 194.956C141.058 206.992 135.552 219.557 128.98 231.46C126.804 235.472 124.539 239.352 122.008 243.143C124.397 232.22 127.786 221.536 132.133 211.224C134.131 205.978 136.085 200.732 137.772 195.397C137.939 194.901 137.986 194.373 137.91 193.855C137.834 193.337 137.638 192.845 137.335 192.416C137.033 191.988 136.634 191.635 136.17 191.387C135.707 191.139 135.191 191.003 134.664 190.988C134.059 190.919 133.447 191.04 132.914 191.332C132.381 191.624 131.952 192.074 131.689 192.62C127.603 200.82 123.873 209.196 119.655 217.352C118.278 220.042 116.813 222.731 115.214 225.376C115.214 223.569 115.614 221.805 115.925 219.998C118.278 207.433 124.806 195.088 127.026 182.832C127.131 182.305 127.105 181.761 126.95 181.246C126.795 180.731 126.517 180.262 126.138 179.878C125.876 179.539 125.549 179.256 125.175 179.044C124.802 178.832 124.389 178.696 123.962 178.644C123.358 178.582 122.749 178.705 122.217 178.996C121.685 179.288 121.256 179.734 120.987 180.275C117.949 185.802 115.236 191.499 112.861 197.337C110.602 203.15 107.618 208.66 103.979 213.737C105.534 204.567 110.108 196.102 113.172 187.285C115.197 181.963 116.192 176.309 116.102 170.62C116.129 170.519 116.129 170.413 116.102 170.311C122.438 172.872 129.133 174.448 135.952 174.985C136.29 175.042 136.635 175.042 136.973 174.985C137.327 175.027 137.685 175.027 138.039 174.985C141.226 175.053 144.411 174.787 147.542 174.191C152.406 173.223 157.133 171.668 161.618 169.562C175.036 162.887 186.082 152.305 193.28 139.23C193.681 138.975 194.01 138.622 194.235 138.205C194.46 137.789 194.575 137.322 194.568 136.849C200.762 125.036 203.818 111.85 203.449 98.5374C203.963 98.4062 204.438 98.1532 204.832 97.8C205.227 97.4468 205.529 97.0039 205.713 96.5093H206.557C216.692 93.2874 226.994 90.6088 237.419 88.4854H237.552ZM195.234 50.1737C201.983 48.7629 209.488 45.4563 212.996 52.9952C217.437 63.2235 220.057 74.4217 223.92 84.9585C217.57 86.6338 211.264 88.5736 204.914 90.5575H204.603C201.317 77.3314 198.298 63.488 194.568 49.9973C194.785 50.072 195.008 50.131 195.234 50.1737ZM154.78 21.0761C158.288 20.0621 161.796 19.0481 165.348 18.1663C166.895 17.752 168.502 17.6029 170.1 17.7255C177.782 18.4749 180.18 27.0719 181.779 34.2582C182.223 36.2421 182.622 38.1379 183.022 39.725C187.463 57.0954 193.102 74.2453 197.765 91.6157C197.274 91.8688 196.877 92.2695 196.63 92.7605C196.382 93.2515 196.298 93.8075 196.388 94.349C197.455 105.579 195.748 116.899 191.415 127.326C186.667 109.05 180.945 91.0374 174.274 73.3635L173.12 70.6742C171.525 66.0201 168.207 62.1426 163.839 59.8288C163.882 59.5808 163.882 59.3273 163.839 59.0793C163.883 58.8314 163.883 58.5777 163.839 58.3298C161.352 49.0274 158.599 39.8573 156.556 30.5108C155.846 27.4687 155.268 24.3386 154.78 21.0761Z" fill="#FCFCFC"/>
</svg>
