<svg width="478" height="333" viewBox="0 0 478 333" fill="none" xmlns="http://www.w3.org/2000/svg">
<path d="M463.72 245.192C448.426 238.269 427.901 244.414 411.655 241.38C388.048 236.562 366.588 222.332 346.73 208.906C347.882 208.354 348.957 207.656 349.929 206.83C357.962 200.038 354.064 190.611 346.646 185.211C339.229 179.811 327.648 181.914 319.923 178.955C309.679 174.839 304.391 157.88 299.188 149.201C286.557 128.551 271.789 113.319 267.574 88.4002C265.77 71.9036 260.556 55.9546 252.26 41.5578C241.627 24.7242 221.784 14.2445 204.219 6.98605C186.198 0.00173248 166.56 -1.74374 147.591 1.95278C125.882 4.57696 103.925 4.45964 82.2405 1.60365C64.239 -0.000278655 51.1273 7.85917 39.8977 21.2102C26.7895 36.8079 7.04239 52.5398 2.07162 72.9997C-5.97709 106.081 25.7898 143.52 45.2527 166.524C57.427 181.521 72.2417 194.184 88.9708 203.893C105.257 212.879 125.74 210.119 143.2 207.75C166.978 203.576 191.478 206.908 213.275 217.28C235.074 227.651 253.862 240.93 277.944 246.844C289.739 249.807 305.749 252.508 315.885 244.541C317.573 243.144 318.851 241.319 319.584 239.258C341.187 251.993 365.728 261.339 385.582 276.362C402.503 289.122 398.769 310.01 411.076 324.874C420.075 335.81 430.444 334.257 441.736 327.407C453.028 320.558 449.852 307.767 447.137 296.381C442.279 276.164 470.268 284.257 476.146 270.172C480.613 259.799 473.051 249.384 463.72 245.192ZM179.179 198.616C178.857 198.886 178.592 199.218 178.403 199.592C174.285 199.222 170.149 199.103 166.017 199.236C172.637 197.892 179.167 196.135 185.565 193.975C183.346 195.394 181.214 196.944 179.179 198.616ZM315.9 205.661C315.463 205.648 315.028 205.725 314.622 205.888C314.216 206.051 313.849 206.295 313.543 206.606C313.237 206.918 312.999 207.289 312.844 207.696C312.689 208.104 312.62 208.539 312.642 208.974C312.852 215.637 313.675 222.27 313.945 228.924C314.634 247.677 291.37 242.684 279.884 240.535C258.74 236.514 240.428 224.332 221.803 214.161C213.036 209.244 203.734 205.34 194.078 202.527C205.512 199.78 216.685 196.053 227.471 191.386C222.401 194.896 218.266 199.583 215.425 205.043C215.148 205.573 215.013 206.165 215.034 206.761C215.055 207.358 215.231 207.94 215.544 208.449C215.857 208.959 216.297 209.379 216.822 209.669C217.346 209.959 217.937 210.109 218.536 210.105C238.746 207.57 256.502 196.19 275.865 191.326C264.051 197.578 252.508 204.404 248.626 217.822C248.5 218.331 248.494 218.862 248.608 219.374C248.722 219.886 248.953 220.365 249.284 220.774C249.615 221.182 250.036 221.509 250.514 221.729C250.992 221.948 251.515 222.055 252.041 222.04C259.537 221.846 266.914 220.135 273.722 217.012C272.1 219.07 270.764 221.335 269.751 223.749C269.441 224.347 269.313 225.022 269.383 225.691C269.452 226.361 269.716 226.996 270.142 227.519C270.568 228.042 271.138 228.429 271.782 228.635C272.426 228.84 273.115 228.854 273.767 228.675C281.004 226.842 288.056 224.346 294.833 221.222C293.299 223.646 291.589 225.955 289.716 228.13C287.036 231.602 292.008 236.324 294.627 232.861C298.544 228.081 302.017 222.956 305.004 217.549C305.313 216.951 305.441 216.276 305.372 215.607C305.302 214.937 305.038 214.302 304.612 213.779C304.186 213.257 303.616 212.869 302.972 212.663C302.329 212.458 301.639 212.444 300.988 212.623C293.926 214.39 287.048 216.818 280.446 219.875C284.297 215.183 289.258 211.308 293.446 206.812C294.178 206.246 294.654 205.414 294.769 204.498C294.884 203.582 294.63 202.658 294.061 201.929C293.492 201.2 292.656 200.725 291.737 200.609C290.817 200.493 289.89 200.746 289.158 201.312C279.482 207.605 268.733 212.087 257.438 214.537C264.537 201.19 283.061 196.083 294.889 188.293C295.525 187.9 296.013 187.309 296.279 186.612C296.545 185.915 296.573 185.15 296.359 184.435C296.146 183.72 295.702 183.094 295.096 182.655C294.491 182.215 293.757 181.986 293.009 182.002C268.759 181.887 248.769 196.427 225.892 201.695C235.586 190.416 253.067 185.342 265.55 178.621C269.259 176.653 266.313 171.873 262.765 172.466C240.058 176.419 219.912 188.709 197.91 194.461C213.919 186.597 232.206 183.183 247.474 173.281C248.184 172.85 248.711 172.175 248.957 171.384C249.202 170.592 249.149 169.739 248.807 168.983C248.465 168.227 247.858 167.622 247.1 167.28C246.342 166.938 245.485 166.883 244.69 167.126C214.017 173.439 185.908 190.546 154.728 193.924C175.03 178.601 202.051 173.818 223.61 160.271C224.247 159.874 224.734 159.279 224.996 158.577C225.258 157.876 225.28 157.107 225.059 156.391C224.838 155.676 224.386 155.052 223.773 154.618C223.16 154.184 222.421 153.963 221.669 153.99C204.647 153.959 189.104 160.832 173.995 168.13C160.098 174.879 143.67 187.289 127.556 190.807C148.769 172.951 178.17 167.198 202.147 154.149C205.856 152.181 202.851 147.411 199.363 147.994C169.3 153.048 141.638 167.816 111.428 170.681C131.657 156.904 161.533 159.555 177.547 138.731C177.989 138.233 178.277 137.617 178.376 136.959C178.476 136.302 178.383 135.629 178.109 135.022C177.834 134.415 177.39 133.899 176.83 133.537C176.269 133.175 175.615 132.981 174.947 132.979C161.556 133.632 148.299 135.927 135.474 139.81C121.821 143.697 105.713 152.128 90.8074 152.64C103.669 142.73 119.685 137.752 132.51 127.602C135.098 125.556 132.525 122.011 129.91 121.849C111.726 121.071 95.9464 131.664 78.4828 133.603C90.8077 123.405 109.755 121.489 122.096 110.183C122.538 109.684 122.826 109.069 122.926 108.411C123.025 107.753 122.932 107.08 122.658 106.473C122.384 105.866 121.94 105.35 121.379 104.988C120.818 104.626 120.165 104.432 119.496 104.43C97.3836 106.205 76.5026 119.343 54.2808 118.371C62.5441 110.255 74.427 106.08 82.4547 97.631C82.9253 97.142 83.2384 96.5239 83.3537 95.8562C83.469 95.1884 83.3813 94.5014 83.1019 93.8832C82.8225 93.265 82.3643 92.7438 81.7857 92.3866C81.2072 92.0295 80.5346 91.8525 79.8547 91.8784C68.3233 92.6838 56.8567 97.1645 45.3405 95.6336L47.4407 92.0025C49.9901 88.4885 43.944 85.2172 41.3855 88.6713C39.2892 91.1748 37.7365 94.0841 36.8252 97.2157C36.6302 98.0932 36.7858 99.0121 37.2588 99.778C37.7319 100.544 38.4853 101.097 39.3598 101.32C49.0814 103.256 59.1217 102.888 68.6704 100.248C60.13 106.133 50.7078 110.676 44.5197 119.464C44.2791 119.927 44.1466 120.438 44.1321 120.959C44.1176 121.48 44.2215 121.998 44.436 122.474C44.6505 122.95 44.9702 123.371 45.371 123.707C45.7718 124.042 46.2434 124.283 46.7508 124.412C66.4728 127.601 84.3746 119.209 102.986 114.272C90.3154 120.162 76.4175 123.655 67.5742 135.666C65.8252 137.955 68.3217 140.591 70.6765 140.668C87.1126 141.708 101.538 133.161 117.137 129.904C104.444 137.271 90.4995 142.491 79.9209 153.226C79.4424 153.652 79.0942 154.203 78.9163 154.818C78.7383 155.432 78.7377 156.084 78.9147 156.698C79.0917 157.313 79.4392 157.866 79.9171 158.293C80.3949 158.72 80.984 159.005 81.6166 159.114C94.2671 161.212 105.279 156.984 116.939 152.966C132.821 146.974 149.329 142.772 166.153 140.437C147.116 155.572 116.758 152.993 99.6352 172.201C99.1657 172.686 98.8515 173.299 98.7327 173.963C98.6139 174.626 98.6958 175.31 98.968 175.927C99.2401 176.545 99.6902 177.068 100.261 177.43C100.832 177.793 101.498 177.978 102.175 177.963C119.515 177.287 136.645 173.956 152.963 168.086C138.898 173.573 126.175 181.991 115.646 192.774C115.204 193.273 114.916 193.888 114.817 194.546C114.717 195.204 114.81 195.877 115.084 196.484C115.359 197.091 115.803 197.606 116.364 197.969C116.924 198.331 117.578 198.525 118.246 198.527C131.341 199.084 143.287 192.075 154.54 185.784C150.185 188.633 146.117 191.896 142.393 195.526C142.01 195.917 141.73 196.396 141.577 196.92C141.423 197.445 141.402 197.999 141.513 198.533C141.625 199.068 141.867 199.568 142.217 199.989C142.568 200.409 143.016 200.738 143.524 200.945C136.892 201.938 130.275 202.622 123.51 203.144C80.806 206.16 49.8969 165.031 28.3792 133.366C17.3932 118.561 10.497 101.147 8.37902 82.865C7.24635 68.9082 16.2483 58.3475 25.5622 49.0298C34.8762 39.7122 41.269 30.6477 48.8073 21.4116C64.4867 2.84931 85.4611 9.41302 105.923 11.3855C124.073 13.1516 140.859 9.59406 158.82 7.27334C201.849 1.93602 247 30.0616 257.505 72.0349C261.089 86.3002 261.026 101.726 268.034 114.987C276.726 131.62 289.801 145.447 298.725 161.984C303.989 171.883 309.645 184.364 322.007 186.996C325.038 187.772 328.129 188.296 331.247 188.561L335.58 189.079C343.401 189.014 344.209 193.929 338.116 203.747C331.661 204.345 325.16 204.269 318.72 203.519C318.027 203.425 317.324 203.598 316.755 204.003C316.186 204.407 315.794 205.013 315.659 205.697L315.9 205.661ZM171.558 176.848C181.496 171.387 191.991 166.995 202.865 163.746C192.279 168.341 181.523 172.224 171.317 176.884L171.558 176.848ZM462.114 273.194C454.721 274.854 444.419 275.229 441.36 283.918C437.358 295.327 447.932 310.142 440.648 319.832C428.074 336.516 414.695 320.278 410.354 308.337C407.909 301.579 406.619 294.709 403.702 288.082C398.622 276.559 387.765 269.217 377.341 263.101C358.918 252.224 339.368 243.666 321.02 232.471C320.991 225.072 320.446 217.684 319.389 210.359C325.563 211.041 331.779 211.259 337.986 211.014C338.202 211.307 338.47 211.558 338.777 211.755C365.503 229.803 393.226 247.517 426.138 250.267C433.135 250.344 440.13 250.055 447.095 249.401C450.626 249.325 454.154 249.663 457.606 250.407C467.745 252.206 473.372 270.587 462.114 273.194Z" fill="#FCFCFC"/>
</svg>
