<svg width="426" height="496" viewBox="0 0 426 496" fill="none" xmlns="http://www.w3.org/2000/svg">
<path d="M418.903 495.89C422.066 496.517 426.425 494.426 425.933 490.591C423.964 474.624 415.458 461.307 411.1 445.899C404.984 424.494 402.875 401.764 397.954 380.08C386.143 328.555 371.029 277.797 355.774 227.038C340.519 176.28 321.398 129.426 303.753 80.6203C294.825 56.0779 290.466 17.8697 263.472 5.9471C235.352 -6.74247 188.392 3.08849 161.538 14.8019C126.71 31.2475 95.3964 54.1848 69.3054 82.3634C24.6655 127.823 -13.4366 199.219 4.55996 264.48C4.81532 265.73 5.55429 266.832 6.61862 267.549C7.68296 268.265 8.98802 268.54 10.2542 268.314C12.1752 269.939 14.4302 271.129 16.8623 271.8C77.3195 318.933 141.292 357.908 204.631 400.788C271.345 445.62 338.551 481.318 418.903 495.89ZM15.5266 256.392C15.151 256.101 14.7209 255.888 14.2612 255.764C0.201424 192.038 41.0452 127.404 83.5761 84.1065C105.924 60.9426 132.071 41.7052 160.905 27.2126C188.252 13.8258 236.898 2.46099 263.401 21.2164C262.654 23.0579 261.531 24.7266 260.104 26.1182C258.677 27.5098 256.975 28.5945 255.106 29.3043C254.513 29.586 253.992 29.9949 253.578 30.5014C253.165 31.0079 252.87 31.5993 252.716 32.2327C222.276 41.9242 188.462 41.4361 159.569 55.2412C126.639 72.041 97.3376 95.0629 73.3125 123.012C53.3475 144.905 46.6691 171.818 40.2719 200.056C38.8659 206.122 27.6884 255.834 19.1822 259.46C18.1277 258.414 16.792 257.438 15.5266 256.392ZM29.5865 267.338C44.1384 252.139 50.6761 205.355 53.2772 194.548C64.3845 145.742 93.7695 112.275 133.84 82.9909C172.786 54.4045 218.972 57.1934 262.347 41.1572C263.337 40.7775 264.203 40.1339 264.848 39.2973C265.493 38.4607 265.892 37.4636 266.002 36.4161C268.526 34.5181 270.651 32.1497 272.259 29.4438C274.93 32.8964 277.063 36.7273 278.586 40.8086C305.651 113.181 332.576 185.972 354.228 260.226C366.108 300.945 377.426 341.802 387.198 383.148C391.697 402.113 394.72 421.147 398.376 440.251C401.187 454.963 409.764 469.186 413.42 483.619C341.855 469.116 278.234 437.671 218.269 396.604C154.859 353.028 90.2546 314.331 29.5161 267.338L29.5865 267.338Z" fill="#FCFCFC"/>
<path d="M207.705 277.551C209.11 284.561 211.235 291.412 214.046 297.998C218.274 306.413 225.53 317.332 236.38 317.958C257.094 319.141 276.257 295.007 269.775 274.629C266.3 265.559 259.852 257.897 251.457 252.861C230.321 236.378 251.457 235.543 263.787 233.526C285.768 229.91 282.034 204.733 271.959 191.797C241.453 153.267 159.233 183.312 146.622 224.833C139.999 246.462 145.636 273.517 167.054 285.131C185.512 295.007 197.701 278.176 196.644 261.485C196.608 260.758 196.416 260.047 196.081 259.398C203.83 262.25 204.253 264.823 207.705 277.551ZM180.369 266.562C168.956 275.835 161.464 272.821 157.895 257.52C154.957 249.692 154.346 241.199 156.133 233.039C159.662 220.503 167.769 209.701 178.89 202.716C199.533 187.415 232.505 180.808 255.825 193.188C267.99 198.984 269.728 208.836 261.039 222.746C256.4 223.646 251.673 224.019 246.948 223.859C242.384 223.778 237.93 225.252 234.337 228.032C227.292 234.987 231.801 247.784 237.437 254.252C242.548 259.574 248.085 264.481 253.994 268.926C271.537 283.949 243.144 320.253 226.587 298.137C222.488 290.866 219.743 282.927 218.485 274.699C214.258 258.077 207.212 243.194 190.303 236.795C188.278 235.959 186.099 235.545 183.904 235.579C181.709 235.614 179.545 236.096 177.547 236.996C175.55 237.896 173.763 239.194 172.298 240.808C170.833 242.423 169.723 244.319 169.036 246.377C168.349 248.436 168.1 250.612 168.306 252.77C168.512 254.928 169.168 257.02 170.232 258.915C171.297 260.811 172.747 262.469 174.491 263.785C176.236 265.1 178.237 266.046 180.369 266.562Z" fill="#FCFCFC"/>
<path d="M364.9 369.529C344.87 312.044 259.971 320.167 233.264 365.988C233.07 366.409 232.929 366.852 232.843 367.307C232.287 368.066 231.907 368.936 231.73 369.857C231.552 370.777 231.582 371.724 231.817 372.632C232.051 373.54 232.485 374.385 233.088 375.109C233.69 375.832 234.446 376.416 235.303 376.818C259.128 386.607 277.471 404.588 297.431 419.515C309.519 428.61 326.738 444.994 342.973 443.953C372.28 442.217 371.296 387.788 364.9 369.529ZM309.097 414.447C296.166 405.352 284.429 395.216 272.059 386.052C272.988 384.535 274.072 383.116 275.292 381.817C275.907 381.21 276.352 380.456 276.586 379.629C276.82 378.802 276.834 377.93 276.628 377.096C286.959 361.614 306.919 361.545 322.732 370.778C332.29 376.332 340.935 385.913 332.782 396.049C326.366 402.792 319.305 408.907 311.698 414.308C311.283 414.694 310.928 415.139 310.644 415.627L309.097 414.447ZM320.272 421.806C329.69 414.1 341.356 406.671 346.276 395.147C351.828 382.025 341.427 370.987 331.658 363.489C310.573 347.104 277.401 350.09 264.891 375.083C264.511 375.862 264.319 376.717 264.329 377.582L262.923 379.595C257.114 375.639 251.031 372.09 244.72 368.973C270.443 329.887 338.826 328.429 355.694 376.888C358.706 388.646 358.512 400.982 355.131 412.642C350.563 436.038 334.117 430.276 320.272 421.875L320.272 421.806Z" fill="#FCFCFC"/>
<path d="M191.409 124.06C191.336 125.007 191.53 125.955 191.971 126.796C200.461 144.832 219.195 159.428 239.824 150.095C258.558 141.674 262.558 120.13 252.243 103.358C234.491 74.5858 186.007 85.6735 190.638 121.744C190.712 122.565 190.977 123.358 191.409 124.06ZM238.07 104.06C240.68 105.984 242.82 108.474 244.331 111.344C245.841 114.214 246.681 117.389 246.789 120.63C246.897 123.871 246.27 127.095 244.954 130.059C243.639 133.023 241.669 135.65 239.192 137.744C223.686 149.393 208.319 135.007 201.794 121.533C199.198 99.849 221.932 91.0771 238.07 104.06Z" fill="#FCFCFC"/>
<path d="M173.642 131.095C171.808 126.335 168.137 122.417 163.375 120.136C158.613 117.854 153.116 117.381 148 118.811C142.884 120.241 138.532 123.468 135.828 127.837C133.123 132.206 132.269 137.389 133.438 142.335C133.282 142.961 133.265 143.612 133.388 144.246C133.512 144.879 133.773 145.481 134.155 146.013C136.733 150.719 140.993 154.396 146.17 156.381C151.346 158.367 157.098 158.531 162.39 156.844C164.91 155.859 167.201 154.41 169.131 152.582C171.061 150.754 172.593 148.581 173.638 146.189C174.683 143.797 175.221 141.233 175.222 138.642C175.223 136.052 174.686 133.487 173.642 131.095ZM144.976 141.449C145.01 141.064 145.01 140.676 144.976 140.291C144.324 137.972 144.652 135.503 145.889 133.41C147.127 131.318 149.175 129.769 151.599 129.093C154.022 128.417 156.627 128.668 158.857 129.793C161.088 130.918 162.767 132.828 163.537 135.114C164.038 136.164 164.315 137.298 164.351 138.451C164.388 139.603 164.184 140.751 163.75 141.828C163.317 142.905 162.664 143.89 161.827 144.725C160.991 145.56 159.989 146.23 158.879 146.694C156.282 147.504 153.469 147.423 150.928 146.464C148.388 145.506 146.282 143.731 144.976 141.449Z" fill="#FCFCFC"/>
<path d="M117.906 266.525C120.594 261.791 121.723 256.35 121.135 250.955C121.767 239.953 122.048 228.673 121.697 217.671C121.706 216.944 121.57 216.222 121.296 215.547C121.023 214.872 120.617 214.257 120.102 213.736C119.587 213.216 118.973 212.8 118.295 212.514C117.617 212.227 116.888 212.075 116.151 212.066C101.503 211.655 86.8658 213.167 72.6235 216.564C71.9042 216.763 71.2318 217.101 70.6448 217.557C70.0578 218.012 69.5678 218.578 69.2026 219.221C68.8375 219.863 68.6044 220.57 68.5168 221.302C68.4292 222.033 68.4887 222.775 68.692 223.484C70.7981 238.015 71.079 252.685 73.6064 267.078C73.7316 267.918 74.0848 268.708 74.6286 269.366C75.1724 270.024 75.8865 270.524 76.6954 270.815C76.9924 271.862 77.6755 272.761 78.6106 273.337C79.5457 273.913 80.6654 274.124 81.7501 273.929C92.9128 272.407 110.113 276.212 117.906 266.525ZM84.2073 262.511C82.1714 250.471 81.5395 238.361 80.2056 226.321C90.212 224.312 100.393 223.269 110.604 223.207C110.604 234.278 110.183 245.35 109.762 256.353C109.411 264.172 92.1405 262.442 84.2073 262.511Z" fill="#FCFCFC"/>
<path d="M294.07 252.422C291.887 256.788 290.342 261.439 289.48 266.237C287.183 273.22 285.371 280.352 284.056 287.581C283.925 288.287 283.966 289.013 284.176 289.7C284.386 290.386 284.758 291.013 285.262 291.527C285.766 292.041 286.387 292.428 287.072 292.655C287.758 292.881 288.488 292.942 289.202 292.83C289.601 293.291 290.071 293.687 290.593 294.005C297.547 297.804 304.501 301.81 311.455 305.264C312.191 305.684 313.014 305.932 313.861 305.988C314.708 306.044 315.556 305.907 316.341 305.587C317.127 305.267 317.828 304.772 318.391 304.142C318.954 303.511 319.365 302.761 319.591 301.948C321.026 294.578 323.097 287.345 325.781 280.328C327.658 275.769 331.135 272.316 332.735 267.688C336.49 258.086 321.33 253.044 315.141 251.041C308.952 249.038 298.659 244.686 294.07 252.422ZM312.707 261.333C315.557 262.168 318.327 263.255 320.982 264.579C323.138 265.685 318.548 270.451 317.714 271.487C314.083 277.74 311.72 284.639 310.76 291.794L296.295 283.92C296.181 283.887 296.061 283.887 295.947 283.92C297.408 276.46 300.189 269.138 302.206 261.955C302.693 260.159 302.206 258.708 303.806 258.777C306.879 259.21 309.875 260.071 312.707 261.333Z" fill="#FCFCFC"/>
<path d="M202.299 318.326C189.819 297.379 155.463 315.253 166.19 337.178C166.19 337.178 166.611 337.667 166.821 337.946C166.821 339.025 167.165 340.076 167.803 340.948C170.714 345.877 175.406 349.512 180.919 351.109C186.433 352.705 192.351 352.143 197.461 349.537C208.89 343.253 208.119 328.101 202.299 318.326ZM177.409 335.293C177.115 334.871 176.761 334.495 176.357 334.176C176.401 333.258 176.208 332.344 175.796 331.522C175.12 329.635 175.177 327.565 175.955 325.718C176.734 323.87 178.177 322.379 180.003 321.538C181.865 320.259 184.137 319.715 186.379 320.012C188.62 320.309 190.671 321.425 192.133 323.143C195.638 327.054 197.321 335.712 192.624 339.343C191.365 340.098 189.965 340.594 188.51 340.799C187.054 341.004 185.572 340.915 184.152 340.537C182.732 340.159 181.403 339.5 180.244 338.599C179.085 337.698 178.121 336.573 177.409 335.293Z" fill="#FCFCFC"/>
</svg>
