<svg width="494" height="442" viewBox="0 0 494 442" fill="none" xmlns="http://www.w3.org/2000/svg">
<path d="M470.837 297.019C455.65 290.096 435.268 296.24 419.136 293.207C395.693 288.388 374.383 274.158 354.663 260.733C355.807 260.181 356.874 259.483 357.84 258.657C365.817 251.865 361.946 242.438 354.58 237.038C347.214 231.638 335.714 233.74 328.043 230.782C317.87 226.665 312.619 209.707 307.453 201.027C294.91 180.378 280.245 165.146 276.059 140.227C274.268 123.73 269.09 107.781 260.853 93.3846C250.293 76.551 230.589 66.0713 213.146 58.8128C195.251 51.8285 175.75 50.0831 156.913 53.7796C135.356 56.4038 113.552 56.2864 92.0185 53.4305C74.1425 51.8265 61.1223 59.686 49.971 73.037C36.9542 88.6347 17.3448 104.367 12.4087 124.826C4.41619 157.908 35.9615 195.347 55.2886 218.351C67.378 233.348 82.0894 246.011 98.7018 255.72C114.874 264.705 135.215 261.945 152.553 259.577C176.165 255.403 200.494 258.735 222.139 269.107C243.786 279.478 262.442 292.757 286.357 298.671C298.07 301.634 313.968 304.335 324.033 296.368C325.71 294.971 326.979 293.146 327.706 291.085C349.159 303.819 373.529 313.166 393.245 328.189C410.047 340.948 406.339 361.837 418.561 376.7C427.496 387.637 437.794 386.084 449.007 379.234C460.22 372.384 457.066 359.593 454.37 348.207C449.546 327.991 477.34 336.084 483.176 321.999C487.612 311.626 480.103 301.211 470.837 297.019ZM188.281 250.443C187.961 250.713 187.698 251.045 187.51 251.419C183.421 251.049 179.313 250.93 175.21 251.063C181.785 249.718 188.268 247.961 194.623 245.802C192.419 247.221 190.301 248.771 188.281 250.443ZM324.049 257.487C323.614 257.474 323.182 257.552 322.779 257.715C322.376 257.877 322.011 258.122 321.707 258.433C321.403 258.744 321.167 259.115 321.013 259.523C320.859 259.93 320.791 260.365 320.813 260.801C321.022 267.464 321.838 274.097 322.107 280.751C322.791 299.503 299.69 294.511 288.283 292.361C267.287 288.341 249.102 276.158 230.608 265.988C221.902 261.07 212.665 257.167 203.076 254.354C214.43 251.607 225.525 247.879 236.236 243.212C231.201 246.722 227.096 251.41 224.274 256.87C223.999 257.399 223.865 257.991 223.886 258.588C223.907 259.185 224.081 259.766 224.392 260.276C224.703 260.785 225.14 261.206 225.661 261.496C226.182 261.786 226.768 261.936 227.364 261.932C247.432 259.397 265.065 248.017 284.292 243.152C272.56 249.405 261.099 256.231 257.244 269.649C257.119 270.158 257.112 270.689 257.226 271.201C257.339 271.713 257.569 272.192 257.897 272.601C258.225 273.009 258.643 273.336 259.118 273.555C259.593 273.775 260.112 273.882 260.635 273.867C268.079 273.672 275.404 271.962 282.165 268.839C280.554 270.896 279.227 273.162 278.221 275.576C277.913 276.174 277.786 276.849 277.855 277.518C277.924 278.188 278.186 278.823 278.61 279.346C279.033 279.868 279.599 280.256 280.238 280.462C280.877 280.667 281.562 280.681 282.209 280.502C289.396 278.668 296.399 276.173 303.128 273.049C301.605 275.473 299.907 277.782 298.046 279.957C295.386 283.429 300.323 288.151 302.923 284.688C306.813 279.908 310.263 274.783 313.228 269.376C313.535 268.778 313.663 268.103 313.593 267.434C313.524 266.764 313.262 266.129 312.839 265.606C312.416 265.083 311.85 264.696 311.211 264.49C310.572 264.285 309.887 264.271 309.24 264.45C302.227 266.216 295.397 268.645 288.842 271.702C292.665 267.01 297.592 263.135 301.751 258.638C302.477 258.073 302.95 257.241 303.065 256.325C303.179 255.409 302.926 254.485 302.362 253.756C301.797 253.026 300.967 252.552 300.054 252.436C299.141 252.32 298.219 252.573 297.493 253.139C287.884 259.432 277.21 263.914 265.994 266.364C273.044 253.017 291.438 247.91 303.183 240.12C303.815 239.727 304.3 239.136 304.564 238.439C304.828 237.742 304.856 236.977 304.644 236.262C304.432 235.547 303.991 234.921 303.39 234.482C302.788 234.042 302.06 233.813 301.316 233.829C277.236 233.714 257.385 248.254 234.668 253.522C244.294 242.243 261.653 237.169 274.049 230.448C277.732 228.48 274.808 223.7 271.284 224.293C248.736 228.245 228.73 240.536 206.881 246.287C222.778 238.424 240.938 235.01 256.1 225.108C256.805 224.677 257.328 224.002 257.572 223.211C257.815 222.419 257.763 221.566 257.423 220.81C257.084 220.054 256.481 219.449 255.728 219.107C254.975 218.765 254.124 218.71 253.335 218.953C222.876 225.266 194.963 242.372 164 245.751C184.161 230.428 210.993 225.645 232.402 212.098C233.034 211.701 233.518 211.105 233.778 210.404C234.038 209.702 234.061 208.934 233.841 208.218C233.621 207.502 233.172 206.879 232.564 206.445C231.955 206.011 231.221 205.79 230.475 205.817C213.571 205.786 198.136 212.658 183.133 219.957C169.333 226.706 153.019 239.115 137.018 242.634C158.083 224.778 187.279 219.025 211.089 205.976C214.772 204.008 211.787 199.238 208.324 199.821C178.471 204.875 151.002 219.643 121.003 222.508C141.09 208.73 170.758 211.382 186.66 190.558C187.099 190.059 187.385 189.444 187.484 188.786C187.583 188.128 187.49 187.456 187.218 186.849C186.946 186.242 186.505 185.726 185.948 185.364C185.391 185.001 184.742 184.808 184.078 184.806C170.781 185.459 157.616 187.754 144.881 191.637C131.323 195.524 115.327 203.955 100.526 204.467C113.298 194.557 129.202 189.579 141.938 179.429C144.507 177.383 141.952 173.837 139.356 173.676C121.298 172.898 105.629 183.491 88.287 185.43C100.526 175.232 119.341 173.316 131.596 162.009C132.035 161.511 132.321 160.895 132.42 160.237C132.519 159.58 132.427 158.907 132.154 158.3C131.882 157.693 131.441 157.177 130.884 156.815C130.327 156.453 129.678 156.259 129.015 156.257C107.056 158.032 86.3206 171.17 64.2538 170.198C72.4594 162.082 84.2595 157.907 92.2311 149.458C92.6985 148.969 93.0094 148.351 93.1239 147.683C93.2384 147.015 93.1513 146.328 92.8739 145.71C92.5964 145.092 92.1414 144.571 91.5669 144.213C90.9923 143.856 90.3245 143.679 89.6493 143.705C78.1983 144.511 66.8117 148.991 55.3759 147.46L57.4614 143.829C59.993 140.315 53.9891 137.044 51.4484 140.498C49.3668 143.002 47.8248 145.911 46.9199 149.043C46.7263 149.92 46.8808 150.839 47.3505 151.605C47.8203 152.371 48.5684 152.924 49.4368 153.147C59.0906 155.082 69.0609 154.715 78.5429 152.075C70.0622 157.96 60.7056 162.503 54.5607 171.291C54.3218 171.754 54.1902 172.265 54.1759 172.786C54.1615 173.307 54.2647 173.825 54.4777 174.301C54.6907 174.776 55.0081 175.198 55.4061 175.533C55.8041 175.869 56.2725 176.11 56.7762 176.239C76.3607 179.428 94.1377 171.036 112.62 166.099C100.037 171.989 86.2361 175.482 77.4544 187.493C75.7177 189.782 78.1968 192.418 80.5352 192.495C96.8566 193.535 111.181 184.987 126.671 181.731C114.067 189.097 100.22 194.318 89.715 205.053C89.2398 205.479 88.8942 206.03 88.7174 206.644C88.5407 207.259 88.5401 207.91 88.7159 208.525C88.8916 209.14 89.2367 209.693 89.7112 210.12C90.1858 210.547 90.7707 210.832 91.3988 210.941C103.961 213.039 114.896 208.811 126.475 204.792C142.247 198.801 158.639 194.599 175.345 192.264C156.442 207.398 126.295 204.819 109.292 224.028C108.826 224.513 108.514 225.126 108.396 225.789C108.278 226.453 108.359 227.137 108.629 227.754C108.9 228.372 109.346 228.895 109.913 229.257C110.48 229.619 111.142 229.805 111.814 229.789C129.033 229.114 146.044 225.782 162.247 219.912C148.281 225.4 135.647 233.817 125.191 244.601C124.752 245.1 124.466 245.715 124.367 246.373C124.269 247.031 124.361 247.704 124.633 248.311C124.906 248.918 125.347 249.433 125.904 249.796C126.46 250.158 127.109 250.352 127.773 250.354C140.776 250.911 152.639 243.902 163.814 237.611C159.489 240.46 155.449 243.723 151.751 247.352C151.371 247.744 151.093 248.223 150.941 248.747C150.789 249.271 150.767 249.825 150.878 250.36C150.989 250.895 151.229 251.395 151.577 251.815C151.925 252.236 152.37 252.564 152.874 252.772C146.289 253.765 139.718 254.449 133 254.97C90.594 257.987 59.9004 216.857 38.5328 185.193C27.6235 170.388 20.7753 152.974 18.6722 134.692C17.5474 120.735 26.4865 110.174 35.7355 100.857C44.9845 91.539 51.3328 82.4745 58.8184 73.2384C74.3885 54.6761 95.2166 61.2398 115.536 63.2123C133.559 64.9784 150.228 61.4209 168.063 59.1001C210.793 53.7628 255.629 81.8884 266.06 123.862C269.62 138.127 269.557 153.553 276.517 166.814C285.148 183.447 298.131 197.274 306.993 213.811C312.22 223.709 317.837 236.19 330.113 238.823C333.123 239.599 336.192 240.122 339.288 240.388L343.591 240.906C351.357 240.84 352.16 245.756 346.109 255.574C339.699 256.172 333.244 256.095 326.848 255.346C326.16 255.251 325.462 255.424 324.897 255.829C324.332 256.234 323.943 256.84 323.809 257.524L324.049 257.487ZM180.713 228.675C190.582 223.213 201.003 218.821 211.801 215.573C201.289 220.167 190.608 224.05 180.473 228.711L180.713 228.675ZM469.243 325.021C461.901 326.681 451.671 327.056 448.633 335.744C444.659 347.153 455.159 361.969 447.926 371.658C435.44 388.343 422.154 372.105 417.843 360.164C415.416 353.405 414.135 346.535 411.238 339.909C406.194 328.386 395.412 321.044 385.061 314.928C366.766 304.051 347.352 295.493 329.132 284.298C329.104 276.899 328.563 269.51 327.512 262.186C333.644 262.867 339.817 263.086 345.98 262.841C346.195 263.134 346.461 263.385 346.765 263.582C373.305 281.63 400.835 299.344 433.518 302.093C440.465 302.17 447.411 301.882 454.328 301.228C457.834 301.152 461.338 301.49 464.766 302.234C474.834 304.032 480.422 322.414 469.243 325.021Z" fill="#FCFCFC"/>
</svg>
