<svg width="1098" height="1239" viewBox="0 0 1098 1239" fill="none" xmlns="http://www.w3.org/2000/svg">
<path d="M633.979 1094.19C618.791 1087.27 598.41 1093.41 582.278 1090.38C558.835 1085.56 537.525 1071.33 517.805 1057.91C518.949 1057.35 520.016 1056.66 520.982 1055.83C528.959 1049.04 525.088 1039.61 517.722 1034.21C510.356 1028.81 498.856 1030.91 491.185 1027.96C481.012 1023.84 475.761 1006.88 470.595 998.201C458.052 977.551 443.387 962.319 439.201 937.4C437.409 920.904 432.232 904.955 423.994 890.558C413.435 873.724 393.731 863.244 376.288 855.986C358.392 849.002 338.892 847.256 320.055 850.953C298.498 853.577 276.694 853.46 255.16 850.604C237.284 849 224.264 856.859 213.113 870.21C200.096 885.808 180.487 901.54 175.551 922C167.558 955.081 199.103 992.52 218.431 1015.52C230.52 1030.52 245.231 1043.18 261.844 1052.89C278.016 1061.88 298.357 1059.12 315.695 1056.75C339.307 1052.58 363.636 1055.91 385.281 1066.28C406.928 1076.65 425.584 1089.93 449.498 1095.84C461.212 1098.81 477.11 1101.51 487.175 1093.54C488.852 1092.14 490.121 1090.32 490.848 1088.26C512.3 1100.99 536.671 1110.34 556.387 1125.36C573.189 1138.12 569.481 1159.01 581.703 1173.87C590.638 1184.81 600.936 1183.26 612.149 1176.41C623.362 1169.56 620.208 1156.77 617.512 1145.38C612.688 1125.16 640.482 1133.26 646.318 1119.17C650.754 1108.8 643.245 1098.38 633.979 1094.19ZM351.423 1047.62C351.103 1047.89 350.84 1048.22 350.652 1048.59C346.563 1048.22 342.455 1048.1 338.352 1048.24C344.927 1046.89 351.41 1045.13 357.765 1042.97C355.561 1044.39 353.443 1045.94 351.423 1047.62ZM487.19 1054.66C486.756 1054.65 486.324 1054.73 485.921 1054.89C485.518 1055.05 485.153 1055.3 484.849 1055.61C484.545 1055.92 484.309 1056.29 484.155 1056.7C484.001 1057.1 483.933 1057.54 483.955 1057.97C484.164 1064.64 484.98 1071.27 485.249 1077.92C485.933 1096.68 462.832 1091.68 451.425 1089.53C430.429 1085.51 412.244 1073.33 393.75 1063.16C385.044 1058.24 375.806 1054.34 366.218 1051.53C377.572 1048.78 388.667 1045.05 399.378 1040.39C394.343 1043.9 390.238 1048.58 387.415 1054.04C387.141 1054.57 387.007 1055.16 387.028 1055.76C387.049 1056.36 387.223 1056.94 387.534 1057.45C387.845 1057.96 388.282 1058.38 388.803 1058.67C389.323 1058.96 389.91 1059.11 390.505 1059.1C410.574 1056.57 428.207 1045.19 447.434 1040.33C435.702 1046.58 424.241 1053.4 420.386 1066.82C420.26 1067.33 420.254 1067.86 420.367 1068.37C420.481 1068.89 420.71 1069.37 421.039 1069.77C421.367 1070.18 421.785 1070.51 422.26 1070.73C422.735 1070.95 423.254 1071.05 423.777 1071.04C431.22 1070.85 438.545 1069.14 445.307 1066.01C443.696 1068.07 442.369 1070.34 441.363 1072.75C441.055 1073.35 440.928 1074.02 440.997 1074.69C441.066 1075.36 441.328 1076 441.751 1076.52C442.175 1077.04 442.741 1077.43 443.38 1077.63C444.019 1077.84 444.704 1077.85 445.351 1077.68C452.538 1075.84 459.541 1073.35 466.27 1070.22C464.747 1072.65 463.049 1074.96 461.188 1077.13C458.528 1080.6 463.465 1085.32 466.065 1081.86C469.955 1077.08 473.404 1071.96 476.37 1066.55C476.677 1065.95 476.804 1065.28 476.735 1064.61C476.666 1063.94 476.404 1063.3 475.981 1062.78C475.558 1062.26 474.992 1061.87 474.353 1061.66C473.713 1061.46 473.029 1061.44 472.382 1061.62C465.369 1063.39 458.539 1065.82 451.984 1068.88C455.807 1064.18 460.734 1060.31 464.893 1055.81C465.619 1055.25 466.092 1054.41 466.206 1053.5C466.321 1052.58 466.068 1051.66 465.504 1050.93C464.939 1050.2 464.109 1049.72 463.196 1049.61C462.283 1049.49 461.361 1049.75 460.635 1050.31C451.026 1056.61 440.352 1061.09 429.136 1063.54C436.186 1050.19 454.58 1045.08 466.325 1037.29C466.957 1036.9 467.442 1036.31 467.706 1035.61C467.97 1034.92 467.998 1034.15 467.786 1033.43C467.573 1032.72 467.133 1032.09 466.532 1031.65C465.93 1031.22 465.202 1030.99 464.458 1031C440.378 1030.89 420.527 1045.43 397.809 1050.69C407.436 1039.42 424.795 1034.34 437.191 1027.62C440.874 1025.65 437.949 1020.87 434.426 1021.47C411.877 1025.42 391.872 1037.71 370.023 1043.46C385.92 1035.6 404.08 1032.18 419.242 1022.28C419.947 1021.85 420.47 1021.18 420.714 1020.38C420.957 1019.59 420.904 1018.74 420.565 1017.98C420.226 1017.23 419.623 1016.62 418.87 1016.28C418.117 1015.94 417.266 1015.88 416.477 1016.13C386.018 1022.44 358.105 1039.55 327.142 1042.92C347.303 1027.6 374.135 1022.82 395.543 1009.27C396.176 1008.87 396.66 1008.28 396.92 1007.58C397.18 1006.88 397.202 1006.11 396.983 1005.39C396.763 1004.68 396.314 1004.05 395.706 1003.62C395.097 1003.18 394.363 1002.96 393.617 1002.99C376.713 1002.96 361.278 1009.83 346.275 1017.13C332.475 1023.88 316.161 1036.29 300.16 1039.81C321.225 1021.95 350.421 1016.2 374.231 1003.15C377.914 1001.18 374.929 996.411 371.466 996.994C341.613 1002.05 314.144 1016.82 284.144 1019.68C304.232 1005.9 333.9 1008.55 349.802 987.731C350.241 987.233 350.527 986.617 350.626 985.959C350.725 985.302 350.632 984.629 350.36 984.022C350.087 983.415 349.647 982.899 349.09 982.537C348.533 982.175 347.884 981.981 347.22 981.979C333.923 982.632 320.758 984.927 308.023 988.81C294.465 992.697 278.469 1001.13 263.667 1001.64C276.44 991.73 292.344 986.752 305.08 976.602C307.649 974.556 305.094 971.011 302.498 970.849C284.44 970.071 268.771 980.664 251.429 982.603C263.668 972.405 282.483 970.489 294.738 959.183C295.177 958.684 295.463 958.069 295.562 957.411C295.661 956.753 295.568 956.08 295.296 955.473C295.024 954.866 294.583 954.35 294.026 953.988C293.469 953.626 292.82 953.432 292.156 953.43C270.198 955.205 249.462 968.343 227.396 967.371C235.601 959.255 247.401 955.081 255.373 946.631C255.84 946.142 256.151 945.524 256.266 944.856C256.38 944.188 256.293 943.501 256.016 942.883C255.738 942.265 255.283 941.744 254.709 941.387C254.134 941.029 253.466 940.853 252.791 940.878C241.34 941.684 229.954 946.165 218.518 944.634L220.603 941.003C223.135 937.488 217.131 934.217 214.59 937.671C212.509 940.175 210.967 943.084 210.062 946.216C209.868 947.093 210.023 948.012 210.492 948.778C210.962 949.544 211.71 950.097 212.579 950.32C222.232 952.256 232.203 951.888 241.685 949.248C233.204 955.133 223.848 959.676 217.703 968.464C217.464 968.927 217.332 969.438 217.318 969.959C217.303 970.48 217.407 970.998 217.62 971.474C217.833 971.95 218.15 972.371 218.548 972.707C218.946 973.042 219.414 973.284 219.918 973.412C239.503 976.601 257.28 968.209 275.761 963.272C263.179 969.162 249.378 972.655 240.596 984.666C238.86 986.955 241.339 989.591 243.677 989.668C259.998 990.708 274.323 982.161 289.813 978.904C277.209 986.271 263.362 991.491 252.857 1002.23C252.382 1002.65 252.036 1003.2 251.859 1003.82C251.683 1004.43 251.682 1005.08 251.858 1005.7C252.034 1006.31 252.379 1006.87 252.853 1007.29C253.328 1007.72 253.913 1008 254.541 1008.11C267.103 1010.21 278.038 1005.98 289.617 1001.97C305.388 995.974 321.781 991.772 338.487 989.437C319.584 1004.57 289.437 1001.99 272.434 1021.2C271.967 1021.69 271.655 1022.3 271.538 1022.96C271.42 1023.63 271.501 1024.31 271.771 1024.93C272.041 1025.54 272.488 1026.07 273.055 1026.43C273.622 1026.79 274.284 1026.98 274.956 1026.96C292.175 1026.29 309.186 1022.96 325.389 1017.09C311.423 1022.57 298.789 1030.99 288.333 1041.77C287.894 1042.27 287.608 1042.89 287.509 1043.55C287.41 1044.2 287.503 1044.88 287.775 1045.48C288.048 1046.09 288.489 1046.61 289.045 1046.97C289.602 1047.33 290.251 1047.52 290.915 1047.53C303.918 1048.08 315.781 1041.08 326.956 1034.78C322.631 1037.63 318.591 1040.9 314.893 1044.53C314.513 1044.92 314.235 1045.4 314.083 1045.92C313.931 1046.44 313.909 1047 314.02 1047.53C314.131 1048.07 314.371 1048.57 314.719 1048.99C315.067 1049.41 315.512 1049.74 316.016 1049.95C309.431 1050.94 302.86 1051.62 296.142 1052.14C253.736 1055.16 223.042 1014.03 201.675 982.366C190.765 967.561 183.917 950.147 181.814 931.865C180.689 917.908 189.628 907.347 198.877 898.03C208.126 888.712 214.475 879.648 221.96 870.412C237.53 851.849 258.359 858.413 278.678 860.386C296.701 862.152 313.37 858.594 331.205 856.273C373.935 850.936 418.771 879.062 429.202 921.035C432.761 935.3 432.699 950.726 439.659 963.987C448.289 980.62 461.273 994.447 470.135 1010.98C475.362 1020.88 480.979 1033.36 493.255 1036C496.265 1036.77 499.334 1037.3 502.43 1037.56L506.733 1038.08C514.499 1038.01 515.302 1042.93 509.251 1052.75C502.841 1053.35 496.386 1053.27 489.99 1052.52C489.302 1052.42 488.604 1052.6 488.039 1053C487.474 1053.41 487.085 1054.01 486.951 1054.7L487.19 1054.66ZM343.855 1025.85C353.724 1020.39 364.145 1015.99 374.943 1012.75C364.431 1017.34 353.75 1021.22 343.615 1025.88L343.855 1025.85ZM632.385 1122.19C625.042 1123.85 614.813 1124.23 611.775 1132.92C607.801 1144.33 618.301 1159.14 611.068 1168.83C598.582 1185.52 585.296 1169.28 580.985 1157.34C578.558 1150.58 577.277 1143.71 574.38 1137.08C569.336 1125.56 558.554 1118.22 548.203 1112.1C529.908 1101.22 510.494 1092.67 492.274 1081.47C492.246 1074.07 491.705 1066.68 490.654 1059.36C496.786 1060.04 502.959 1060.26 509.122 1060.01C509.336 1060.31 509.603 1060.56 509.907 1060.76C536.447 1078.8 563.977 1096.52 596.66 1099.27C603.607 1099.34 610.553 1099.05 617.47 1098.4C620.976 1098.33 624.48 1098.66 627.908 1099.41C637.976 1101.21 643.564 1119.59 632.385 1122.19Z" fill="#FCFCFC"/>
<path d="M983.035 941.536C982.4 941.481 981.765 941.636 981.227 941.977C979.639 937.568 978.052 932.851 976.509 928.266C971.879 914.511 967.689 900.667 964.162 886.471C963.943 885.634 963.405 884.916 962.663 884.471C961.921 884.026 961.035 883.89 960.193 884.091C952.747 885.323 945.467 887.409 938.498 890.307C938.034 890.453 937.609 890.704 937.257 891.041C936.906 891.377 936.636 891.79 936.469 892.247C936.192 892.204 935.909 892.204 935.631 892.247C935.045 892.2 934.457 892.291 933.912 892.511C933.379 892.731 932.91 893.079 932.545 893.525C932.235 893.883 932.02 894.312 931.92 894.775C931.82 895.237 931.838 895.717 931.971 896.17C934.176 905.958 936.954 915.525 940.085 924.959L942.863 933.027C941.554 933.772 940.301 934.612 939.115 935.54C935.584 938.365 932.335 941.524 929.414 944.975L928.929 945.592C925.725 937.392 922.314 929.251 918.699 921.168C918.273 920.425 917.572 919.878 916.747 919.648C915.922 919.417 915.039 919.519 914.289 919.934C908.909 923.813 903.97 928.222 898.591 932.102C898.299 932.306 898.045 932.559 897.841 932.851C897.556 933.224 897.351 933.65 897.237 934.105C897.123 934.56 897.104 935.034 897.18 935.496C896.97 935.804 896.82 936.148 896.739 936.51C896.739 936.51 896.739 936.51 896.739 936.819C896.654 937.226 896.654 937.646 896.739 938.053C897.532 940.787 898.37 943.52 899.208 946.209C900.443 950.266 901.766 954.277 903.133 958.289C902.883 958.268 902.632 958.268 902.383 958.289L895.328 958.554C893.387 954.366 891.271 950.266 889.11 946.209C887.655 943.476 886.2 940.787 884.7 938.097C883.865 936.563 882.921 935.09 881.878 933.689C880.231 931.217 877.763 929.406 874.911 928.575C874.34 928.51 873.763 928.51 873.191 928.575C868.12 928.575 863.314 932.983 859.257 937.657C856.567 940.831 854.186 944.093 852.334 946.077C852.001 948.371 851.794 950.682 851.716 952.999C855.2 960.229 858.331 967.592 861.373 975.043C854.274 977.82 849.776 980.068 848.145 984.83C847.142 988.085 846.946 991.534 847.571 994.882C848.182 998.396 849.422 1001.77 851.231 1004.85C852.201 1006.61 853.216 1008.33 854.274 1010.05C853.761 1010.07 853.26 1010.21 852.809 1010.45C852.358 1010.7 851.969 1011.04 851.672 1011.46C850.261 1013.49 848.791 1015.47 847.263 1017.41C842.853 1023.32 838.047 1028.96 833.461 1034.78C833.09 1035.4 832.936 1036.13 833.024 1036.85C833.112 1037.57 833.436 1038.23 833.946 1038.75C837.826 1042.8 841.662 1046.86 845.455 1050.96C852.113 1058.1 858.684 1065.33 864.945 1073C860.536 1082.57 856.126 1092.05 851.716 1101.71C851.484 1102.22 851.392 1102.78 851.452 1103.34C851.232 1103.87 851.204 1104.47 851.372 1105.02C851.541 1105.58 851.896 1106.06 852.378 1106.38C858.877 1111.69 864.951 1117.49 870.546 1123.75C887.39 1142.4 900.531 1164.26 914.377 1185.16C918.39 1191.2 920.903 1198.04 924.872 1203.72C927.245 1207.27 930.456 1210.18 934.22 1212.19C936.418 1213.28 938.824 1213.88 941.276 1213.95C942.568 1214.02 943.864 1214.02 945.156 1213.95C951.761 1212.93 958.288 1211.46 964.691 1209.54C964.994 1209.85 965.36 1210.09 965.763 1210.24C966.167 1210.39 966.598 1210.45 967.028 1210.42H967.866C968.397 1210.29 968.888 1210.02 969.295 1209.65C969.702 1209.29 970.014 1208.82 970.203 1208.31C970.683 1208.41 971.178 1208.41 971.658 1208.31C993.486 1199.89 1015 1190.67 1037.49 1184.32C1057.38 1178.55 1077.44 1174.54 1096.23 1165.63C1096.71 1165.41 1097.13 1165.06 1097.44 1164.63C1097.75 1164.19 1097.94 1163.68 1097.99 1163.15C1098.04 1162.62 1097.94 1162.08 1097.72 1161.6C1097.5 1161.11 1097.15 1160.69 1096.71 1160.39C1097.78 1155.33 1098.01 1150.13 1097.38 1145C1096.89 1130.93 1094.86 1116.83 1092.97 1102.85C1090.01 1080.81 1087.1 1058.76 1084.81 1036.72C1082.52 1014.68 1084.81 991.134 1081.5 968.562C1081.33 967.858 1080.93 967.232 1080.36 966.784C1079.8 966.336 1079.09 966.093 1078.37 966.093C1072.74 966.503 1067.16 967.344 1061.66 968.606C1058.4 960.053 1055.97 951.28 1052.84 942.594C1051.8 938.434 1050.09 934.472 1047.77 930.867C1042.43 924.078 1032.2 927.516 1025.19 928.971C1024.83 929.064 1024.49 929.213 1024.18 929.412C1022.06 922.078 1019.49 914.878 1016.5 907.854C1009.27 891.277 996.616 896.7 982.065 900.8C981.225 901.019 980.504 901.554 980.052 902.294C979.599 903.034 979.452 903.921 979.64 904.767C981.653 917.792 984.6 930.654 988.459 943.256C987.312 943.256 986.033 942.947 984.711 942.859L983.035 941.536ZM1004.16 974.205C1008.57 989.724 1013.81 1005.07 1018.62 1020.23C1016.58 1023.86 1014.24 1027.31 1011.61 1030.55C1007.57 1022.42 1004.17 1013.98 1001.42 1005.33C996.705 991.002 993.089 976.233 988.194 961.905C986.607 957.496 985.019 952.734 983.388 948.149C998.865 949.384 1000.28 960.185 1004.16 974.205ZM934.132 1051.89C934.243 1051.47 934.268 1051.03 934.206 1050.6C934.143 1050.17 933.994 1049.76 933.767 1049.38C933.54 1049.01 933.241 1048.69 932.887 1048.44C932.533 1048.19 932.132 1048.01 931.707 1047.92H931.178C930.581 1047.89 929.987 1048.02 929.455 1048.29C928.922 1048.56 928.467 1048.97 928.135 1049.46C926.695 1051.49 925.328 1053.56 924.034 1055.68C920.11 1062.03 916.538 1068.55 912.128 1074.5C912.973 1068.46 914.3 1062.48 916.097 1056.65C917.111 1053.12 918.169 1049.59 919.14 1046.02C919.305 1045.32 919.24 1044.58 918.955 1043.91C918.669 1043.24 918.178 1042.69 917.552 1042.32C916.964 1041.94 916.269 1041.75 915.568 1041.79C915.192 1041.82 914.826 1041.92 914.492 1042.09C914.158 1042.27 913.864 1042.51 913.628 1042.8C909.866 1047.35 906.362 1052.11 903.133 1057.04C905.073 1050.65 907.322 1044.3 909.571 1037.91C909.745 1037.41 909.788 1036.88 909.694 1036.36C909.6 1035.84 909.373 1035.36 909.035 1034.95C908.697 1034.55 908.26 1034.24 907.767 1034.05C907.273 1033.87 906.74 1033.82 906.219 1033.9C905.795 1033.91 905.377 1034 904.991 1034.18C904.604 1034.35 904.257 1034.6 903.97 1034.91C903.636 1035.27 903.38 1035.69 903.221 1036.15C899.004 1047.07 895.628 1058.3 893.123 1069.74C889.816 1063 886.597 1056.25 883.51 1049.42C883.418 1049.24 883.299 1049.08 883.157 1048.93L885.935 1046.82C892.844 1041.27 900.221 1036.32 907.983 1032.05C909.333 1031.29 910.847 1030.88 912.393 1030.86C912.688 1030.92 912.962 1031.05 913.187 1031.25C914.598 1032.71 916.097 1034.12 917.596 1035.44C922.177 1039.48 927.023 1043.21 932.104 1046.6C935.461 1048.87 938.984 1050.89 942.643 1052.64C942.293 1052.88 941.981 1053.18 941.717 1053.52C934.529 1063.08 930.516 1074.64 924.078 1084.69C924.872 1081.95 925.71 1079.26 926.592 1076.53C929.37 1068.2 932.148 1060.26 934.132 1051.89ZM857.228 1014.15C858.99 1016.93 860.468 1019.89 861.638 1022.97C865.386 1033.55 867.944 1044.35 872.221 1054.75C870.854 1058.41 869.355 1061.98 867.812 1065.55C858.992 1055.24 849.908 1045.32 840.56 1035.57C845.94 1028.52 851.849 1021.55 857.052 1014.15H857.228ZM871.207 981.038C867.018 970.325 862.652 959.744 857.713 949.34C861.859 944.578 866.885 936.334 872.927 934.615C873.354 934.46 873.822 934.46 874.25 934.615C876.454 935.496 878.659 939.64 880.114 942.638L881.437 945.328C883.863 949.736 886.111 954.145 888.228 958.554L881.658 958.774C881.156 958.784 880.662 958.904 880.211 959.125C879.76 959.346 879.364 959.663 879.048 960.054C878.733 960.444 878.507 960.9 878.387 961.387C878.266 961.874 878.254 962.382 878.351 962.874C881.156 974.061 885.271 984.878 890.609 995.102C895.983 1005.3 900.739 1015.81 904.852 1026.58C900.972 1029.05 897.047 1031.52 893.211 1034.03C884.7 1016.75 878.042 998.806 871.031 981.038H871.207ZM893.255 965.343C893.805 965.331 894.34 965.163 894.798 964.858L902.162 964.638C902.715 964.592 903.253 964.442 903.75 964.197C904.173 963.937 904.522 963.572 904.764 963.139C914.421 990.341 926.592 1016.53 938.762 1042.72C936.469 1041.31 934.353 1039.81 932.06 1038.31C925.881 1033.83 920.098 1028.83 914.774 1023.36C914.312 1022.92 913.728 1022.63 913.098 1022.52C912.382 1022.38 911.638 1022.52 911.026 1022.92H910.805C908.953 1018.03 906.837 1013.22 904.588 1008.46C901.236 1001.32 897.621 994.309 894.313 987.166C890.91 980.07 888.122 972.695 885.979 965.123H892.109C892.47 965.278 892.861 965.353 893.255 965.343ZM930.825 950.354C931.088 950.395 931.356 950.395 931.619 950.354C931.896 950.397 932.179 950.397 932.457 950.354C933.065 950.182 933.614 949.847 934.044 949.384C935.72 947.488 937.439 945.592 939.247 943.829C941.044 942.051 943.025 940.47 945.156 939.111C946.626 942.991 948.096 946.871 949.566 950.75C951.815 956.57 953.976 962.345 956.489 968.385C967.425 995.234 975.803 1022.88 986.298 1049.86C986.298 1049.86 986.298 1050.12 986.563 1050.26C984.819 1051 983.02 1051.6 981.183 1052.06C977.879 1052.97 974.468 1053.43 971.041 1053.43C959.047 1028.43 949.83 1002.38 940.394 976.365C937.351 967.592 934.132 958.951 930.825 950.354ZM992.56 1047.35C983.74 1024.07 976.509 1000.13 967.248 976.806C960.678 960.361 954.02 944.049 948.155 927.384C944.629 917.374 941.612 907.191 939.115 896.876C939.463 896.957 939.825 896.957 940.173 896.876C945.509 894.892 950.801 892.996 956.313 891.453C957.459 891.145 958.562 892.776 959.576 895.201C961.402 900.565 962.875 906.044 963.985 911.601C968.395 927.252 974.304 942.462 979.728 957.981C984.843 972.618 988.547 987.696 993.353 1002.51C996.812 1014.07 1001.33 1025.28 1006.85 1036.02C1005.74 1037.12 1004.64 1038.18 1003.5 1039.19C1000.06 1042.19 996.359 1044.86 992.427 1047.17L992.56 1047.35ZM920.903 943.212C935.587 979.495 946.876 1017.15 963.456 1052.68C958.203 1051.7 953.093 1050.07 948.243 1047.83C948.268 1047.64 948.268 1047.45 948.243 1047.26C943.833 1038.22 939.821 1029.18 935.676 1020.1C922.75 993.051 911.929 965.046 903.309 936.334C907.101 933.468 910.761 930.426 914.509 927.516C916.494 932.851 918.875 938.009 920.903 943.212ZM863.578 980.465H863.799C867.635 989.988 871.251 999.599 875.087 1009.17C878.924 1018.73 882.892 1028.17 887.39 1037.43C883.907 1039.81 880.467 1042.19 877.116 1044.79C876.821 1045.01 876.574 1045.28 876.392 1045.6C876.21 1045.92 876.096 1046.28 876.058 1046.64C872.53 1036.28 870.59 1024.82 865.695 1015.16C863.005 1009.83 859.742 1004.85 856.876 999.687C851.584 990.87 853.128 985.403 860.139 981.744C861.153 981.435 862.255 980.95 863.578 980.465ZM858.331 1101.97C865.21 1086.41 873.103 1071.11 879.012 1055.33C902.471 1106.51 931.927 1154.39 960.854 1202.62C946.964 1205.22 934.617 1207.78 926.107 1192.26C920.154 1181.5 913.76 1171.32 907.013 1161.05C895.307 1141.91 881.379 1124.23 865.519 1108.36C863.093 1106.16 860.668 1104.04 858.199 1101.97H858.331ZM970.071 1200.68C969.336 1200.96 968.725 1201.49 968.351 1202.18C943.172 1159.99 917.332 1118.15 895.416 1074.33C895.664 1074.37 895.918 1074.37 896.165 1074.33C896.599 1074.34 897.031 1074.26 897.429 1074.08C897.826 1073.91 898.178 1073.64 898.458 1073.31C901.95 1069.55 905.135 1065.51 907.983 1061.23C905.876 1068.51 904.879 1076.06 905.029 1083.63C905.06 1084.44 905.373 1085.21 905.912 1085.81C906.451 1086.42 907.183 1086.81 907.983 1086.94H908.909C909.579 1086.82 910.196 1086.49 910.673 1086.01C911.687 1085 912.657 1083.98 913.628 1082.88C916.304 1079.64 918.736 1076.21 920.903 1072.61C918.963 1078.56 917.067 1084.56 915.656 1090.68C915.215 1092.71 914.818 1094.78 914.465 1096.86C914.375 1097.39 914.404 1097.94 914.548 1098.47C914.693 1098.99 914.951 1099.48 915.303 1099.9C915.608 1100.29 916.005 1100.6 916.459 1100.8C916.914 1101 917.41 1101.08 917.905 1101.04C918.668 1100.98 919.385 1100.65 919.933 1100.12C921.643 1098.54 923.221 1096.83 924.652 1095C929.869 1088.05 934.306 1080.54 937.88 1072.61C935.367 1079.62 932.016 1086.36 930.119 1093.5C928.887 1097.8 928.409 1102.27 928.708 1106.73C928.728 1107.33 928.911 1107.91 929.238 1108.41C929.475 1108.84 929.811 1109.2 930.217 1109.48C930.623 1109.75 931.088 1109.93 931.575 1109.99C932.064 1110.05 932.559 1110.01 933.03 1109.86C933.501 1109.72 933.937 1109.48 934.309 1109.16C937.253 1106.7 939.849 1103.85 942.025 1100.69C940.267 1107.32 939.981 1114.26 941.188 1121.02C941.288 1121.66 941.606 1122.24 942.088 1122.68C942.57 1123.11 943.186 1123.36 943.833 1123.4C944.484 1123.45 945.139 1123.34 945.734 1123.07C946.329 1122.8 946.844 1122.38 947.229 1121.85C947.758 1121.1 948.243 1120.31 948.772 1119.52C948.331 1121.15 947.978 1122.73 947.626 1124.37C946.591 1129.26 946.001 1134.23 945.862 1139.22C945.855 1139.72 945.956 1140.2 946.159 1140.65C946.362 1141.1 946.662 1141.5 947.036 1141.82C947.411 1142.14 947.852 1142.37 948.327 1142.5C948.803 1142.63 949.301 1142.66 949.786 1142.57C950.46 1142.48 951.074 1142.13 951.506 1141.6C954.374 1137.98 957.052 1134.22 959.532 1130.32C957.395 1136.96 956.309 1143.89 956.313 1150.86C956.328 1151.67 956.636 1152.45 957.179 1153.05C957.722 1153.65 958.464 1154.03 959.267 1154.12H959.752C960.303 1154.13 960.846 1153.99 961.32 1153.71C961.795 1153.43 962.183 1153.02 962.442 1152.54L964.25 1149.23C962.765 1155 961.937 1160.91 961.781 1166.87C961.77 1167.52 961.958 1168.16 962.321 1168.7C962.683 1169.25 963.202 1169.67 963.809 1169.91C964.101 1169.95 964.399 1169.95 964.691 1169.91C965.184 1169.98 965.685 1169.93 966.159 1169.78C966.632 1169.63 967.065 1169.37 967.425 1169.03C968.439 1168.1 969.409 1167.09 970.335 1166.07C972.648 1163.57 974.771 1160.91 976.685 1158.09C977.479 1156.99 978.228 1155.84 978.934 1154.7C974.941 1163.26 971.566 1172.1 968.836 1181.15C968.711 1181.63 968.694 1182.13 968.786 1182.62C968.878 1183.1 969.077 1183.56 969.368 1183.96C969.659 1184.36 970.035 1184.69 970.469 1184.93C970.903 1185.17 971.384 1185.31 971.879 1185.34C972.243 1185.4 972.616 1185.4 972.981 1185.34C973.382 1185.24 973.756 1185.06 974.076 1184.8C974.396 1184.54 974.655 1184.21 974.833 1183.84C976.95 1180 979.243 1176.17 981.315 1172.38C984.578 1166.65 987.93 1160.96 991.457 1155.45C986.698 1164.8 983.185 1174.73 981.006 1184.99C980.842 1185.81 980.966 1186.67 981.359 1187.41C981.623 1187.88 981.999 1188.28 982.452 1188.57C982.905 1188.86 983.423 1189.04 983.961 1189.09C984.565 1189.12 985.168 1188.99 985.709 1188.72C986.25 1188.45 986.712 1188.05 987.048 1187.54C994.588 1177.01 1000.85 1165.5 1008.21 1154.96L1006.36 1158.75C1001.68 1167.49 998.689 1177.04 997.543 1186.88C997.496 1187.11 997.496 1187.35 997.543 1187.59C997.62 1188.13 997.867 1188.64 998.248 1189.04C989.032 1193.1 979.507 1196.98 969.938 1200.68H970.071ZM1021.71 1180.97C1016.37 1182.74 1011.08 1184.63 1005.79 1186.62C1013.15 1177.23 1019.59 1167.17 1026.69 1157.56C1024.11 1164.09 1022.08 1170.81 1020.6 1177.67C1020.47 1178.26 1020.48 1178.87 1020.65 1179.45C1020.82 1180.03 1021.14 1180.55 1021.57 1180.97H1021.71ZM1030.17 1178.37L1027.35 1179.25C1031.41 1173.74 1035.2 1168.06 1039.08 1162.41C1039.08 1163.78 1038.68 1165.1 1038.51 1166.47C1037.98 1170.13 1042.92 1170.53 1044.64 1168.19L1045.92 1166.43C1045.89 1166.6 1045.89 1166.78 1045.92 1166.95C1046.06 1167.52 1046.35 1168.03 1046.76 1168.44C1047.16 1168.86 1047.67 1169.16 1048.23 1169.31C1048.79 1169.47 1049.38 1169.48 1049.94 1169.33C1050.5 1169.19 1051.01 1168.9 1051.43 1168.5C1052.57 1167.53 1053.63 1166.47 1054.69 1165.41C1055.55 1166.94 1056.16 1168.59 1056.5 1170.3C1056.63 1170.58 1056.8 1170.85 1056.98 1171.1C1047.99 1173.52 1038.99 1175.77 1030.04 1178.42L1030.17 1178.37ZM1068.76 972.485C1080.13 970.193 1076.43 1001.67 1076.39 1006.79C1076.95 1029.35 1078.96 1051.85 1082.38 1074.15C1084.06 1088.17 1086.44 1102.1 1088.2 1116.12C1088.82 1121.32 1095.66 1154.61 1090.01 1158.67C1089.38 1159.12 1088.92 1159.77 1088.69 1160.52C1080.36 1164 1071.82 1166.94 1063.11 1169.33C1063.13 1169.1 1063.13 1168.86 1063.11 1168.63C1062.07 1164.98 1060.4 1161.53 1058.17 1158.45C1057.92 1158.01 1057.56 1157.64 1057.14 1157.36C1056.72 1157.08 1056.24 1156.9 1055.74 1156.84C1055.24 1156.77 1054.73 1156.81 1054.25 1156.97C1053.77 1157.13 1053.34 1157.39 1052.97 1157.74C1052.44 1158.36 1051.82 1158.97 1051.25 1159.59C1051.03 1158.89 1050.85 1158.18 1050.59 1157.52C1050.35 1156.73 1049.83 1156.06 1049.14 1155.61C1048.44 1155.17 1047.61 1154.99 1046.8 1155.09C1047.11 1153.2 1047.37 1151.26 1047.64 1149.36C1048.16 1145.66 1043.23 1145.35 1041.51 1147.64C1038.55 1151.61 1035.73 1155.67 1032.95 1159.77C1034.98 1154.55 1036.54 1149.17 1037.63 1143.68C1038.11 1140.72 1034.54 1137.72 1032.11 1140.46C1023.31 1151.02 1015.1 1162.06 1007.51 1173.52C1011.92 1160.56 1019.86 1148.7 1024.35 1135.74C1024.53 1135.05 1024.47 1134.32 1024.2 1133.66C1023.92 1133 1023.44 1132.45 1022.82 1132.09C1022.21 1131.72 1021.49 1131.57 1020.78 1131.65C1020.07 1131.73 1019.41 1132.03 1018.89 1132.52C1016.53 1134.77 1014.29 1137.14 1012.18 1139.62C1006.02 1147.09 1000.42 1155 995.426 1163.3C999.836 1153.55 1004.95 1144.21 1009.62 1134.55C1011.21 1131.33 1012.71 1128.11 1014.03 1124.81C1015.36 1121.5 1010.64 1119.16 1008.57 1121.59C1002.07 1129.28 996.021 1137.33 990.443 1145.7C996.658 1133.03 1001.49 1119.73 1004.86 1106.03C1005.02 1105.45 1005.01 1104.83 1004.84 1104.26C1004.67 1103.68 1004.34 1103.17 1003.89 1102.76C1003.34 1102.28 1002.64 1102 1001.91 1101.97C1001.31 1101.94 1000.71 1102.06 1000.17 1102.32C999.633 1102.59 999.169 1102.98 998.821 1103.47C994.359 1109.72 990.547 1116.41 987.444 1123.44C982.021 1135.12 977.302 1147.25 969.541 1157.3C972.893 1136.05 985.063 1117 990.355 1096.15C990.472 1095.67 990.483 1095.18 990.388 1094.7C990.292 1094.22 990.092 1093.76 989.802 1093.37C989.512 1092.97 989.139 1092.65 988.708 1092.41C988.278 1092.17 987.802 1092.04 987.312 1092.01C986.939 1091.96 986.559 1091.98 986.196 1092.08C985.832 1092.18 985.492 1092.35 985.196 1092.58C984.838 1092.84 984.55 1093.19 984.358 1093.59C979.948 1101.04 976.42 1108.8 972.893 1116.61C970.732 1121.02 968.483 1125.95 966.455 1130.58C968.871 1123.32 971.713 1116.21 974.965 1109.29C977.214 1104.22 979.375 1099.19 981.359 1094.08C982.917 1090.04 984.199 1085.9 985.196 1081.69C985.326 1081.19 985.347 1080.68 985.257 1080.17C985.166 1079.67 984.968 1079.19 984.674 1078.77C984.38 1078.35 983.998 1078 983.556 1077.74C983.113 1077.49 982.619 1077.33 982.109 1077.28C981.509 1077.22 980.905 1077.35 980.383 1077.65C979.86 1077.95 979.446 1078.41 979.199 1078.96C972.937 1090.99 967.469 1103.56 960.943 1115.46C958.782 1119.47 956.533 1123.35 954.02 1127.14C956.392 1116.22 959.757 1105.54 964.073 1095.22C966.058 1089.98 967.998 1084.73 969.674 1079.4C969.839 1078.9 969.886 1078.37 969.811 1077.86C969.735 1077.34 969.54 1076.84 969.24 1076.42C968.94 1075.99 968.544 1075.64 968.083 1075.39C967.622 1075.14 967.11 1075 966.587 1074.99C965.986 1074.92 965.379 1075.04 964.849 1075.33C964.32 1075.62 963.894 1076.07 963.633 1076.62C959.576 1084.82 955.872 1093.2 951.682 1101.35C950.315 1104.04 948.86 1106.73 947.273 1109.38C947.273 1107.57 947.67 1105.81 947.978 1104C950.316 1091.43 956.798 1079.09 959.002 1066.83C959.106 1066.31 959.08 1065.76 958.927 1065.25C958.773 1064.73 958.496 1064.26 958.121 1063.88C957.86 1063.54 957.535 1063.26 957.164 1063.04C956.793 1062.83 956.384 1062.7 955.96 1062.64C955.36 1062.58 954.755 1062.7 954.227 1063C953.698 1063.29 953.272 1063.73 953.005 1064.28C949.988 1069.8 947.294 1075.5 944.936 1081.34C942.693 1087.15 939.73 1092.66 936.117 1097.74C937.66 1088.57 942.202 1080.1 945.244 1071.28C947.256 1065.96 948.244 1060.31 948.155 1054.62C948.181 1054.52 948.181 1054.41 948.155 1054.31C954.446 1056.87 961.094 1058.45 967.866 1058.98C968.201 1059.04 968.544 1059.04 968.88 1058.98C969.232 1059.03 969.587 1059.03 969.938 1058.98C973.103 1059.05 976.266 1058.79 979.375 1058.19C984.206 1057.22 988.9 1055.67 993.353 1053.56C1006.68 1046.89 1017.65 1036.3 1024.79 1023.23C1025.19 1022.97 1025.52 1022.62 1025.74 1022.21C1025.97 1021.79 1026.08 1021.32 1026.07 1020.85C1032.22 1009.04 1035.26 995.85 1034.89 982.537C1035.4 982.406 1035.87 982.153 1036.27 981.8C1036.66 981.447 1036.96 981.004 1037.14 980.509H1037.98C1048.04 977.287 1058.27 974.609 1068.63 972.485H1068.76ZM1026.73 934.174C1033.44 932.763 1040.89 929.456 1044.37 936.995C1048.78 947.223 1051.38 958.422 1055.22 968.959C1048.91 970.634 1042.65 972.574 1036.35 974.558H1036.04C1032.78 961.331 1029.78 947.488 1026.07 933.997C1026.29 934.072 1026.51 934.131 1026.73 934.174ZM986.563 905.076C990.046 904.062 993.53 903.048 997.057 902.166C998.594 901.752 1000.19 901.603 1001.78 901.725C1009.4 902.475 1011.79 911.072 1013.37 918.258C1013.81 920.242 1014.21 922.138 1014.61 923.725C1019.02 941.095 1024.62 958.245 1029.25 975.616C1028.76 975.869 1028.37 976.27 1028.12 976.76C1027.87 977.251 1027.79 977.808 1027.88 978.349C1028.94 989.579 1027.24 1000.9 1022.94 1011.33C1018.23 993.05 1012.55 975.037 1005.92 957.364L1004.77 954.674C1003.19 950.02 999.896 946.143 995.558 943.829C995.601 943.581 995.601 943.327 995.558 943.079C995.602 942.831 995.602 942.578 995.558 942.33C993.089 933.027 990.355 923.857 988.326 914.511C987.621 911.469 987.048 908.339 986.563 905.076Z" fill="#FCFCFC"/>
<path d="M995.702 211.056C998.186 207.101 999.267 202.425 998.771 197.781C998.275 193.137 996.231 188.795 992.968 185.454C1002.47 178.975 1015.36 166.352 1008.44 155.019C999.371 139.996 978.13 141.891 962.305 145.248C963.056 142.894 963.841 140.591 964.442 138.341C965.257 135.261 965.401 132.043 964.862 128.903C964.324 125.764 963.116 122.777 961.321 120.145C959.526 117.514 957.186 115.299 954.46 113.652C951.733 112.005 948.684 110.963 945.52 110.598C940.358 110.908 935.325 112.331 930.766 114.77C916.988 120.265 915.154 96.8471 912.452 88.6751C911.518 86.0136 910.062 83.5656 908.169 81.4747C906.275 79.3839 903.984 77.6924 901.428 76.4997C898.872 75.3069 896.103 74.637 893.285 74.5291C890.466 74.4213 887.654 74.8777 885.015 75.8717C874.003 79.7004 874.377 48.0753 859.421 49.1448C844.466 50.2143 837.197 69.679 830.76 80.1075C830.584 80.4294 830.446 80.7707 830.349 81.1243C826.651 69.6557 820.505 59.7822 809.9 63.7754C794.002 69.8325 802.294 99.1554 805.589 115.539C805.307 115.937 805.143 116.406 805.114 116.893C805.054 119.302 805.125 121.712 805.325 124.113C796.11 120.752 786.106 122.494 777.069 134.401C765.932 148.626 758.768 166.841 750.906 182.954C739.152 208.869 724.379 233.306 706.894 255.757C673.722 295.761 629.443 325.742 594.683 363.957C571.865 389.02 559.151 421.771 583.411 449.997C593.512 460.511 605.184 469.393 618.01 476.325C634.978 486.843 650.941 498.047 668.462 508.188C703.705 528.333 733.773 521.89 762.545 494.976C778.672 478.844 792.617 460.668 804.021 440.912C819.192 414.844 837.165 390.511 857.62 368.345C888.513 336.228 929.961 314.512 956.848 278.573C963.237 270.018 971.654 253.747 961.38 244.407C959.136 242.398 956.539 240.824 953.721 239.763C961.81 230.991 971.89 224.292 983.111 220.233C988.301 218.842 992.789 215.571 995.702 211.056ZM999.846 154.62C1012.41 163.43 991.879 178.243 985.878 181.968C985.453 182.272 985.103 182.667 984.852 183.124C984.602 183.582 984.458 184.09 984.431 184.611C984.404 185.131 984.495 185.652 984.697 186.132C984.899 186.613 985.207 187.042 985.598 187.388C1007.3 206.461 977.518 211.603 966.932 218.97C960.046 224.008 953.607 229.631 947.689 235.778C947.219 236.257 946.918 236.876 946.83 237.542C935.205 236.487 923.486 237.612 912.274 240.86C918.653 232.777 926.592 226.059 935.621 221.107C951.137 214.058 967.866 203.605 969.965 185.09C970.013 182.313 969.456 179.559 968.333 177.018C967.211 174.478 965.55 172.212 963.465 170.377C961.303 168.017 959.842 165.102 959.246 161.958C958.649 158.813 958.94 155.565 960.087 152.578C972.086 149.548 988.714 147.044 999.846 154.62ZM849.52 63.7778C860.963 48.1667 868.415 68.2686 873.059 78.2087C875.269 82.9605 878.578 86.3002 884.221 83.7769C916.52 69.6999 900.508 122.448 927.523 122.432C931.312 121.886 934.977 120.682 938.352 118.875C955.237 111.997 960.136 130.084 956.286 142.578C953.9 149.876 948.882 160.441 953.078 167.889C959.786 179.882 964.656 188.858 955.174 200.112C947.008 209.732 935.434 213.06 924.729 218.742C914.024 224.424 908.076 236.433 899.057 243.615C882.965 247.228 866.524 249.899 849.785 252.996C847.962 246.282 846.709 239.425 846.041 232.5C846.759 232.626 847.5 232.519 848.152 232.193C848.805 231.867 849.336 231.34 849.667 230.69C858.848 213.382 882.289 210.501 895.392 196.999C903.003 189.156 913.74 178.446 915.627 167.07C916.814 159.633 914.749 151.1 906.099 150.078C904.336 150.042 902.586 150.39 900.971 151.098C899.355 151.805 897.913 152.856 896.744 154.176C900.155 141.687 903.347 127.581 897.11 118.653C889.055 106.843 879.418 119.38 873.024 129.117C872.677 117.056 872.579 104.604 863.375 95.8597C854.171 87.1154 843.169 93.4413 834.817 99.8742C833.947 94.38 832.769 88.9393 831.286 83.5779C831.7 83.9505 832.19 84.2285 832.722 84.3925C833.254 84.5565 833.815 84.6027 834.367 84.5278C834.918 84.4529 835.447 84.2587 835.916 83.9588C836.385 83.6589 836.783 83.2604 837.083 82.791C841.388 76.6878 845.164 69.9153 849.52 63.7778ZM808.302 83.3488C808.19 80.7008 809.265 61.116 819.425 74.0686C821.8 77.737 823.537 81.7805 824.563 86.0283C826.697 92.9059 828.251 99.9505 829.207 107.088C829.275 107.672 829.493 108.229 829.84 108.704C830.187 109.179 830.651 109.556 831.187 109.799C831.723 110.041 832.313 110.141 832.899 110.087C833.485 110.034 834.047 109.83 834.53 109.495C846.98 99.678 862.2 94.8935 865.581 116.152C866.88 124.103 866.207 132.294 867.219 140.146C867.269 140.817 867.521 141.458 867.941 141.984C868.362 142.509 868.931 142.896 869.574 143.094C870.218 143.291 870.906 143.29 871.549 143.09C872.192 142.89 872.759 142.5 873.177 141.973C876.514 137.644 879.566 133.102 882.314 128.377C883.167 126.498 884.711 125.019 886.626 124.247C888.541 123.476 890.679 123.472 892.597 124.236C893.723 128.613 893.684 133.209 892.485 137.567C891.351 148.429 887.919 158.943 885.94 169.645C885.433 172.789 889.848 175.375 891.942 172.4C894.037 169.425 895.266 167.556 896.979 165.209C898.72 162.838 900.73 160.676 902.968 158.767C908.633 163.078 909.81 167.503 906.669 172.075C901.937 180.994 895.475 188.88 887.662 195.275C874.557 206.938 855.185 210.063 845.272 225.219C843.499 199.623 844.957 173.15 832.132 150.675C827.318 141.72 820.58 133.942 812.402 127.902L812.097 124.649C812.583 124.321 812.971 123.867 813.218 123.335C813.465 122.803 813.562 122.214 813.499 121.631C812.654 108.731 808.962 96.3007 808.471 83.3807L808.302 83.3488ZM780.059 464.62C765.972 484.022 748.419 502.769 725.718 511.699C699.975 521.893 671.205 502.709 650.78 489.173C622.332 470.137 570.961 450.314 577.436 408.416C580.798 386.462 599.94 368.103 614.987 353.348C633.207 335.472 652.52 318.765 671.201 301.457C687.307 287.189 702.492 271.913 716.664 255.721C730.571 237.436 742.362 217.635 751.811 196.696C760.43 177.858 770.013 159.475 780.521 141.621C796.984 115.663 818.647 137.707 828.308 157.702C842.828 187.195 834.739 223.272 843.221 254.601C806.593 261.468 770.426 270.304 740.189 292.695C727.215 302.252 716.275 314.298 708.008 328.129C699.742 341.961 694.313 357.301 692.041 373.253C687.785 403.181 702.793 431.016 704.74 460.322C704.304 459.984 703.79 459.762 703.246 459.676C702.702 459.589 702.144 459.641 701.625 459.826C701.106 460.012 700.642 460.325 700.276 460.736C699.91 461.148 699.653 461.645 699.529 462.182C696.647 455.334 693.26 448.709 689.397 442.362C688.939 441.78 688.307 441.36 687.592 441.163C686.878 440.967 686.12 441.004 685.429 441.27C684.737 441.536 684.149 442.016 683.751 442.64C683.352 443.264 683.164 444 683.213 444.739C684.416 453.197 687.134 461.284 687.848 469.781C679.004 456.814 674.252 441.425 664.987 428.598C664.499 427.949 663.795 427.496 663.002 427.321C662.209 427.145 661.379 427.259 660.662 427.641C659.946 428.023 659.389 428.649 659.093 429.405C658.797 430.161 658.781 430.999 659.048 431.766C663.672 447.831 672.684 463.85 673.253 480.988C659.25 468.447 655.362 445.472 645.954 430.166C643.966 427.251 639.431 429.24 640.037 432.288C641.848 443.891 644.324 455.38 647.454 466.699C639.821 456.588 636.728 443.307 630.518 432.152C628.816 429.116 623.945 431.26 624.636 434.324C625.832 443.743 628.358 452.845 629.486 462.164C624.821 456.458 620.466 450.506 616.44 444.332C613.937 440.663 608.462 444.619 610.761 448.206C616.717 457.262 623.328 465.872 630.539 473.965C630.997 474.547 631.63 474.967 632.344 475.163C633.058 475.359 633.817 475.322 634.508 475.056C635.199 474.791 635.787 474.31 636.186 473.686C636.585 473.062 636.773 472.327 636.724 471.588C636.801 467.653 636.579 463.718 636.059 459.817C639.206 467.452 644.276 474.141 650.776 479.234C651.298 479.585 651.905 479.788 652.533 479.82C653.16 479.852 653.785 479.714 654.34 479.418C654.895 479.123 655.359 478.682 655.683 478.143C656.007 477.605 656.178 476.988 656.179 476.359C655.64 471.957 654.828 467.592 653.746 463.291C657.796 474.383 665.154 483.965 674.824 490.741C675.305 490.959 675.829 491.064 676.356 491.045C676.884 491.026 677.399 490.886 677.863 490.634C678.327 490.382 678.725 490.026 679.028 489.593C679.33 489.161 679.528 488.664 679.606 488.142C680.214 480.906 679.577 473.619 677.724 466.598C680.559 472.003 684.01 477.063 688.008 481.675C688.409 482.254 688.977 482.697 689.636 482.945C690.295 483.194 691.014 483.235 691.697 483.065C692.38 482.895 692.995 482.521 693.461 481.992C693.926 481.464 694.22 480.806 694.302 480.107C694.811 475.598 694.7 471.04 693.973 466.561C695.422 469.549 696.837 472.487 698.521 475.388C698.901 476.001 699.466 476.477 700.135 476.749C700.803 477.02 701.54 477.072 702.24 476.898C702.94 476.723 703.566 476.331 704.029 475.778C704.492 475.225 704.767 474.539 704.815 473.82L704.966 472.097C705.862 475.462 711.318 476.012 711.546 472.027C711.843 454.935 709.401 437.905 704.313 421.584C696.915 393.787 695.96 368.96 707.74 342.073C727.968 295.507 778.437 274.708 824.705 265.241C837.012 262.664 849.516 261.132 861.981 259.11C861.68 259.499 861.487 259.961 861.422 260.449C860.035 276.122 868.117 290.345 868.681 305.424C862.338 295.461 856.665 285.087 851.698 274.371C849.909 271.1 845.481 273.678 845.564 276.714C845.893 291.88 852.535 305.612 855.254 320.179C843.278 307.803 839.747 288.267 829.795 274.215C829.336 273.728 828.745 273.387 828.094 273.234C827.443 273.081 826.762 273.123 826.135 273.355C825.508 273.586 824.963 273.997 824.567 274.536C824.172 275.075 823.944 275.719 823.912 276.386C827.059 296.331 838.335 314.267 842.291 334.102C830.484 323.377 826.414 305.534 816.174 293.004C815.74 292.393 815.116 291.943 814.399 291.722C813.683 291.502 812.913 291.524 812.211 291.785C811.508 292.046 810.911 292.532 810.512 293.167C810.114 293.802 809.936 294.551 810.006 295.297C812.554 312.852 821.963 328.158 826.158 345.106C816.72 333.428 812.737 317.44 801.972 306.299C799.363 303.661 795.369 307.415 796.494 310.036C802.369 329.446 814.504 347.237 817.518 367.42C808.579 356.58 804.345 342.384 796.66 330.468C796.218 329.868 795.591 329.43 794.876 329.22C794.162 329.01 793.398 329.041 792.702 329.306C792.006 329.572 791.416 330.059 791.023 330.692C790.63 331.325 790.455 332.069 790.526 332.811C793.538 351.154 802.858 367.626 806.996 385.569C798.954 375.074 794.983 361.803 787.124 351.037C785.548 348.725 781.184 349.345 780.796 352.555C779.716 368.461 787.429 381.389 792.707 395.389C790.227 392.293 787.933 389.146 785.67 385.829C785.16 385.215 784.453 384.797 783.67 384.644C782.887 384.491 782.075 384.613 781.371 384.989C780.667 385.366 780.115 385.973 779.807 386.709C779.499 387.445 779.454 388.265 779.68 389.03C784.295 401.975 788.098 415.195 791.067 428.613C789.911 426.571 788.999 424.401 788.35 422.146C788.027 421.301 787.383 420.619 786.558 420.25C785.733 419.88 784.795 419.854 783.95 420.176C783.105 420.498 782.423 421.143 782.054 421.968C781.685 422.793 781.658 423.731 781.98 424.576C783.777 431.694 788.041 437.945 794.012 442.216C789.593 450.312 784.979 457.582 780.059 464.62ZM958.588 259.64C956.468 272.942 942.627 285.254 933.49 293.99C913.516 313.505 889.935 328.704 869.072 347.132C853.659 361.152 839.46 376.453 826.63 392.87C816.524 406.159 807.357 420.138 799.197 434.703C797.825 424.82 795.547 415.084 792.393 405.618C794.18 407.59 796.056 409.477 798.021 411.278C798.538 411.652 799.149 411.874 799.785 411.918C800.421 411.961 801.057 411.826 801.62 411.526C802.183 411.227 802.65 410.775 802.969 410.223C803.288 409.671 803.446 409.04 803.424 408.403C800.931 394.492 792.784 382.007 789.2 368.546C794.799 379.455 799.645 390.878 810.076 399.153C810.597 399.504 811.204 399.707 811.832 399.739C812.46 399.772 813.085 399.633 813.64 399.337C814.195 399.042 814.659 398.601 814.983 398.063C815.307 397.524 815.478 396.907 815.479 396.278C814.174 385.767 811.466 375.479 807.427 365.687C810.622 371.103 814.732 375.924 819.575 379.935C820.091 380.309 820.702 380.531 821.338 380.574C821.974 380.618 822.61 380.483 823.173 380.183C823.736 379.884 824.203 379.432 824.522 378.88C824.841 378.328 824.999 377.697 824.977 377.06C824.555 366.717 822.317 356.528 818.365 346.96C821.173 351.342 824.726 355.199 828.863 358.357C829.379 358.731 829.99 358.952 830.627 358.996C831.263 359.04 831.898 358.904 832.461 358.605C833.024 358.305 833.492 357.854 833.811 357.302C834.13 356.749 834.287 356.119 834.266 355.482C832.472 343.379 828.949 331.596 823.805 320.495C828.241 330.674 835.574 339.322 844.89 345.363C845.444 345.646 846.065 345.774 846.685 345.734C847.306 345.695 847.905 345.489 848.419 345.138C848.933 344.788 849.343 344.305 849.606 343.742C849.87 343.178 849.977 342.554 849.916 341.935C849.006 333.561 847.014 325.341 843.988 317.481C847.376 323.12 851.988 327.927 857.484 331.545C858.005 331.896 858.612 332.099 859.24 332.131C859.868 332.163 860.493 332.024 861.048 331.729C861.603 331.434 862.067 330.993 862.391 330.454C862.715 329.916 862.886 329.299 862.886 328.67C861.85 318.65 859.645 308.786 856.315 299.278C859.625 305.909 863.979 311.965 869.211 317.214C869.672 317.59 870.225 317.839 870.812 317.936C871.4 318.033 872.003 317.974 872.561 317.764C873.119 317.555 873.612 317.204 873.992 316.744C874.371 316.285 874.623 315.734 874.724 315.147C877.346 299.883 869.692 286.178 868.102 271.43C876.26 283.392 880.528 297.638 891.871 307.575C892.393 307.926 893 308.128 893.628 308.161C894.256 308.193 894.881 308.054 895.436 307.759C895.991 307.464 896.455 307.023 896.779 306.484C897.103 305.945 897.274 305.329 897.274 304.7C895.94 293.459 890.853 283.085 889.083 272.069C895.938 282.12 900.523 292.837 910.573 300.121C911.094 300.472 911.702 300.675 912.329 300.707C912.957 300.74 913.582 300.601 914.137 300.305C914.692 300.01 915.156 299.569 915.48 299.031C915.804 298.492 915.975 297.875 915.976 297.246C915.492 290.674 914.424 284.157 912.783 277.774C916.036 282.303 919.75 286.482 923.866 290.245C924.329 290.635 924.889 290.894 925.486 290.996C926.083 291.099 926.696 291.04 927.263 290.825C927.83 290.611 928.329 290.25 928.71 289.779C929.091 289.308 929.339 288.743 929.429 288.144C929.733 282.791 929.546 277.422 928.871 272.103C931.229 274.913 933.572 277.807 936.181 280.446C936.659 280.889 937.252 281.188 937.892 281.309C938.532 281.431 939.194 281.369 939.8 281.132C940.407 280.895 940.935 280.492 941.323 279.969C941.712 279.445 941.944 278.823 941.995 278.174C942.656 274.024 942.995 269.828 943.01 265.626L946.163 267.01C949.666 269.555 954.031 264.294 950.528 261.75C947.661 259.19 944.024 257.655 940.189 257.388C939.304 257.223 938.389 257.415 937.645 257.922C936.901 258.43 936.388 259.211 936.219 260.096C935.966 263.288 935.898 266.427 935.745 269.55C932.891 266.121 930.087 262.658 926.881 259.469C924.562 257.148 921.265 259.765 921.478 262.344C921.605 267.928 922.49 273.436 922.802 278.967C918.053 273.517 914.141 267.349 908.889 262.241C908.368 261.89 907.761 261.688 907.133 261.655C906.505 261.623 905.88 261.762 905.325 262.057C904.77 262.353 904.306 262.793 903.982 263.332C903.658 263.871 903.487 264.488 903.487 265.116C904.952 272.879 907.108 280.467 908.405 288.198C900.599 279.236 896.155 267.539 887.477 259.026C887.007 258.654 886.449 258.411 885.858 258.319C885.266 258.227 884.661 258.29 884.1 258.501C883.54 258.713 883.045 259.066 882.661 259.526C882.278 259.986 882.021 260.537 881.914 261.126C882.144 271.892 884.202 282.54 888.001 292.615C880.528 281.659 876.137 268.527 866.651 258.723C870.188 258.078 873.674 257.467 877.142 256.722C877.846 256.242 878.977 256.281 879.902 256.018C880.217 256.452 880.634 256.803 881.116 257.039C881.598 257.275 882.131 257.389 882.667 257.372C889.484 257.199 896.075 254.892 901.512 250.778C908.716 249.031 915.954 247.334 923.28 246.093C935.053 244.028 961.676 240.523 958.588 259.64Z" fill="#FCFCFC"/>
<path d="M648.615 389.911C648.803 380.578 645.104 369.109 634.56 367.685C624.016 366.261 616.375 376.112 613.649 384.746C613.519 385.253 613.479 385.779 613.53 386.3C613.274 386.718 613.11 387.186 613.048 387.672C612.986 388.159 613.029 388.653 613.172 389.122C614.137 393.712 616.567 397.866 620.096 400.957C623.626 404.047 628.063 405.909 632.741 406.261C634.868 406.269 636.976 405.849 638.937 405.024C640.898 404.2 642.673 402.988 644.155 401.462C645.637 399.935 646.796 398.125 647.562 396.141C648.328 394.156 648.686 392.037 648.615 389.911ZM632.061 399.434C629.071 398.916 626.306 397.507 624.128 395.393C621.95 393.279 620.461 390.557 619.854 387.583C620.46 384.395 621.983 381.454 624.236 379.119C626.489 376.784 629.375 375.158 632.539 374.439C640.09 373.634 641.686 384.18 641.877 389.425C642.022 390.758 641.869 392.107 641.43 393.374C640.991 394.641 640.276 395.795 639.337 396.752C638.398 397.71 637.259 398.447 636 398.91C634.742 399.374 633.397 399.553 632.061 399.434Z" fill="#FCFCFC"/>
<path d="M762.233 369.927C762.009 367.697 761.321 365.539 760.215 363.589C759.109 361.64 757.609 359.943 755.81 358.606C754.011 357.269 751.953 356.321 749.768 355.825C747.582 355.328 745.317 355.292 743.117 355.72C740.801 356.053 738.574 356.844 736.566 358.047C734.558 359.25 732.81 360.84 731.423 362.725C730.036 364.61 729.038 366.752 728.487 369.027C727.935 371.301 727.842 373.663 728.213 375.974C728.399 376.771 728.875 377.47 729.55 377.934C730.079 379.921 731.002 381.781 732.265 383.403C733.527 385.026 735.103 386.378 736.899 387.379C738.695 388.38 740.674 389.01 742.718 389.231C744.762 389.452 746.83 389.259 748.798 388.664C752.773 387.431 756.236 384.933 758.661 381.551C761.086 378.169 762.341 374.088 762.233 369.927ZM747.058 382.119C741.21 384.34 737.032 380.268 735.579 375.221C735.441 374.878 735.23 374.57 734.961 374.316C734.702 371.643 735.475 368.971 737.121 366.849C738.768 364.726 741.163 363.314 743.817 362.9C745.199 362.522 746.65 362.47 748.056 362.748C749.461 363.027 750.783 363.628 751.916 364.504C753.049 365.381 753.963 366.509 754.586 367.799C755.209 369.089 755.524 370.506 755.505 371.939C755.229 374.27 754.285 376.471 752.786 378.277C751.287 380.083 749.298 381.417 747.058 382.119Z" fill="#FCFCFC"/>
<path d="M754.805 431.697C754.051 430.4 753.041 429.272 751.835 428.38C750.629 427.487 749.254 426.851 747.794 426.51C746.333 426.168 744.819 426.128 743.342 426.393C741.866 426.658 740.46 427.221 739.209 428.049C736.643 429.924 734.658 432.485 733.48 435.437C732.303 438.389 731.981 441.613 732.552 444.74C732.657 445.531 733.047 446.257 733.649 446.782C734.251 447.306 735.023 447.594 735.822 447.59C735.997 448.347 736.449 449.011 737.09 449.45C738.187 450.545 739.493 451.409 740.93 451.992C742.366 452.575 743.905 452.864 745.455 452.843C747.005 452.822 748.536 452.491 749.956 451.869C751.376 451.247 752.658 450.348 753.725 449.223C755.848 446.848 757.11 443.827 757.306 440.647C757.502 437.468 756.621 434.315 754.805 431.697ZM741.304 444.293C740.767 443.807 740.063 443.548 739.339 443.571C739.047 441.968 739.121 440.32 739.554 438.75C739.987 437.179 740.769 435.727 741.842 434.5C742.259 433.965 742.799 433.539 743.416 433.259C744.033 432.978 744.709 432.851 745.386 432.889C746.063 432.926 746.721 433.127 747.304 433.475C747.886 433.822 748.376 434.305 748.73 434.883C753.077 440.608 747.591 449.946 741.003 444.498L741.304 444.293Z" fill="#FCFCFC"/>
<path d="M796.154 208.051C795.954 204.505 794.561 201.131 792.202 198.476C789.843 195.821 786.656 194.041 783.158 193.424C781.34 193.27 779.508 193.485 777.774 194.056C776.04 194.626 774.439 195.541 773.067 196.745C771.695 197.949 770.58 199.418 769.789 201.063C768.998 202.708 768.547 204.496 768.463 206.319C768.412 206.807 768.464 207.301 768.614 207.768C768.764 208.235 769.011 208.665 769.337 209.032C769.663 209.398 770.062 209.693 770.509 209.896C770.955 210.1 771.439 210.208 771.93 210.214C772.889 213.065 774.753 215.524 777.238 217.218C779.723 218.913 782.693 219.75 785.697 219.602C788.566 219.327 791.23 217.99 793.164 215.854C795.099 213.717 796.165 210.934 796.154 208.051ZM785.017 212.775C783.371 212.79 781.772 212.233 780.49 211.201C779.209 210.168 778.325 208.724 777.988 207.113C777.84 206.585 777.539 206.113 777.125 205.754C776.71 205.395 776.199 205.166 775.655 205.096C775.934 203.641 776.734 202.338 777.904 201.431C779.075 200.524 780.537 200.075 782.015 200.169C784.007 200.5 785.826 201.5 787.173 203.004C788.52 204.509 789.315 206.427 789.426 208.443C789.355 209.582 788.866 210.654 788.052 211.454C787.238 212.254 786.157 212.725 785.017 212.775Z" fill="#FCFCFC"/>
<path d="M374.981 735.89C378.122 736.517 382.451 734.426 381.962 730.591C380.007 714.624 371.56 701.307 367.232 685.899C361.159 664.494 359.065 641.764 354.178 620.08C342.45 568.555 327.441 517.797 312.293 467.038C297.144 416.28 278.156 369.426 260.634 320.62C251.769 296.078 247.44 257.87 220.634 245.947C192.71 233.258 146.078 243.088 119.411 254.802C84.8258 271.247 53.7311 294.185 27.8221 322.363C-16.5065 367.823 -54.3429 439.219 -36.4718 504.48C-36.2183 505.73 -35.4844 506.832 -34.4275 507.549C-33.3706 508.265 -32.0747 508.54 -30.8173 508.314C-28.9097 509.939 -26.6704 511.129 -24.2553 511.8C35.7802 558.933 99.3063 597.908 162.204 640.788C228.453 685.62 295.19 721.318 374.981 735.89ZM-25.5817 496.392C-25.9546 496.101 -26.3818 495.888 -26.8382 495.764C-40.8 432.038 -0.241082 367.404 41.9932 324.107C64.1855 300.943 90.1502 281.705 118.783 267.213C145.939 253.826 194.246 242.461 220.564 261.216C219.822 263.058 218.707 264.727 217.29 266.118C215.872 267.51 214.183 268.594 212.327 269.304C211.738 269.586 211.22 269.995 210.81 270.501C210.399 271.008 210.107 271.599 209.953 272.233C179.726 281.924 146.148 281.436 117.456 295.241C84.756 312.041 55.6587 335.063 31.8012 363.012C11.9755 384.905 5.3436 411.818 -1.009 440.056C-2.40517 446.122 -13.5048 495.834 -21.9516 499.46C-22.9988 498.414 -24.3251 497.438 -25.5817 496.392ZM-11.6199 507.338C2.83051 492.139 9.32269 445.355 11.9056 434.548C22.9354 385.742 52.1155 352.275 91.9065 322.991C130.581 294.405 176.445 297.193 219.517 281.157C220.501 280.778 221.36 280.134 222.001 279.297C222.641 278.461 223.038 277.464 223.147 276.416C225.653 274.518 227.763 272.15 229.36 269.444C232.012 272.896 234.13 276.727 235.643 280.809C262.519 353.181 289.256 425.972 310.757 500.226C322.555 540.945 333.794 581.802 343.497 623.148C347.965 642.113 350.967 661.147 354.597 680.251C357.389 694.963 365.906 709.186 369.536 723.619C298.471 709.116 235.294 677.671 175.747 636.604C112.779 593.028 48.6251 554.331 -11.6897 507.338L-11.6199 507.338Z" fill="#FCFCFC"/>
<path d="M165.257 517.551C166.652 524.561 168.761 531.412 171.553 537.998C175.751 546.413 182.957 557.332 193.731 557.958C214.3 559.141 233.33 535.007 226.894 514.629C223.443 505.559 217.04 497.897 208.703 492.861C187.715 476.378 208.703 475.543 220.947 473.526C242.775 469.91 239.067 444.733 229.062 431.797C198.769 393.267 117.123 423.312 104.599 464.833C98.0229 486.462 103.62 513.517 124.888 525.131C143.219 535.007 155.322 518.176 154.273 501.485C154.237 500.758 154.046 500.047 153.713 499.398C161.409 502.25 161.829 504.823 165.257 517.551ZM138.111 506.562C126.777 515.835 119.338 512.821 115.793 497.52C112.876 489.692 112.269 481.199 114.044 473.039C117.549 460.503 125.599 449.701 136.642 442.716C157.141 427.415 189.884 420.808 213.041 433.188C225.121 438.984 226.847 448.836 218.218 462.746C213.612 463.646 208.917 464.019 204.226 463.859C199.693 463.778 195.271 465.252 191.703 468.032C184.706 474.987 189.184 487.784 194.781 494.252C199.856 499.574 205.354 504.481 211.222 508.926C228.643 523.949 200.448 560.253 184.007 538.137C179.936 530.866 177.211 522.927 175.961 514.699C171.763 498.077 164.767 483.194 147.976 476.795C145.965 475.959 143.801 475.545 141.621 475.579C139.441 475.614 137.292 476.096 135.309 476.996C133.326 477.896 131.551 479.194 130.096 480.808C128.642 482.423 127.539 484.319 126.857 486.377C126.174 488.436 125.928 490.612 126.132 492.77C126.337 494.928 126.988 497.02 128.045 498.915C129.102 500.811 130.542 502.469 132.274 503.785C134.006 505.1 135.994 506.046 138.111 506.562Z" fill="#FCFCFC"/>
<path d="M321.355 609.529C301.465 552.044 217.158 560.167 190.637 605.988C190.445 606.409 190.304 606.852 190.219 607.307C189.667 608.066 189.289 608.936 189.113 609.857C188.937 610.777 188.967 611.724 189.2 612.632C189.433 613.54 189.864 614.385 190.462 615.109C191.06 615.832 191.811 616.416 192.661 616.818C216.32 626.607 234.536 644.588 254.356 659.515C266.36 668.61 283.459 684.994 299.581 683.953C328.683 682.217 327.706 627.788 321.355 609.529ZM265.942 654.447C253.1 645.352 241.445 635.216 229.162 626.052C230.084 624.535 231.16 623.116 232.372 621.817C232.982 621.21 233.425 620.456 233.657 619.629C233.889 618.802 233.903 617.93 233.698 617.096C243.958 601.614 263.778 601.545 279.481 610.778C288.973 616.332 297.557 625.913 289.461 636.049C283.09 642.792 276.078 648.907 268.524 654.308C268.112 654.694 267.759 655.139 267.477 655.627L265.942 654.447ZM277.038 661.806C286.39 654.1 297.975 646.671 302.861 635.147C308.374 622.025 298.045 610.987 288.344 603.489C267.407 587.104 234.466 590.09 222.043 615.083C221.666 615.862 221.475 616.717 221.485 617.582L220.089 619.595C214.321 615.639 208.281 612.09 202.013 608.973C227.557 569.887 295.463 568.429 312.213 616.888C315.204 628.646 315.012 640.982 311.654 652.642C307.118 676.038 290.787 670.276 277.038 661.875L277.038 661.806Z" fill="#FCFCFC"/>
<path d="M149.074 364.06C149.001 365.007 149.194 365.955 149.632 366.796C158.063 384.832 176.666 399.428 197.151 390.095C215.755 381.674 219.726 360.13 209.484 343.358C191.856 314.586 143.709 325.674 148.308 361.744C148.382 362.565 148.645 363.358 149.074 364.06ZM195.409 344.06C198.001 345.984 200.127 348.474 201.626 351.344C203.126 354.214 203.961 357.389 204.068 360.63C204.175 363.871 203.552 367.095 202.246 370.059C200.939 373.023 198.983 375.65 196.524 377.744C181.126 389.393 165.866 375.007 159.387 361.533C156.808 339.849 179.384 331.077 195.409 344.06Z" fill="#FCFCFC"/>
<path d="M131.43 371.095C129.609 366.335 125.964 362.417 121.235 360.136C116.507 357.854 111.048 357.381 105.968 358.811C100.887 360.241 96.5659 363.468 93.8803 367.837C91.1948 372.206 90.3464 377.389 91.5073 382.335C91.3522 382.961 91.3354 383.612 91.4579 384.246C91.5805 384.879 91.8396 385.481 92.2189 386.013C94.7791 390.719 99.01 394.396 104.15 396.381C109.29 398.367 115.002 398.531 120.258 396.844C122.76 395.859 125.035 394.41 126.951 392.582C128.868 390.754 130.389 388.581 131.427 386.189C132.465 383.797 132.999 381.233 133 378.642C133.001 376.052 132.467 373.487 131.43 371.095ZM102.965 381.449C102.999 381.064 102.999 380.676 102.965 380.291C102.317 377.972 102.643 375.503 103.872 373.41C105.1 371.318 107.135 369.769 109.541 369.093C111.947 368.417 114.534 368.668 116.749 369.793C118.964 370.918 120.632 372.828 121.396 375.114C121.894 376.164 122.169 377.298 122.205 378.451C122.241 379.603 122.039 380.751 121.608 381.828C121.178 382.905 120.529 383.89 119.699 384.725C118.868 385.56 117.873 386.23 116.771 386.694C114.192 387.504 111.398 387.423 108.876 386.464C106.353 385.506 104.261 383.731 102.965 381.449Z" fill="#FCFCFC"/>
<path d="M76.0835 506.525C78.7534 501.791 79.8741 496.35 79.2904 490.955C79.9178 479.953 80.1967 468.673 79.8481 457.671C79.8574 456.944 79.7222 456.222 79.4504 455.547C79.1786 454.872 78.7755 454.257 78.264 453.736C77.7526 453.216 77.1429 452.8 76.4697 452.514C75.7965 452.227 75.073 452.075 74.3406 452.066C59.7955 451.655 45.26 453.167 31.117 456.564C30.4027 456.763 29.735 457.101 29.1521 457.557C28.5692 458.012 28.0826 458.578 27.72 459.221C27.3574 459.863 27.126 460.57 27.0389 461.302C26.9519 462.033 27.011 462.775 27.2129 463.484C29.3043 478.015 29.5832 492.685 32.093 507.078C32.2174 507.918 32.5681 508.708 33.1081 509.366C33.6481 510.024 34.3572 510.524 35.1604 510.815C35.4555 511.862 36.1338 512.761 37.0624 513.337C37.9909 513.913 39.1028 514.124 40.18 513.929C51.2648 512.407 68.3451 516.212 76.0835 506.525ZM42.62 502.511C40.5983 490.471 39.9708 478.361 38.6462 466.321C48.5828 464.312 58.6928 463.269 68.8331 463.207C68.8331 474.278 68.4148 485.35 67.9965 496.353C67.6479 504.172 50.4979 502.442 42.62 502.511Z" fill="#FCFCFC"/>
<path d="M251.019 492.422C248.851 496.788 247.317 501.439 246.461 506.237C244.18 513.22 242.381 520.352 241.074 527.581C240.944 528.287 240.985 529.013 241.194 529.7C241.402 530.386 241.772 531.013 242.273 531.527C242.773 532.041 243.39 532.428 244.07 532.655C244.751 532.881 245.476 532.942 246.185 532.83C246.581 533.291 247.047 533.687 247.566 534.005C254.471 537.804 261.377 541.81 268.283 545.264C269.013 545.684 269.83 545.932 270.672 545.988C271.513 546.044 272.355 545.907 273.135 545.587C273.915 545.267 274.611 544.772 275.17 544.142C275.73 543.511 276.138 542.761 276.362 541.948C277.787 534.578 279.843 527.345 282.509 520.328C284.373 515.769 287.826 512.316 289.414 507.688C293.143 498.086 278.089 493.044 271.943 491.041C265.797 489.038 255.576 484.686 251.019 492.422ZM269.526 501.333C272.356 502.168 275.106 503.255 277.744 504.579C279.884 505.685 275.327 510.451 274.498 511.487C270.892 517.74 268.546 524.639 267.592 531.794L253.228 523.92C253.116 523.887 252.996 523.887 252.883 523.92C254.333 516.46 257.096 509.138 259.098 501.955C259.582 500.159 259.098 498.708 260.687 498.777C263.738 499.21 266.714 500.071 269.526 501.333Z" fill="#FCFCFC"/>
<path d="M159.888 558.326C147.495 537.379 113.379 555.253 124.031 577.178C124.031 577.178 124.449 577.667 124.658 577.946C124.658 579.025 124.999 580.076 125.633 580.948C128.523 585.877 133.183 589.512 138.658 591.109C144.133 592.705 150.009 592.143 155.084 589.537C166.433 583.253 165.667 568.101 159.888 558.326ZM135.171 575.293C134.88 574.871 134.528 574.495 134.127 574.176C134.17 573.258 133.979 572.344 133.57 571.522C132.899 569.635 132.955 567.565 133.728 565.718C134.501 563.87 135.935 562.379 137.747 561.538C139.596 560.259 141.853 559.715 144.079 560.012C146.305 560.309 148.341 561.425 149.793 563.143C153.274 567.054 154.945 575.712 150.28 579.343C149.03 580.098 147.641 580.594 146.195 580.799C144.75 581.004 143.278 580.915 141.868 580.537C140.457 580.159 139.137 579.5 137.987 578.599C136.836 577.698 135.879 576.573 135.171 575.293Z" fill="#FCFCFC"/>
</svg>
