<svg width="32" height="32" viewBox="0 0 32 32" fill="none" xmlns="http://www.w3.org/2000/svg">
<path d="M8.88904 14.8889C8.88904 14.5204 8.49146 14.2222 8.00012 14.2222C7.50879 14.2222 7.11121 14.5204 7.11121 14.8889C7.11121 16.6395 9.68587 19.0431 9.97929 19.312C10.1555 19.4722 10.4107 19.5555 10.6676 19.5555C10.8655 19.5555 11.0652 19.506 11.231 19.4044C11.6103 19.1707 11.665 18.7508 11.3542 18.4656C10.4012 17.5946 8.88904 15.8537 8.88904 14.8889Z" fill="#27292C"/>
<path d="M23.9999 14.2222C23.5085 14.2222 23.1109 14.5204 23.1109 14.8889C23.1109 15.8504 21.5987 17.5933 20.6455 18.4663C20.3347 18.7508 20.3902 19.1708 20.7697 19.4044C20.9346 19.506 21.1343 19.5555 21.3331 19.5555C21.59 19.5555 21.8443 19.4722 22.0206 19.312C22.314 19.0431 24.8888 16.6395 24.8888 14.8889C24.8888 14.5204 24.4912 14.2222 23.9999 14.2222Z" fill="#27292C"/>
<path d="M16.0001 14.2222C15.5088 14.2222 15.1112 14.5204 15.1112 14.8889V18.8888C15.1112 19.2573 15.5088 19.5555 16.0001 19.5555C16.4914 19.5555 16.889 19.2573 16.889 18.8888V14.8889C16.8889 14.5204 16.4913 14.2222 16.0001 14.2222Z" fill="#27292C"/>
<path d="M24 2.90912C23.5592 2.90912 23.0987 2.96741 22.6204 3.05625C21.0186 1.18902 18.6474 0 16 0C13.3526 0 10.9813 1.18902 9.37962 3.05618C8.90126 2.96741 8.44069 2.90905 8.00003 2.90905C3.58874 2.90912 0 6.49787 0 10.9091C0 13.9318 1.70454 16.6797 4.38068 18.0383L4.36649 29.0291C4.36581 29.8224 4.67399 30.5682 5.23438 31.1292C5.79545 31.6911 6.54047 32 7.33383 32H24.669C26.3054 32 27.6364 30.669 27.6364 29.0327V18.0277C30.3025 16.6655 32 13.9219 32 10.9091C31.9999 6.49787 28.4112 2.90912 24 2.90912ZM26.1818 29.0327C26.1818 29.8665 25.5028 30.5455 24.669 30.5455H7.33376C6.92965 30.5455 6.54967 30.3878 6.26344 30.1017C5.9779 29.8155 5.82026 29.4355 5.82095 29.0307L5.82476 26.1818H26.1818V29.0327ZM26.6321 16.8956C26.5937 16.9112 26.5575 16.9297 26.5234 16.9517C26.4317 17.0085 26.3565 17.0839 26.3003 17.1704C26.2436 17.2564 26.2052 17.3558 26.1896 17.4623C26.1831 17.5028 26.181 17.5433 26.1817 17.5845V24.7272H5.8266L5.83595 17.5944C5.83663 17.5546 5.83451 17.5141 5.82885 17.4751C5.81324 17.365 5.77274 17.2627 5.71376 17.1739C5.65833 17.0908 5.58592 17.0184 5.49783 16.963C5.46163 16.9403 5.42324 16.9204 5.38349 16.904C2.99645 15.8601 1.45452 13.5092 1.45452 10.9091C1.45452 7.29969 4.39063 4.36364 7.99997 4.36364C8.14103 4.36364 8.28994 4.38068 8.43606 4.39221C7.70024 5.67103 7.27267 7.1488 7.27267 8.72728C7.27267 9.12928 7.59797 9.45458 7.99997 9.45458C8.40197 9.45458 8.72726 9.12928 8.72726 8.72728C8.72726 4.7173 11.99 1.45452 16 1.45452C20.01 1.45452 23.2727 4.7173 23.2727 8.72728C23.2727 9.12928 23.598 9.45458 24 9.45458C24.402 9.45458 24.7273 9.12928 24.7273 8.72728C24.7273 7.1488 24.2997 5.67109 23.5639 4.39221C23.71 4.38068 23.8589 4.36364 24 4.36364C27.6094 4.36364 30.5454 7.29976 30.5454 10.9091C30.5454 13.5 29.0099 15.848 26.6321 16.8956Z" fill="#27292C"/>
</svg>
