<svg width="72" height="72" viewBox="0 0 72 72" fill="none" xmlns="http://www.w3.org/2000/svg">
<circle r="36" transform="matrix(-1 0 0 1 36 36)" fill="#FFC339"/>
<path d="M37.656 25.3054L41 22.6486L37.0266 24.2174C31.0823 26.5636 30.2801 26.3496 26.3054 21.344L23.6486 18L25.218 21.9728C27.5642 27.9177 27.3496 28.7193 22.344 32.6946L19 35.3514L22.9734 33.7826C28.9177 31.4351 29.7193 31.6498 33.6946 36.656L36.3514 40L34.782 36.0272C32.4358 30.0823 32.6504 29.2807 37.656 25.3054ZM32.4675 33.2739C30.9813 31.7489 29.7523 31.0699 28.1581 31.0699C27.3331 31.091 26.5149 31.2248 25.7261 31.4675C27.9371 29.3131 28.3702 27.6973 27.5325 24.7261C29.6875 26.9371 31.3027 27.3702 34.2739 26.5325C32.0629 28.6869 31.6298 30.3027 32.4675 33.2739Z" fill="#27292C"/>
<path d="M37.566 45.3204L41 42.5923L36.9202 44.2032C33.1855 45.6771 32.8157 45.5773 30.3202 42.4344L27.5925 39L29.2029 43.0801C30.677 46.8132 30.5778 47.183 27.434 49.6796L24 52.4077L28.0798 50.7968C31.8145 49.3229 32.1843 49.4227 34.6798 52.5656L37.4075 56L35.7971 51.9199C34.323 48.1868 34.4222 47.817 37.566 45.3204ZM33.6649 49.5179C33.0326 48.923 32.1987 48.5893 31.3305 48.5839C31.0467 48.5861 30.7636 48.6134 30.4846 48.6655C31.285 47.8146 31.6055 46.6193 31.3384 45.4821C32.1896 46.2819 33.3849 46.6019 34.5219 46.3345C33.7204 47.1847 33.3985 48.3802 33.6649 49.5179Z" fill="#27292C"/>
<path d="M53.566 31.3204L57 28.5923L52.9202 30.2032C49.1855 31.6778 48.8157 31.5773 46.3202 28.4344L43.5925 25L45.2029 29.0801C46.677 32.8132 46.5778 33.183 43.434 35.6796L40 38.4077L44.0798 36.7968C47.8138 35.3222 48.1843 35.4233 50.6798 38.5656L53.4075 42L51.7971 37.9199C50.323 34.1868 50.4222 33.817 53.566 31.3204ZM49.6649 35.5179C49.0326 34.923 48.1987 34.5893 47.3305 34.5839C47.0467 34.5861 46.7636 34.6134 46.4846 34.6655C47.285 33.8146 47.6055 32.6193 47.3384 31.4821C48.1896 32.2819 49.3849 32.6019 50.5219 32.3345C49.7204 33.1847 49.3985 34.3802 49.6649 35.5179Z" fill="#27292C"/>
</svg>
