<svg width="36" height="38" viewBox="0 0 36 38" fill="none" xmlns="http://www.w3.org/2000/svg">
<path d="M33.1988 15.7364C33.627 12.3669 31.8854 9.07306 28.8425 7.6042C27.1329 6.77889 25.2489 6.64396 23.5227 7.12356C22.6003 6.28185 21.4667 5.70087 20.259 5.45216C19.2381 2.21854 16.2868 0 12.9216 0C9.55634 0 6.60504 2.21802 5.58431 5.45172C2.36875 6.10885 0 9.02214 0 12.4219C0 14.463 0.838456 16.3686 2.31545 17.7178C2.26295 18.0717 2.23651 18.43 2.23651 18.788C2.23651 21.7424 4.00899 24.3646 6.6818 25.4191C7.18403 26.5842 7.98494 27.5815 9.01373 28.3182C9.96352 28.9984 11.0516 29.4126 12.1954 29.5361V34.4991C12.1954 34.909 12.5206 35.2413 12.9216 35.2413C13.3226 35.2413 13.6478 34.909 13.6478 34.4991V31.7944C14.2076 32.6939 14.955 33.4419 15.8435 33.9943L14.4818 36.9408C14.3105 37.3113 14.4656 37.7537 14.8282 37.9287C14.9285 37.9771 15.034 38 15.1379 38C15.4101 38 15.6711 37.8429 15.795 37.5747L17.1565 34.6287C17.8771 34.8859 18.629 35.0166 19.3876 35.0166C19.7721 35.0166 20.1582 34.9832 20.5426 34.9157C21.7808 34.6985 22.9218 34.1464 23.8627 33.3122C24.0329 33.3249 24.2025 33.3311 24.3713 33.3311C27.0361 33.331 29.4922 31.7687 30.6532 29.2566C30.8028 28.933 30.9286 28.5973 31.0291 28.2545C32.9283 27.6793 34.4828 26.3222 35.3357 24.4765C36.7563 21.4024 35.8318 17.7341 33.1988 15.7364ZM7.90862 24.5668C7.83077 24.3587 7.66564 24.1975 7.45889 24.1275C5.20386 23.3635 3.68882 21.2178 3.68882 18.7881C3.68882 18.3839 3.73137 17.9793 3.81532 17.5853C3.8745 17.3077 3.77342 17.0199 3.55491 16.8441C2.21872 15.7693 1.4523 14.1574 1.4523 12.4219C1.4523 9.60053 3.51351 7.2026 6.24674 6.84413C6.54201 6.80539 6.78419 6.58644 6.8579 6.29172C7.56564 3.46118 10.0591 1.48437 12.9216 1.48437C15.7841 1.48437 18.2775 3.46118 18.9852 6.29157C19.0589 6.58637 19.3011 6.80524 19.5963 6.84398C20.4402 6.95471 21.2507 7.27103 21.9561 7.75494C21.2127 8.15483 20.5257 8.68193 19.9299 9.33112C17.6731 8.75704 15.328 9.39606 13.6478 10.9123V8.09404C13.6478 7.68421 13.3226 7.35186 12.9216 7.35186C12.5206 7.35186 12.1954 7.68421 12.1954 8.09404V12.3124C11.1896 11.207 9.77275 10.56 8.24245 10.56C7.84145 10.56 7.51626 10.8924 7.51626 11.3022C7.51626 11.712 7.84145 12.0444 8.24245 12.0444C9.65372 12.0444 10.9337 12.7967 11.6446 14.0256C11.1935 15.4288 11.1829 16.9264 11.6112 18.3323C10.6654 17.562 9.48169 17.1274 8.24245 17.1274C7.84145 17.1274 7.51626 17.4597 7.51626 17.8696C7.51626 18.2794 7.84145 18.6118 8.24245 18.6118C9.41793 18.6118 10.5243 19.1476 11.2723 20.0597C10.1938 22.5191 10.5707 25.3544 12.1954 27.4171V28.0395C10.2809 27.768 8.61041 26.4413 7.90862 24.5668ZM34.0223 23.8425C33.2972 25.4117 31.9306 26.5346 30.2732 26.9233C30.0023 26.9868 29.7906 27.2029 29.728 27.4797C29.6393 27.8724 29.5086 28.257 29.3397 28.6226C28.3245 30.8195 26.0582 32.0987 23.6996 31.8049C23.4832 31.7784 23.2666 31.8517 23.1093 32.0058C21.6915 33.3945 19.6266 33.865 17.782 33.2748L20.0335 28.403C20.4845 27.4274 21.2801 26.6895 22.2741 26.3254C23.268 25.9613 24.3412 26.0146 25.2959 26.4755C25.6585 26.6504 26.0914 26.4921 26.2626 26.1214C26.4338 25.7508 26.2788 25.3084 25.9161 25.1334C24.5063 24.4528 22.951 24.4531 21.6055 25.0012L22.7775 22.4652L22.7777 22.465C23.2286 21.4893 24.0244 20.7513 25.0183 20.3873C26.0123 20.0233 27.0854 20.0765 28.0401 20.5374C28.403 20.7123 28.8356 20.5539 29.0068 20.1833C29.1781 19.8127 29.023 19.3703 28.6604 19.1953C27.3548 18.5651 25.8874 18.4923 24.5283 18.9899C24.4685 19.0118 24.41 19.0359 24.3513 19.0597L26.1166 15.24C26.2879 14.8694 26.1328 14.427 25.7702 14.252C25.4074 14.0769 24.9748 14.2355 24.8035 14.6061L23.0366 18.4292C22.5963 17.019 21.6085 15.7912 20.1986 15.1105C19.8358 14.9355 19.4032 15.094 19.2319 15.4646C19.0607 15.8352 19.2157 16.2776 19.5784 16.4526C21.549 17.4039 22.3951 19.8162 21.4647 21.8303L20.2938 24.3639C20.2746 24.3025 20.2556 24.241 20.2342 24.1799C19.7471 22.7908 18.7598 21.6788 17.4543 21.0486C17.0916 20.8733 16.6588 21.032 16.4876 21.4027C16.3164 21.7732 16.4714 22.2157 16.8341 22.3907C17.7887 22.8516 18.5107 23.6649 18.8669 24.6806C19.2231 25.6965 19.1711 26.7933 18.7201 27.7691V27.7691L16.4688 32.6407C14.8512 31.5596 13.895 29.6308 14.0438 27.6295C14.0603 27.4075 13.9785 27.1896 13.8207 27.036C12.1009 25.361 11.6276 22.7594 12.6429 20.5625C12.8119 20.1968 13.0195 19.8495 13.26 19.5301C13.4295 19.3049 13.4583 19.0004 13.3342 18.7462C12.5751 17.191 12.5556 15.399 13.2809 13.8298C14.2097 11.82 16.1848 10.6064 18.2631 10.6064C18.8229 10.6064 19.3907 10.6946 19.947 10.879C20.2296 10.9728 20.5406 10.8806 20.7304 10.6463C22.5531 8.39589 25.6337 7.6969 28.2221 8.94615C30.8104 10.1956 32.2388 13.0714 31.6959 15.9397C31.6394 16.2383 31.7669 16.542 32.0178 16.7059C34.3396 18.2234 35.2013 21.2913 34.0223 23.8425Z" fill="#27292C"/>
<path d="M6.54866 10.0003C6.53087 10.0001 6.56652 10 6.54866 10C4.63027 9.99959 3.05593 11.0499 3.00146 12.3915C2.97915 12.9412 3.21447 13.4516 3.62908 13.8682C3.89576 14.1361 4.49774 13.9631 4.42681 13.6404C4.39524 13.4969 4.37886 13.3499 4.37886 13.2002C4.37886 12.0469 5.34876 11.0521 6.74914 10.5932C7.17769 10.4528 7.02182 10.0053 6.54866 10.0003Z" fill="#27292C"/>
<path d="M17.5487 12.0004C17.5309 12.0002 17.5665 12 17.5487 12C15.6303 11.9994 14.0559 13.5749 14.0015 15.5872C13.9791 16.4118 14.2145 17.1774 14.6291 17.8023C14.8958 18.2041 15.4978 17.9447 15.4268 17.4606C15.3953 17.2453 15.3789 17.0249 15.3789 16.8003C15.3789 15.0703 16.3488 13.5781 17.7492 12.8898C18.1777 12.6792 18.0219 12.0079 17.5487 12.0004Z" fill="#27292C"/>
</svg>
